SplineFontDB: 3.0
FontName: BZByzantina
FullName: BZ Byzantina
FamilyName: BZ Byzantina
Weight: Book
Version: 0.00 March 30, 2006
ItalicAngle: 0
UnderlinePosition: 0
UnderlineWidth: 0
Ascent: 1638
Descent: 410
sfntRevision: 0x00000000
LayerCount: 2
Layer: 0 1 "Back"  1
Layer: 1 1 "Fore"  0
XUID: [1021 761 1329040319 889027]
FSType: 0
OS2Version: 0
OS2_WeightWidthSlopeOnly: 0
OS2_UseTypoMetrics: 1
CreationTime: -2082844800
ModificationTime: 1354201226
PfmFamily: 17
TTFWeight: 400
TTFWidth: 5
LineGap: 0
VLineGap: 0
Panose: 2 11 6 3 5 3 2 2 2 4
OS2TypoAscent: 2310
OS2TypoAOffset: 1
OS2TypoDescent: 491
OS2TypoDOffset: 1
OS2TypoLinegap: 0
OS2WinAscent: 35
OS2WinAOffset: 1
OS2WinDescent: 18
OS2WinDOffset: 1
HheadAscent: 35
HheadAOffset: 1
HheadDescent: -18
HheadDOffset: 1
OS2SubXSize: 0
OS2SubYSize: 0
OS2SubXOff: 0
OS2SubYOff: 0
OS2SupXSize: 0
OS2SupYSize: 0
OS2SupXOff: 0
OS2SupYOff: 0
OS2StrikeYSize: 0
OS2StrikeYPos: 0
OS2UnicodeRanges: 00000000.00000000.00000000.00000000
DEI: 91125
ShortTable: maxp 16
  1
  0
  109
  155
  5
  0
  0
  1
  0
  16
  0
  0
  0
  0
  0
  0
EndShort
LangName: 1033 "" "" "Regular" "BZ Byzantina:Version 0.00" "" "Version 0.00 March 30, 2006" 
Encoding: UnicodeFull
UnicodeInterp: none
NameList: Adobe Glyph List
DisplaySize: -96
AntiAlias: 1
FitToEm: 1
WinInfo: 64 8 2
BeginChars: 1114112 109

StartChar: .notdef
Encoding: 711 711 0
AltUni2: 0002db.ffffffff.0 0002dd.ffffffff.0 0000b8.ffffffff.0 0002da.ffffffff.0 0002d9.ffffffff.0 0002d8.ffffffff.0 0000af.ffffffff.0 0002dc.ffffffff.0 0002c6.ffffffff.0 000131.ffffffff.0 0000d9.ffffffff.0 0000db.ffffffff.0 0000da.ffffffff.0 0000d2.ffffffff.0 00e01e.ffffffff.0 0000d4.ffffffff.0 0000d3.ffffffff.0 0000cc.ffffffff.0 0000cf.ffffffff.0 0000ce.ffffffff.0 0000cd.ffffffff.0 0000c8.ffffffff.0 0000cb.ffffffff.0 0000c1.ffffffff.0 0000ca.ffffffff.0 0000c2.ffffffff.0 00201e.ffffffff.0 00201a.ffffffff.0 0000b7.ffffffff.0 002021.ffffffff.0 00fb02.ffffffff.0 00fb01.ffffffff.0 00203a.ffffffff.0 002039.ffffffff.0 0020ac.ffffffff.0 002044.ffffffff.0 000178.ffffffff.0 0000f7.ffffffff.0 002019.ffffffff.0 002018.ffffffff.0 00201d.ffffffff.0 00201c.ffffffff.0 002014.ffffffff.0 000153.ffffffff.0 0000d5.ffffffff.0 0000c3.ffffffff.0 0000c0.ffffffff.0 002026.ffffffff.0 0000bb.ffffffff.0 0000ab.ffffffff.0 000394.ffffffff.0 002248.ffffffff.0 000192.ffffffff.0 00221a.ffffffff.0 0000ac.ffffffff.0 0000a1.ffffffff.0 0000bf.ffffffff.0 0000f8.ffffffff.0 0000e6.ffffffff.0 0003a9.ffffffff.0 0000ba.ffffffff.0 0000aa.ffffffff.0 00222b.ffffffff.0 0003c0.ffffffff.0 00220f.ffffffff.0 002211.ffffffff.0 002202.ffffffff.0 0000b5.ffffffff.0 0000a5.ffffffff.0 002265.ffffffff.0 002264.ffffffff.0 0000b1.ffffffff.0 00221e.ffffffff.0 0000d8.ffffffff.0 0000c6.ffffffff.0 002260.ffffffff.0 0000a8.ffffffff.0 0000b4.ffffffff.0 002122.ffffffff.0 0000a7.ffffffff.0 0000a3.ffffffff.0 0000a2.ffffffff.0 0000b0.ffffffff.0 002020.ffffffff.0 0000fc.ffffffff.0 0000fb.ffffffff.0 0000f9.ffffffff.0 0000fa.ffffffff.0 0000f5.ffffffff.0 0000f6.ffffffff.0 0000f4.ffffffff.0 0000f2.ffffffff.0 0000f3.ffffffff.0 0000f1.ffffffff.0 0000ef.ffffffff.0 0000ee.ffffffff.0 0000ec.ffffffff.0 0000ed.ffffffff.0 0000ea.ffffffff.0 0000e8.ffffffff.0 0000e9.ffffffff.0 0000e7.ffffffff.0 0000e5.ffffffff.0 0000e3.ffffffff.0 0000e4.ffffffff.0 0000e2.ffffffff.0 0000e0.ffffffff.0 0000e1.ffffffff.0 0000dc.ffffffff.0 0000d6.ffffffff.0 0000d1.ffffffff.0 0000c9.ffffffff.0 0000c7.ffffffff.0 0000c5.ffffffff.0 0000c4.ffffffff.0 00007f.ffffffff.0 00001f.ffffffff.0 00001e.ffffffff.0 00001d.ffffffff.0 00001c.ffffffff.0 00001b.ffffffff.0 00001a.ffffffff.0 000019.ffffffff.0 000018.ffffffff.0 000017.ffffffff.0 000016.ffffffff.0 000015.ffffffff.0 000014.ffffffff.0 000013.ffffffff.0 000012.ffffffff.0 000011.ffffffff.0 000010.ffffffff.0 00000f.ffffffff.0 00000e.ffffffff.0 00000c.ffffffff.0 00000b.ffffffff.0 00000a.ffffffff.0 000007.ffffffff.0 000006.ffffffff.0 000005.ffffffff.0 000004.ffffffff.0 000003.ffffffff.0 000002.ffffffff.0 000001.ffffffff.0
Width: 0
Flags: W
LayerCount: 2
Fore
SplineSet
-1331 2090 m 0,0,1
 -1329 2090 -1329 2090 -1329 2087 c 0,2,3
 -1329 2085 -1329 2085 -1331 2085 c 0,4,5
 -1334 2085 -1334 2085 -1334 2087 c 0,6,7
 -1334 2090 -1334 2090 -1331 2090 c 0,0,1
EndSplineSet
Validated: 1
EndChar

StartChar: exclam
Encoding: 33 33 4
Width: 0
Flags: W
LayerCount: 2
Fore
SplineSet
-388 1086 m 0,0,1
 -443 1110 -443 1110 -498.5 1070 c 128,-1,2
 -554 1030 -554 1030 -590 949 c 0,3,4
 -626 867 -626 867 -613 792.5 c 128,-1,5
 -600 718 -600 718 -545 694 c 1,6,7
 -475 670 -475 670 -412.5 698.5 c 128,-1,8
 -350 727 -350 727 -324 831 c 0,9,10
 -271 1037 -271 1037 -388 1086 c 0,0,1
-260 1042 m 1,11,-1
 -251 1153 l 1,12,13
 -208 1166 -208 1166 -161 1146 c 1,14,15
 -158 1073 -158 1073 -168.5 896.5 c 128,-1,16
 -179 720 -179 720 -186 225 c 0,17,18
 -186 198 -186 198 -191.5 170.5 c 128,-1,19
 -197 143 -197 143 -206 137 c 0,20,21
 -247 106 -247 106 -295 132 c 1,22,23
 -309 138 -309 138 -314.5 169.5 c 128,-1,24
 -320 201 -320 201 -320 225 c 0,25,26
 -319 297 -319 297 -312.5 322.5 c 128,-1,27
 -306 348 -306 348 -303 367 c 0,28,29
 -288 478 -288 478 -282.5 555.5 c 128,-1,30
 -277 633 -277 633 -271 745 c 1,31,32
 -350 637 -350 637 -508 651 c 0,33,34
 -618 661 -618 661 -678 742 c 128,-1,35
 -738 823 -738 823 -727 925 c 256,36,37
 -716 1027 -716 1027 -640.5 1090.5 c 128,-1,38
 -565 1154 -565 1154 -455 1144 c 0,39,40
 -317 1131 -317 1131 -260 1042 c 1,11,-1
-82 209 m 257,41,42
 -82 209 -82 209 -82 209 c 129,-1,43
 -82 209 -82 209 -82 209 c 257,44,45
 -82 209 -82 209 -82 209 c 129,-1,46
 -82 209 -82 209 -82 209 c 257,47,48
 -82 209 -82 209 -82 209 c 129,-1,49
 -82 209 -82 209 -82 209 c 257,50,51
 -82 209 -82 209 -82 209 c 129,-1,52
 -82 209 -82 209 -82 209 c 257,41,42
EndSplineSet
Validated: 37
EndChar

StartChar: quotedbl
Encoding: 34 34 5
Width: 2385
Flags: W
LayerCount: 2
Fore
SplineSet
1587 2719 m 1,0,1
 1635 2718 1635 2718 1633 2690 c 128,-1,2
 1631 2662 1631 2662 1599 2656 c 0,3,4
 1544 2646 1544 2646 1526 2610 c 1,5,6
 1452 2432 1452 2432 1412.5 2300 c 128,-1,7
 1373 2168 1373 2168 1311 2143 c 1,8,9
 1245 2135 1245 2135 1172 2133 c 128,-1,10
 1099 2131 1099 2131 1029 2143 c 1,11,12
 999 2155 999 2155 1008.5 2170 c 128,-1,13
 1018 2185 1018 2185 1038 2191 c 0,14,15
 1057 2197 1057 2197 1082 2240 c 0,16,17
 1153 2367 1153 2367 1200.5 2527.5 c 128,-1,18
 1248 2688 1248 2688 1302 2706 c 1,19,20
 1371 2727 1371 2727 1443.5 2723 c 128,-1,21
 1516 2719 1516 2719 1587 2719 c 1,0,1
1701 2312 m 1,22,23
 1774 2338 1774 2338 1946 2309 c 1,24,25
 2047 2283 2047 2283 2124.5 2241 c 128,-1,26
 2202 2199 2202 2199 2244 2094 c 1,27,28
 2271 1993 2271 1993 2262 1933 c 128,-1,29
 2253 1873 2253 1873 2195 1794 c 1,30,31
 2140 1728 2140 1728 2066.5 1693.5 c 128,-1,32
 1993 1659 1993 1659 1886 1637 c 0,33,34
 1780 1616 1780 1616 1713 1616.5 c 128,-1,35
 1646 1617 1646 1617 1569 1620 c 0,36,37
 1492 1624 1492 1624 1426.5 1633 c 128,-1,38
 1361 1642 1361 1642 1268 1671 c 1,39,40
 1114 1714 1114 1714 963 1787 c 0,41,42
 878 1829 878 1829 784 1877.5 c 128,-1,43
 690 1926 690 1926 573 1992 c 1,44,45
 519 2025 519 2025 456.5 2062 c 128,-1,46
 394 2099 394 2099 320 2137 c 1,47,48
 265 2171 265 2171 211.5 2206 c 128,-1,49
 158 2241 158 2241 166 2276.5 c 128,-1,50
 174 2312 174 2312 207 2310 c 128,-1,51
 240 2308 240 2308 411.5 2311.5 c 128,-1,52
 583 2315 583 2315 711 2312 c 1,53,54
 763 2275 763 2275 710 2258.5 c 128,-1,55
 657 2242 657 2242 632 2217 c 1,56,57
 585 2167 585 2167 590 2138.5 c 128,-1,58
 595 2110 595 2110 605 2093.5 c 128,-1,59
 615 2077 615 2077 636 2058.5 c 128,-1,60
 657 2040 657 2040 740 1983 c 128,-1,61
 823 1926 823 1926 945 1863 c 1,62,63
 1055 1814 1055 1814 1118.5 1784 c 128,-1,64
 1182 1754 1182 1754 1323 1715 c 1,65,66
 1428 1695 1428 1695 1536.5 1690 c 128,-1,67
 1645 1685 1645 1685 1757 1722 c 1,68,69
 1835 1756 1835 1756 1867 1780 c 128,-1,70
 1899 1804 1899 1804 1938 1864 c 1,71,72
 1973 1921 1973 1921 1978 1961 c 128,-1,73
 1983 2001 1983 2001 1979 2053 c 1,74,75
 1977 2106 1977 2106 1966.5 2129.5 c 128,-1,76
 1956 2153 1956 2153 1939.5 2178 c 128,-1,77
 1923 2203 1923 2203 1897.5 2223 c 128,-1,78
 1872 2243 1872 2243 1819 2251 c 128,-1,79
 1766 2259 1766 2259 1713 2265 c 1,80,81
 1691 2270 1691 2270 1685 2284.5 c 128,-1,82
 1679 2299 1679 2299 1701 2312 c 1,22,23
EndSplineSet
Validated: 33
EndChar

StartChar: numbersign
Encoding: 35 35 6
Width: 0
Flags: W
LayerCount: 2
Fore
SplineSet
-319 227 m 1,0,1
 -327 211 -327 211 -385.5 215.5 c 128,-1,2
 -444 220 -444 220 -508 259 c 128,-1,3
 -572 298 -572 298 -618.5 377 c 128,-1,4
 -665 456 -665 456 -650 590 c 0,5,6
 -626 805 -626 805 -643 943 c 128,-1,7
 -660 1081 -660 1081 -783 1054 c 1,8,9
 -860 1036 -860 1036 -823 967 c 128,-1,10
 -786 898 -786 898 -870 871 c 1,11,12
 -906 858 -906 858 -938 886.5 c 128,-1,13
 -970 915 -970 915 -970 954 c 0,14,15
 -970 1048 -970 1048 -889 1080 c 1,16,17
 -843 1097 -843 1097 -768 1096.5 c 128,-1,18
 -693 1096 -693 1096 -636 1060 c 1,19,20
 -523 986 -523 986 -490.5 896.5 c 128,-1,21
 -458 807 -458 807 -458 475 c 1,22,23
 -457 313 -457 313 -385.5 285 c 128,-1,24
 -314 257 -314 257 -319 227 c 1,0,1
258 227 m 1,25,26
 249 211 249 211 191 215.5 c 128,-1,27
 133 220 133 220 69 259 c 128,-1,28
 5 298 5 298 -41.5 377 c 128,-1,29
 -88 456 -88 456 -73 590 c 0,30,31
 -48 805 -48 805 -65 943 c 128,-1,32
 -82 1081 -82 1081 -205 1054 c 0,33,34
 -283 1036 -283 1036 -245.5 967 c 128,-1,35
 -208 898 -208 898 -292 871 c 1,36,37
 -328 858 -328 858 -360 886.5 c 128,-1,38
 -392 915 -392 915 -392 954 c 0,39,40
 -392 1048 -392 1048 -311 1080 c 1,41,42
 -265 1097 -265 1097 -190 1096.5 c 128,-1,43
 -115 1096 -115 1096 -58 1060 c 1,44,45
 53 986 53 986 86 896.5 c 128,-1,46
 119 807 119 807 120 475 c 0,47,48
 120 313 120 313 191 285 c 128,-1,49
 262 257 262 257 258 227 c 1,25,26
EndSplineSet
Validated: 33
EndChar

StartChar: dollar
Encoding: 36 36 7
Width: 54
Flags: W
LayerCount: 2
Fore
SplineSet
-630 466 m 1,0,1
 -683 535 -683 535 -683 623 c 0,2,3
 -683 731 -683 731 -606 808 c 128,-1,4
 -529 885 -529 885 -421 885 c 0,5,6
 -332 885 -332 885 -258 827 c 1,7,-1
 -11 1075 l 2,8,9
 13 1100 13 1100 32.5 1076.5 c 128,-1,10
 52 1053 52 1053 31 1032 c 0,11,12
 12 1013 12 1013 -95.5 904 c 128,-1,13
 -203 795 -203 795 -215 784 c 1,14,15
 -159 714 -159 714 -159 623 c 0,16,17
 -159 514 -159 514 -236 437.5 c 128,-1,18
 -313 361 -313 361 -421 361 c 0,19,20
 -515 361 -515 361 -588 422 c 1,21,-1
 -824 179 l 2,22,23
 -849 152 -849 152 -872.5 178 c 128,-1,24
 -896 204 -896 204 -874 228 c 1,25,26
 -853 249 -853 249 -748 351.5 c 128,-1,27
 -643 454 -643 454 -630 466 c 1,0,1
-421 822 m 0,28,29
 -504 822 -504 822 -562.5 763.5 c 128,-1,30
 -621 705 -621 705 -621 623 c 0,31,32
 -621 540 -621 540 -562.5 481.5 c 128,-1,33
 -504 423 -504 423 -421 423 c 0,34,35
 -339 423 -339 423 -280.5 481.5 c 128,-1,36
 -222 540 -222 540 -222 623 c 0,37,38
 -222 705 -222 705 -280.5 763.5 c 128,-1,39
 -339 822 -339 822 -421 822 c 0,28,29
EndSplineSet
Validated: 1
EndChar

StartChar: percent
Encoding: 37 37 8
Width: 172
Flags: W
LayerCount: 2
Fore
SplineSet
-1215 1370 m 0,0,1
 -1188 1441 -1188 1441 -1064 1419 c 0,2,3
 -1037 1414 -1037 1414 -1032 1361 c 128,-1,4
 -1027 1308 -1027 1308 -1069 1248 c 0,5,6
 -1101 1204 -1101 1204 -1090.5 1157.5 c 128,-1,7
 -1080 1111 -1080 1111 -968 1096 c 1,8,9
 -731 1082 -731 1082 -596 1096 c 128,-1,10
 -461 1110 -461 1110 -231 1133 c 1,11,12
 -95 1144 -95 1144 66 1144 c 1,13,14
 170 1141 170 1141 209.5 1066.5 c 128,-1,15
 249 992 249 992 240 908 c 0,16,17
 224 766 224 766 112 776 c 0,18,19
 85 779 85 779 60 814 c 128,-1,20
 35 849 35 849 57 898 c 0,21,22
 78 946 78 946 108 948.5 c 128,-1,23
 138 951 138 951 150 999 c 0,24,25
 170 1078 170 1078 71 1073 c 0,26,27
 -230 1056 -230 1056 -385 1036 c 128,-1,28
 -540 1016 -540 1016 -679 1012.5 c 128,-1,29
 -818 1009 -818 1009 -936 1026 c 0,30,31
 -1017 1038 -1017 1038 -1102 1082 c 128,-1,32
 -1187 1126 -1187 1126 -1217 1220 c 1,33,34
 -1241 1304 -1241 1304 -1215 1370 c 0,0,1
EndSplineSet
Validated: 33
EndChar

StartChar: ampersand
Encoding: 38 38 9
Width: 75
Flags: W
LayerCount: 2
Fore
SplineSet
-769 582 m 1,0,1
 -847 526 -847 526 -870 434 c 1,2,3
 -886 363 -886 363 -872 298 c 1,4,5
 -856 232 -856 232 -734 298 c 1,6,7
 -664 332 -664 332 -644 369.5 c 128,-1,8
 -624 407 -624 407 -618.5 466 c 128,-1,9
 -613 525 -613 525 -642 718 c 1,10,11
 -649 757 -649 757 -649 853 c 0,12,13
 -649 945 -649 945 -593 1035 c 0,14,15
 -562 1084 -562 1084 -498 1095 c 0,16,17
 -435 1105 -435 1105 -387 1105 c 0,18,19
 -278 1105 -278 1105 -227 1004 c 1,20,21
 -218 916 -218 916 -220 870 c 0,22,23
 -222 817 -222 817 -218 772 c 1,24,25
 -219 703 -219 703 -197 659 c 1,26,27
 -178 635 -178 635 -108 627 c 1,28,29
 -39 602 -39 602 -35 500 c 0,30,31
 -32 432 -32 432 -38.5 365.5 c 128,-1,32
 -45 299 -45 299 -35 232 c 1,33,34
 -33 211 -33 211 -19 162 c 1,35,36
 -9 131 -9 131 53 110 c 0,37,38
 67 105 67 105 72 104 c 1,39,40
 72 95 72 95 -1 104.5 c 128,-1,41
 -74 114 -74 114 -92 122 c 0,42,43
 -176 159 -176 159 -197 258 c 1,44,45
 -209 320 -209 320 -205 383 c 128,-1,46
 -201 446 -201 446 -213 509 c 1,47,48
 -213 589 -213 589 -262 602 c 1,49,50
 -308 607 -308 607 -351 658 c 1,51,52
 -392 712 -392 712 -380 832 c 1,53,54
 -360 931 -360 931 -410 950 c 0,55,56
 -426 956 -426 956 -481 960 c 1,57,58
 -531 961 -531 961 -554 934 c 1,59,60
 -582 890 -582 890 -582 836 c 1,61,62
 -583 798 -583 798 -587 720 c 1,63,64
 -578 541 -578 541 -575.5 447 c 128,-1,65
 -573 353 -573 353 -589.5 288.5 c 128,-1,66
 -606 224 -606 224 -685 184 c 1,67,68
 -836 101 -836 101 -936 216 c 1,69,70
 -959 246 -959 246 -984 288 c 1,71,72
 -1005 362 -1005 362 -987 446 c 1,73,74
 -952 584 -952 584 -847 631 c 1,75,76
 -807 658 -807 658 -739 665 c 1,77,78
 -704 663 -704 663 -676 656 c 1,79,80
 -618 631 -618 631 -665 626 c 0,81,82
 -712 620 -712 620 -769 582 c 1,0,1
EndSplineSet
Validated: 33
EndChar

StartChar: quotesingle
Encoding: 39 39 10
Width: 820
Flags: W
LayerCount: 2
Fore
SplineSet
733 2257 m 1,0,1
 781 2256 781 2256 779.5 2228 c 128,-1,2
 778 2200 778 2200 745 2195 c 1,3,4
 689 2183 689 2183 672 2148 c 1,5,6
 598 1971 598 1971 558.5 1838.5 c 128,-1,7
 519 1706 519 1706 457 1681 c 1,8,9
 391 1672 391 1672 318 1670.5 c 128,-1,10
 245 1669 245 1669 175 1681 c 1,11,12
 145 1693 145 1693 154.5 1708 c 128,-1,13
 164 1723 164 1723 184 1729 c 1,14,15
 205 1734 205 1734 228 1777 c 0,16,17
 299 1905 299 1905 347 2065.5 c 128,-1,18
 395 2226 395 2226 448 2244 c 1,19,20
 518 2265 518 2265 590 2261 c 128,-1,21
 662 2257 662 2257 733 2257 c 1,0,1
EndSplineSet
Validated: 33
EndChar

StartChar: parenleft
Encoding: 40 40 11
Width: 17
Flags: W
LayerCount: 2
Fore
SplineSet
8 1970 m 0,0,1
 10 1970 10 1970 10 1967 c 0,2,3
 10 1965 10 1965 8 1965 c 0,4,5
 5 1965 5 1965 5 1967 c 0,6,7
 5 1970 5 1970 8 1970 c 0,0,1
-634 1340 m 2,8,-1
 -513 1340 l 2,9,10
 -502 1340 -502 1340 -479.5 1339.5 c 128,-1,11
 -457 1339 -457 1339 -451 1333 c 0,12,13
 -442 1325 -442 1325 -453.5 1324.5 c 128,-1,14
 -465 1324 -465 1324 -471 1278 c 2,15,-1
 -484 1181 l 2,16,17
 -493 1119 -493 1119 -542 1119 c 2,18,-1
 -663 1119 l 2,19,20
 -673 1119 -673 1119 -699.5 1120.5 c 128,-1,21
 -726 1122 -726 1122 -727 1133 c 0,22,23
 -728 1145 -728 1145 -718 1149 c 128,-1,24
 -708 1153 -708 1153 -705 1181 c 2,25,-1
 -692 1278 l 1,26,27
 -682 1340 -682 1340 -634 1340 c 2,8,-1
-172 1340 m 2,28,-1
 -51 1340 l 2,29,30
 -41 1340 -41 1340 -19 1339.5 c 128,-1,31
 3 1339 3 1339 10 1333 c 1,32,33
 17 1325 17 1325 6.5 1324.5 c 128,-1,34
 -4 1324 -4 1324 -10 1278 c 2,35,-1
 -23 1181 l 1,36,37
 -30 1119 -30 1119 -81 1119 c 2,38,-1
 -202 1119 l 2,39,40
 -212 1119 -212 1119 -238.5 1120.5 c 128,-1,41
 -265 1122 -265 1122 -266 1133 c 0,42,43
 -267 1145 -267 1145 -256.5 1149 c 128,-1,44
 -246 1153 -246 1153 -243 1181 c 2,45,-1
 -231 1278 l 1,46,47
 -221 1340 -221 1340 -172 1340 c 2,28,-1
EndSplineSet
Validated: 1
EndChar

StartChar: parenright
Encoding: 41 41 12
Width: 223
Flags: W
LayerCount: 2
Fore
SplineSet
-432 1340 m 2,0,-1
 -312 1340 l 2,1,2
 -301 1340 -301 1340 -278.5 1339.5 c 128,-1,3
 -256 1339 -256 1339 -250 1333 c 0,4,5
 -241 1325 -241 1325 -252.5 1324.5 c 128,-1,6
 -264 1324 -264 1324 -270 1278 c 2,7,-1
 -283 1181 l 2,8,9
 -292 1119 -292 1119 -341 1119 c 2,10,-1
 -462 1119 l 2,11,12
 -472 1119 -472 1119 -498.5 1120.5 c 128,-1,13
 -525 1122 -525 1122 -526 1133 c 0,14,15
 -527 1145 -527 1145 -517 1149 c 128,-1,16
 -507 1153 -507 1153 -504 1181 c 2,17,-1
 -491 1278 l 1,18,19
 -481 1340 -481 1340 -432 1340 c 2,0,-1
16 1340 m 2,20,-1
 136 1340 l 2,21,22
 146 1340 146 1340 169 1339.5 c 128,-1,23
 192 1339 192 1339 198 1333 c 0,24,25
 206 1325 206 1325 195 1324.5 c 128,-1,26
 184 1324 184 1324 178 1278 c 2,27,-1
 165 1181 l 1,28,29
 155 1119 155 1119 107 1119 c 2,30,-1
 -14 1119 l 2,31,32
 -25 1119 -25 1119 -51.5 1120.5 c 128,-1,33
 -78 1122 -78 1122 -78 1133 c 1,34,35
 -80 1145 -80 1145 -70 1149 c 128,-1,36
 -60 1153 -60 1153 -56 1181 c 2,37,-1
 -43 1278 l 2,38,39
 -34 1340 -34 1340 16 1340 c 2,20,-1
-882 1340 m 2,40,-1
 -761 1340 l 2,41,42
 -750 1340 -750 1340 -727.5 1339.5 c 128,-1,43
 -705 1339 -705 1339 -699 1333 c 0,44,45
 -690 1325 -690 1325 -701.5 1324.5 c 128,-1,46
 -713 1324 -713 1324 -720 1278 c 2,47,-1
 -733 1181 l 1,48,49
 -740 1119 -740 1119 -791 1119 c 2,50,-1
 -912 1119 l 2,51,52
 -921 1119 -921 1119 -947.5 1120.5 c 128,-1,53
 -974 1122 -974 1122 -976 1133 c 1,54,55
 -977 1145 -977 1145 -966.5 1149 c 128,-1,56
 -956 1153 -956 1153 -953 1181 c 2,57,-1
 -940 1278 l 2,58,59
 -932 1340 -932 1340 -882 1340 c 2,40,-1
EndSplineSet
Validated: 1
EndChar

StartChar: asterisk
Encoding: 42 42 13
Width: 0
Flags: W
LayerCount: 2
Fore
SplineSet
35 1940 m 1,0,1
 37 1940 37 1940 37 1938 c 256,2,3
 37 1936 37 1936 35 1936 c 1,4,5
 35 1936 35 1936 34.5 1936.5 c 128,-1,6
 34 1937 34 1937 34 1938 c 2,7,8
 34 1938 34 1938 34.5 1939 c 128,-1,9
 35 1940 35 1940 35 1940 c 1,0,1
-512 1340 m 2,10,-1
 -391 1340 l 2,11,12
 -380 1340 -380 1340 -357.5 1339.5 c 128,-1,13
 -335 1339 -335 1339 -329 1333 c 0,14,15
 -320 1325 -320 1325 -331.5 1324.5 c 128,-1,16
 -343 1324 -343 1324 -350 1278 c 1,17,-1
 -362 1181 l 1,18,19
 -371 1119 -371 1119 -420 1119 c 2,20,-1
 -541 1119 l 2,21,22
 -551 1119 -551 1119 -577.5 1120.5 c 128,-1,23
 -604 1122 -604 1122 -606 1133 c 1,24,25
 -606 1145 -606 1145 -596 1149 c 128,-1,26
 -586 1153 -586 1153 -583 1181 c 2,27,-1
 -570 1278 l 1,28,29
 -560 1340 -560 1340 -512 1340 c 2,10,-1
EndSplineSet
Validated: 1
EndChar

StartChar: plus
Encoding: 43 43 14
Width: 2617
Flags: W
LayerCount: 2
Fore
SplineSet
2327 895 m 1,0,1
 2304 913 2304 913 2324.5 928.5 c 128,-1,2
 2345 944 2345 944 2375 944 c 0,3,4
 2408 944 2408 944 2468.5 1004 c 128,-1,5
 2529 1064 2529 1064 2548 1152 c 1,6,7
 2578 1302 2578 1302 2391 1397 c 1,8,9
 2189 1497 2189 1497 1869 1530 c 0,10,11
 1815 1535 1815 1535 1748.5 1534.5 c 128,-1,12
 1682 1534 1682 1534 1674 1537 c 0,13,14
 1646 1548 1646 1548 1652 1572 c 128,-1,15
 1658 1596 1658 1596 1682 1599 c 1,16,17
 1705 1600 1705 1600 1793.5 1595 c 128,-1,18
 1882 1590 1882 1590 1987 1575 c 0,19,20
 2107 1557 2107 1557 2231.5 1526.5 c 128,-1,21
 2356 1496 2356 1496 2463 1454 c 0,22,23
 2583 1406 2583 1406 2655 1358.5 c 128,-1,24
 2727 1311 2727 1311 2788 1233 c 1,25,26
 2848 1152 2848 1152 2838 1072 c 128,-1,27
 2828 992 2828 992 2768 948 c 1,28,29
 2714 907 2714 907 2643 893 c 128,-1,30
 2572 879 2572 879 2507 879 c 256,31,32
 2442 879 2442 879 2417 879 c 128,-1,33
 2392 879 2392 879 2327 895 c 1,0,1
196 2249 m 1,34,35
 118 2390 118 2390 154 2491 c 128,-1,36
 190 2592 190 2592 282 2599 c 0,37,38
 342 2603 342 2603 373.5 2590 c 128,-1,39
 405 2577 405 2577 429 2563.5 c 128,-1,40
 453 2550 453 2550 474.5 2534.5 c 128,-1,41
 496 2519 496 2519 515 2502.5 c 128,-1,42
 534 2486 534 2486 541.5 2473 c 128,-1,43
 549 2460 549 2460 548 2449 c 128,-1,44
 547 2438 547 2438 539.5 2433 c 128,-1,45
 532 2428 532 2428 496 2414 c 128,-1,46
 460 2400 460 2400 403 2368 c 128,-1,47
 346 2336 346 2336 348 2261 c 1,48,49
 349 2183 349 2183 510.5 2114.5 c 128,-1,50
 672 2046 672 2046 991 2059 c 2,51,-1
 1905 2097 l 1,52,53
 1972 2097 1972 2097 2012.5 2088 c 128,-1,54
 2053 2079 2053 2079 2085.5 2065 c 128,-1,55
 2118 2051 2118 2051 2141 2037 c 128,-1,56
 2164 2023 2164 2023 2194.5 1995.5 c 128,-1,57
 2225 1968 2225 1968 2265.5 1925 c 128,-1,58
 2306 1882 2306 1882 2318.5 1861.5 c 128,-1,59
 2331 1841 2331 1841 2331 1822 c 128,-1,60
 2331 1803 2331 1803 2318.5 1796.5 c 128,-1,61
 2306 1790 2306 1790 2291 1790 c 128,-1,62
 2276 1790 2276 1790 2259.5 1796.5 c 128,-1,63
 2243 1803 2243 1803 2220 1810.5 c 128,-1,64
 2197 1818 2197 1818 2168 1826.5 c 128,-1,65
 2139 1835 2139 1835 2115 1839 c 128,-1,66
 2091 1843 2091 1843 2048 1845 c 2,67,-1
 1828 1857 l 1,68,69
 1639 1857 1639 1857 1431.5 1872.5 c 128,-1,70
 1224 1888 1224 1888 1040 1912.5 c 128,-1,71
 856 1937 856 1937 716.5 1966 c 128,-1,72
 577 1995 577 1995 525 2014 c 1,73,74
 436 2051 436 2051 368.5 2087 c 128,-1,75
 301 2123 301 2123 196 2249 c 1,34,35
EndSplineSet
Validated: 33
EndChar

StartChar: comma
Encoding: 44 44 15
Width: 0
Flags: W
LayerCount: 2
Fore
SplineSet
8 1970 m 0,0,1
 10 1970 10 1970 10 1967 c 0,2,3
 10 1965 10 1965 8 1965 c 0,4,5
 5 1965 5 1965 5 1967 c 0,6,7
 5 1970 5 1970 8 1970 c 0,0,1
-2328 1251 m 1,8,9
 -2296 1336 -2296 1336 -2268.5 1398.5 c 128,-1,10
 -2241 1461 -2241 1461 -2217 1461 c 1,11,12
 -2155 1471 -2155 1471 -2078 1473 c 128,-1,13
 -2001 1475 -2001 1475 -1931 1475 c 1,14,15
 -1882 1474 -1882 1474 -1886 1448 c 128,-1,16
 -1890 1422 -1890 1422 -1923 1416 c 0,17,18
 -1949 1411 -1949 1411 -1968 1393.5 c 128,-1,19
 -1987 1376 -1987 1376 -1993 1366 c 1,20,21
 -2065 1188 -2065 1188 -2105 1055.5 c 128,-1,22
 -2145 923 -2145 923 -2207 899 c 1,23,24
 -2273 890 -2273 890 -2345.5 888 c 128,-1,25
 -2418 886 -2418 886 -2489 899 c 1,26,27
 -2519 911 -2519 911 -2509.5 926 c 128,-1,28
 -2500 941 -2500 941 -2481 947 c 1,29,30
 -2460 952 -2460 952 -2436 995 c 0,31,32
 -2399 1061 -2399 1061 -2363 1159 c 1,33,-1
 -4080 1159 l 1,34,-1
 -4185 1152 l 1,35,36
 -4208 1152 -4208 1152 -4236 1152.5 c 128,-1,37
 -4264 1153 -4264 1153 -4286 1156 c 0,38,39
 -4328 1160 -4328 1160 -4328 1205.5 c 128,-1,40
 -4328 1251 -4328 1251 -4283 1251 c 2,41,-1
 -2328 1251 l 1,8,9
EndSplineSet
Validated: 33
EndChar

StartChar: hyphen
Encoding: 45 45 16
Width: 3333
Flags: W
LayerCount: 2
Fore
SplineSet
840 2280 m 1,0,1
 817 2298 817 2298 837.5 2313.5 c 128,-1,2
 858 2329 858 2329 888 2329 c 0,3,4
 921 2329 921 2329 981 2389 c 128,-1,5
 1041 2449 1041 2449 1061 2537 c 1,6,7
 1091 2687 1091 2687 904 2782 c 0,8,9
 833 2817 833 2817 723.5 2844.5 c 128,-1,10
 614 2872 614 2872 508 2892.5 c 128,-1,11
 402 2913 402 2913 320.5 2925.5 c 128,-1,12
 239 2938 239 2938 226 2944 c 1,13,14
 198 2954 198 2954 204 2973.5 c 128,-1,15
 210 2993 210 2993 234 2993 c 1,16,17
 246 2992 246 2992 325.5 2983 c 128,-1,18
 405 2974 405 2974 516 2955 c 128,-1,19
 627 2936 627 2936 751 2907 c 128,-1,20
 875 2878 875 2878 976 2839 c 1,21,22
 1096 2791 1096 2791 1168.5 2744 c 128,-1,23
 1241 2697 1241 2697 1301 2617 c 256,24,25
 1361 2537 1361 2537 1351.5 2457 c 128,-1,26
 1342 2377 1342 2377 1282 2333 c 0,27,28
 1227 2292 1227 2292 1156 2278 c 128,-1,29
 1085 2264 1085 2264 1020 2264 c 256,30,31
 955 2264 955 2264 930 2264 c 128,-1,32
 905 2264 905 2264 840 2280 c 1,0,1
2357 2715 m 1,33,34
 2418 2715 2418 2715 2485.5 2713 c 128,-1,35
 2553 2711 2553 2711 2607 2701 c 1,36,37
 2645 2701 2645 2701 2695 2596.5 c 128,-1,38
 2745 2492 2745 2492 2803 2367 c 1,39,40
 2820 2324 2820 2324 2842 2319 c 1,41,42
 2857 2313 2857 2313 2866 2297.5 c 128,-1,43
 2875 2282 2875 2282 2849 2270 c 1,44,45
 2787 2258 2787 2258 2723 2260 c 128,-1,46
 2659 2262 2659 2262 2602 2270 c 1,47,48
 2548 2295 2548 2295 2511 2361.5 c 128,-1,49
 2474 2428 2474 2428 2411 2605 c 1,50,51
 2405 2616 2405 2616 2388.5 2637.5 c 128,-1,52
 2372 2659 2372 2659 2350 2663 c 0,53,54
 2322 2668 2322 2668 2318 2691 c 128,-1,55
 2314 2714 2314 2714 2357 2715 c 1,33,34
1804 2715 m 1,56,57
 1865 2715 1865 2715 1932.5 2713 c 128,-1,58
 2000 2711 2000 2711 2054 2701 c 1,59,60
 2092 2701 2092 2701 2141.5 2596.5 c 128,-1,61
 2191 2492 2191 2492 2249 2367 c 0,62,63
 2268 2324 2268 2324 2288 2319 c 1,64,65
 2304 2313 2304 2313 2313 2297.5 c 128,-1,66
 2322 2282 2322 2282 2296 2270 c 1,67,68
 2233 2258 2233 2258 2169.5 2260 c 128,-1,69
 2106 2262 2106 2262 2048 2270 c 1,70,71
 1994 2295 1994 2295 1957.5 2361.5 c 128,-1,72
 1921 2428 1921 2428 1858 2605 c 1,73,74
 1852 2616 1852 2616 1835 2637.5 c 128,-1,75
 1818 2659 1818 2659 1797 2663 c 0,76,77
 1768 2668 1768 2668 1764.5 2691 c 128,-1,78
 1761 2714 1761 2714 1804 2715 c 1,56,57
167.5 2127.5 m 128,-1,80
 178 2144 178 2144 191 2145.5 c 128,-1,81
 204 2147 204 2147 219 2138 c 128,-1,82
 234 2129 234 2129 256 2118 c 128,-1,83
 278 2107 278 2107 313 2100 c 128,-1,84
 348 2093 348 2093 411 2093 c 2,85,-1
 2778 2093 l 1,86,87
 2836 2094 2836 2094 2883 2084 c 128,-1,88
 2930 2074 2930 2074 2969 2053.5 c 128,-1,89
 3008 2033 3008 2033 3029.5 2016.5 c 128,-1,90
 3051 2000 3051 2000 3088.5 1961 c 128,-1,91
 3126 1922 3126 1922 3153 1884.5 c 128,-1,92
 3180 1847 3180 1847 3164 1812 c 1,93,94
 3148 1788 3148 1788 3126.5 1802 c 128,-1,95
 3105 1816 3105 1816 3076 1826.5 c 128,-1,96
 3047 1837 3047 1837 3013 1841 c 128,-1,97
 2979 1845 2979 1845 2908 1845 c 2,98,-1
 571 1845 l 1,99,100
 523 1846 523 1846 485 1852 c 128,-1,101
 447 1858 447 1858 425 1865 c 128,-1,102
 403 1872 403 1872 379 1884 c 128,-1,103
 355 1896 355 1896 327.5 1914 c 128,-1,104
 300 1932 300 1932 269 1963.5 c 128,-1,105
 238 1995 238 1995 206 2036.5 c 128,-1,106
 174 2078 174 2078 165.5 2094.5 c 128,-1,79
 157 2111 157 2111 167.5 2127.5 c 128,-1,80
EndSplineSet
Validated: 33
EndChar

StartChar: period
Encoding: 46 46 17
Width: 0
Flags: W
LayerCount: 2
Fore
SplineSet
-1034 1446 m 1,0,1
 -975 1419 -975 1419 -1002 1371 c 1,2,3
 -1013 1344 -1013 1344 -1025 1327 c 128,-1,4
 -1037 1310 -1037 1310 -1053.5 1299 c 128,-1,5
 -1070 1288 -1070 1288 -1099 1321 c 0,6,7
 -1130 1357 -1130 1357 -1159 1381 c 128,-1,8
 -1188 1405 -1188 1405 -1225.5 1423 c 128,-1,9
 -1263 1441 -1263 1441 -1314 1449.5 c 128,-1,10
 -1365 1458 -1365 1458 -1416.5 1458 c 128,-1,11
 -1468 1458 -1468 1458 -1517 1451.5 c 128,-1,12
 -1566 1445 -1566 1445 -1599.5 1428.5 c 128,-1,13
 -1633 1412 -1633 1412 -1648 1399 c 128,-1,14
 -1663 1386 -1663 1386 -1667 1362.5 c 128,-1,15
 -1671 1339 -1671 1339 -1631 1309 c 1,16,17
 -1571 1252 -1571 1252 -1328 1108 c 128,-1,18
 -1085 964 -1085 964 -936 784 c 0,19,20
 -886 724 -886 724 -845 656 c 128,-1,21
 -804 588 -804 588 -798.5 530 c 128,-1,22
 -793 472 -793 472 -806.5 435 c 128,-1,23
 -820 398 -820 398 -853 362.5 c 128,-1,24
 -886 327 -886 327 -929 317 c 128,-1,25
 -972 307 -972 307 -1017.5 314.5 c 128,-1,26
 -1063 322 -1063 322 -1106 350 c 1,27,28
 -1139 381 -1139 381 -1132 396.5 c 128,-1,29
 -1125 412 -1125 412 -1111 411 c 1,30,31
 -1095 413 -1095 413 -1068.5 407 c 128,-1,32
 -1042 401 -1042 401 -1011 415 c 1,33,34
 -952 451 -952 451 -961.5 582.5 c 128,-1,35
 -971 714 -971 714 -1062 807 c 0,36,37
 -1247 995 -1247 995 -1467 1125.5 c 128,-1,38
 -1687 1256 -1687 1256 -1743 1312 c 1,39,40
 -1765 1332 -1765 1332 -1770 1351.5 c 128,-1,41
 -1775 1371 -1775 1371 -1772.5 1394.5 c 128,-1,42
 -1770 1418 -1770 1418 -1744.5 1441 c 128,-1,43
 -1719 1464 -1719 1464 -1670.5 1483.5 c 128,-1,44
 -1622 1503 -1622 1503 -1553.5 1508.5 c 128,-1,45
 -1485 1514 -1485 1514 -1446 1514.5 c 128,-1,46
 -1407 1515 -1407 1515 -1374.5 1513 c 128,-1,47
 -1342 1511 -1342 1511 -1302.5 1507.5 c 128,-1,48
 -1263 1504 -1263 1504 -1215 1495 c 128,-1,49
 -1167 1486 -1167 1486 -1132.5 1477.5 c 128,-1,50
 -1098 1469 -1098 1469 -1034 1446 c 1,0,1
10 1970 m 0,51,52
 12 1970 12 1970 12 1967 c 0,53,54
 12 1965 12 1965 10 1965 c 0,55,56
 7 1965 7 1965 7 1967 c 0,57,58
 7 1970 7 1970 10 1970 c 0,51,52
EndSplineSet
Validated: 33
EndChar

StartChar: slash
Encoding: 47 47 18
Width: 0
Flags: W
LayerCount: 2
Fore
SplineSet
-381 1516 m 1,0,1
 -258 1525 -258 1525 -158.5 1531 c 128,-1,2
 -59 1537 -59 1537 68 1532 c 1,3,4
 95 1523 95 1523 91 1494.5 c 128,-1,5
 87 1466 87 1466 64 1468 c 1,6,7
 52 1466 52 1466 49.5 1467 c 128,-1,8
 47 1468 47 1468 31 1468 c 1,9,10
 -16 1464 -16 1464 -122 1379.5 c 128,-1,11
 -228 1295 -228 1295 -352.5 1191.5 c 128,-1,12
 -477 1088 -477 1088 -544 1040.5 c 128,-1,13
 -611 993 -611 993 -656.5 963.5 c 128,-1,14
 -702 934 -702 934 -808 885 c 1,15,16
 -926 827 -926 827 -1121 811 c 128,-1,17
 -1316 795 -1316 795 -1454 804 c 128,-1,18
 -1592 813 -1592 813 -1692 839 c 128,-1,19
 -1792 865 -1792 865 -1931 912.5 c 128,-1,20
 -2070 960 -2070 960 -2323 1106 c 1,21,22
 -2632 1286 -2632 1286 -2713 1343 c 128,-1,23
 -2794 1400 -2794 1400 -2885 1464 c 1,24,25
 -2902 1494 -2902 1494 -2881.5 1524.5 c 128,-1,26
 -2861 1555 -2861 1555 -2810 1525 c 0,27,28
 -2758 1495 -2758 1495 -2599.5 1384 c 128,-1,29
 -2441 1273 -2441 1273 -2194 1135 c 1,30,31
 -2015 1033 -2015 1033 -1805 970.5 c 128,-1,32
 -1595 908 -1595 908 -1449 903 c 1,33,34
 -1317 900 -1317 900 -1188.5 931 c 128,-1,35
 -1060 962 -1060 962 -899 1076 c 1,36,37
 -715 1241 -715 1241 -594.5 1369 c 128,-1,38
 -474 1497 -474 1497 -381 1516 c 1,0,1
EndSplineSet
Validated: 33
EndChar

StartChar: zero
Encoding: 48 48 19
Width: 0
Flags: W
LayerCount: 2
Fore
SplineSet
8 1970 m 0,0,1
 10 1970 10 1970 10 1967 c 0,2,3
 10 1965 10 1965 8 1965 c 0,4,5
 5 1965 5 1965 5 1967 c 0,6,7
 5 1970 5 1970 8 1970 c 0,0,1
-943 1340 m 2,8,-1
 -822 1340 l 2,9,10
 -811 1340 -811 1340 -788.5 1339.5 c 128,-1,11
 -766 1339 -766 1339 -760 1333 c 0,12,13
 -751 1325 -751 1325 -762.5 1324.5 c 128,-1,14
 -774 1324 -774 1324 -781 1278 c 2,15,-1
 -794 1181 l 1,16,17
 -801 1119 -801 1119 -852 1119 c 2,18,-1
 -973 1119 l 2,19,20
 -982 1119 -982 1119 -1008.5 1120.5 c 128,-1,21
 -1035 1122 -1035 1122 -1037 1133 c 1,22,23
 -1038 1145 -1038 1145 -1027.5 1149 c 128,-1,24
 -1017 1153 -1017 1153 -1014 1181 c 2,25,-1
 -1001 1278 l 2,26,27
 -993 1340 -993 1340 -943 1340 c 2,8,-1
-1435 1340 m 2,28,-1
 -1314 1340 l 2,29,30
 -1303 1340 -1303 1340 -1280.5 1339.5 c 128,-1,31
 -1258 1339 -1258 1339 -1252 1333 c 0,32,33
 -1243 1325 -1243 1325 -1254.5 1324.5 c 128,-1,34
 -1266 1324 -1266 1324 -1273 1278 c 2,35,-1
 -1286 1181 l 1,36,37
 -1293 1119 -1293 1119 -1344 1119 c 2,38,-1
 -1465 1119 l 2,39,40
 -1474 1119 -1474 1119 -1500.5 1120.5 c 128,-1,41
 -1527 1122 -1527 1122 -1529 1133 c 1,42,43
 -1530 1145 -1530 1145 -1519.5 1149 c 128,-1,44
 -1509 1153 -1509 1153 -1506 1181 c 2,45,-1
 -1493 1278 l 1,46,47
 -1483 1340 -1483 1340 -1435 1340 c 2,28,-1
-1927 1340 m 2,48,-1
 -1806 1340 l 2,49,50
 -1795 1340 -1795 1340 -1772.5 1339.5 c 128,-1,51
 -1750 1339 -1750 1339 -1744 1333 c 0,52,53
 -1735 1325 -1735 1325 -1746.5 1324.5 c 128,-1,54
 -1758 1324 -1758 1324 -1765 1278 c 2,55,-1
 -1778 1181 l 1,56,57
 -1785 1119 -1785 1119 -1836 1119 c 2,58,-1
 -1957 1119 l 2,59,60
 -1966 1119 -1966 1119 -1992.5 1120.5 c 128,-1,61
 -2019 1122 -2019 1122 -2021 1133 c 1,62,63
 -2021 1145 -2021 1145 -2011 1149 c 128,-1,64
 -2001 1153 -2001 1153 -1998 1181 c 2,65,-1
 -1985 1278 l 1,66,67
 -1975 1340 -1975 1340 -1927 1340 c 2,48,-1
EndSplineSet
Validated: 1
EndChar

StartChar: one
Encoding: 49 49 20
Width: 1511
Flags: W
LayerCount: 2
Fore
SplineSet
1360 2078 m 1,0,1
 1370 2018 1370 2018 1371.5 1982 c 128,-1,2
 1373 1946 1373 1946 1358 1908 c 1,3,4
 1330 1908 1330 1908 1264 1912 c 128,-1,5
 1198 1916 1198 1916 1183 1883 c 1,6,7
 1164 1835 1164 1835 1163 1802.5 c 128,-1,8
 1162 1770 1162 1770 1176 1698 c 1,9,10
 1193 1637 1193 1637 1254.5 1657.5 c 128,-1,11
 1316 1678 1316 1678 1364 1684 c 1,12,13
 1369 1645 1369 1645 1352.5 1588 c 128,-1,14
 1336 1531 1336 1531 1322 1516 c 0,15,16
 1286 1480 1286 1480 1246 1480 c 0,17,18
 1223 1480 1223 1480 1198.5 1503.5 c 128,-1,19
 1174 1527 1174 1527 1168 1548 c 1,20,21
 1140 1627 1140 1627 1124.5 1737 c 128,-1,22
 1109 1847 1109 1847 1149 1920 c 1,23,-1
 974 1929 l 1,24,25
 965 1775 965 1775 955.5 1714.5 c 128,-1,26
 946 1654 946 1654 923 1561 c 0,27,28
 902 1480 902 1480 843 1480 c 0,29,30
 817 1480 817 1480 800 1499 c 1,31,32
 786 1511 786 1511 786 1539 c 0,33,34
 786 1547 786 1547 789.5 1562 c 128,-1,35
 793 1577 793 1577 808 1597 c 128,-1,36
 823 1617 823 1617 831 1626 c 1,37,38
 843 1645 843 1645 862.5 1661 c 128,-1,39
 882 1677 882 1677 898 1708 c 1,40,41
 911 1739 911 1739 929 1834 c 128,-1,42
 947 1929 947 1929 898 1929 c 0,43,44
 857 1929 857 1929 828 1916 c 0,45,46
 792 1899 792 1899 762 1854 c 1,47,-1
 739 1854 l 1,48,49
 754 1953 754 1953 775 2002.5 c 128,-1,50
 796 2052 796 2052 815 2069 c 0,51,52
 850 2099 850 2099 909 2099 c 0,53,54
 1013 2099 1013 2099 1134.5 2088.5 c 128,-1,55
 1256 2078 1256 2078 1360 2078 c 1,0,1
EndSplineSet
Validated: 33
EndChar

StartChar: two
Encoding: 50 50 21
Width: 1437
Flags: W
LayerCount: 2
Fore
SplineSet
1368 1638 m 257,0,1
 1368 1638 1368 1638 1368.5 1638 c 128,-1,2
 1369 1638 1369 1638 1369 1638 c 257,3,4
 1369 1638 1369 1638 1368.5 1638 c 128,-1,5
 1368 1638 1368 1638 1368 1638 c 257,6,7
 1368 1638 1368 1638 1368 1638 c 129,-1,8
 1368 1638 1368 1638 1368 1638 c 257,9,10
 1368 1638 1368 1638 1368 1638 c 129,-1,11
 1368 1638 1368 1638 1368 1638 c 257,0,1
1007 1803 m 0,12,13
 968 1809 968 1809 925.5 1764 c 128,-1,14
 883 1719 883 1719 865 1652 c 0,15,16
 832 1523 832 1523 903 1517 c 0,17,18
 943 1513 943 1513 987.5 1543.5 c 128,-1,19
 1032 1574 1032 1574 1053 1625 c 0,20,21
 1089 1715 1089 1715 1072 1755 c 128,-1,22
 1055 1795 1055 1795 1007 1803 c 0,12,13
945 2120 m 1,23,24
 970 2066 970 2066 1006 2063 c 128,-1,25
 1042 2060 1042 2060 1063 2062 c 1,26,27
 1091 2063 1091 2063 1100 2108.5 c 128,-1,28
 1109 2154 1109 2154 1082 2164 c 0,29,30
 1040 2178 1040 2178 1010.5 2163.5 c 128,-1,31
 981 2149 981 2149 945 2120 c 1,23,24
876 2038 m 1,32,33
 837 1969 837 1969 827 1901.5 c 128,-1,34
 817 1834 817 1834 817 1796 c 1,35,36
 933 1910 933 1910 1070 1851.5 c 128,-1,37
 1207 1793 1207 1793 1189 1668 c 1,38,39
 1177 1575 1177 1575 1130.5 1512 c 128,-1,40
 1084 1449 1084 1449 925 1454 c 1,41,42
 825 1456 825 1456 781.5 1529 c 128,-1,43
 738 1602 738 1602 738 1710 c 0,44,45
 738 1887 738 1887 822 2064 c 128,-1,46
 906 2241 906 2241 1055 2239 c 0,47,48
 1193 2237 1193 2237 1176 2119 c 128,-1,49
 1159 2001 1159 2001 1078 2001 c 1,50,51
 1008 2000 1008 2000 961.5 2016 c 128,-1,52
 915 2032 915 2032 876 2038 c 1,32,33
EndSplineSet
Validated: 37
EndChar

StartChar: three
Encoding: 51 51 22
Width: 1418
Flags: W
LayerCount: 2
Fore
SplineSet
738 2017 m 1,0,1
 1020 2017 1020 2017 1113.5 2038.5 c 128,-1,2
 1207 2060 1207 2060 1207 2060 c 1,3,-1
 1200 2112 l 1,4,5
 1185 2215 1185 2215 1291 2211 c 0,6,7
 1351 2209 1351 2209 1350.5 2124.5 c 128,-1,8
 1350 2040 1350 2040 1265 2017 c 0,9,10
 1166 1990 1166 1990 1123.5 1986.5 c 128,-1,11
 1081 1983 1081 1983 881 1967 c 1,12,-1
 881 1480 l 1,13,-1
 738 1480 l 1,14,-1
 738 2017 l 1,0,1
EndSplineSet
Validated: 33
EndChar

StartChar: four
Encoding: 52 52 23
Width: 1512
Flags: W
LayerCount: 2
Fore
SplineSet
1440 1480 m 1,0,-1
 738 1480 l 1,1,-1
 1107 2264 l 1,2,-1
 1440 1480 l 1,0,-1
1282 1572 m 1,3,-1
 1076 2056 l 1,4,-1
 848 1572 l 1,5,-1
 1282 1572 l 1,3,-1
EndSplineSet
Validated: 1
EndChar

StartChar: five
Encoding: 53 53 24
Width: 1529
Flags: W
LayerCount: 2
Fore
SplineSet
1310 2086 m 1,0,1
 1258 2011 1258 2011 1204.5 1936.5 c 128,-1,2
 1151 1862 1151 1862 1103 1786 c 1,3,4
 1106 1698 1106 1698 1141 1640 c 1,5,6
 1184 1578 1184 1578 1216 1574 c 128,-1,7
 1248 1570 1248 1570 1297 1653 c 1,8,9
 1325 1685 1325 1685 1353 1673.5 c 128,-1,10
 1381 1662 1381 1662 1387 1643 c 0,11,12
 1400 1601 1400 1601 1387 1570 c 128,-1,13
 1374 1539 1374 1539 1364 1526 c 0,14,15
 1353 1512 1353 1512 1325.5 1496 c 128,-1,16
 1298 1480 1298 1480 1268 1483 c 1,17,18
 1229 1485 1229 1485 1207 1496 c 0,19,20
 1187 1506 1187 1506 1162 1540 c 1,21,22
 1139 1568 1139 1568 1127 1588.5 c 128,-1,23
 1115 1609 1115 1609 1109 1622 c 0,24,25
 1102 1635 1102 1635 1092.5 1667.5 c 128,-1,26
 1083 1700 1083 1700 1078 1748 c 1,27,-1
 915 1509 l 1,28,-1
 794 1509 l 1,29,30
 833 1567 833 1567 870 1614.5 c 128,-1,31
 907 1662 907 1662 953 1740 c 0,32,33
 965 1760 965 1760 964.5 1839.5 c 128,-1,34
 964 1919 964 1919 957 1944 c 0,35,36
 941 1995 941 1995 907 1995 c 0,37,38
 887 1995 887 1995 872.5 1983 c 128,-1,39
 858 1971 858 1971 827 1976 c 0,40,41
 807 1979 807 1979 797 2008.5 c 128,-1,42
 787 2038 787 2038 805 2068 c 0,43,44
 826 2104 826 2104 887 2104 c 0,45,46
 923 2104 923 2104 953 2075 c 1,47,48
 985 2042 985 2042 990 1994 c 1,49,50
 997 1945 997 1945 1000.5 1901.5 c 128,-1,51
 1004 1858 1004 1858 995 1803 c 1,52,-1
 1189 2086 l 1,53,-1
 1310 2086 l 1,0,1
EndSplineSet
Validated: 33
EndChar

StartChar: six
Encoding: 54 54 25
Width: 1605
Flags: W
LayerCount: 2
Fore
SplineSet
862 2178 m 1,0,1
 935 2222 935 2222 1020 2196 c 1,2,3
 1051 2185 1051 2185 1077 2159 c 128,-1,4
 1103 2133 1103 2133 1137 2122 c 1,5,6
 1158 2114 1158 2114 1186.5 2119 c 128,-1,7
 1215 2124 1215 2124 1240 2130 c 1,8,9
 1250 2131 1250 2131 1264.5 2147.5 c 128,-1,10
 1279 2164 1279 2164 1295 2176 c 0,11,12
 1335 2207 1335 2207 1366 2205 c 1,13,14
 1389 2208 1389 2208 1388 2173.5 c 128,-1,15
 1387 2139 1387 2139 1366 2125 c 1,16,-1
 932 1659 l 1,17,18
 972 1683 972 1683 1018.5 1700.5 c 128,-1,19
 1065 1718 1065 1718 1163 1707 c 0,20,21
 1189 1704 1189 1704 1229.5 1670 c 128,-1,22
 1270 1636 1270 1636 1312.5 1609.5 c 128,-1,23
 1355 1583 1355 1583 1395.5 1582.5 c 128,-1,24
 1436 1582 1436 1582 1463 1645 c 1,25,26
 1463 1648 1463 1648 1465.5 1667.5 c 128,-1,27
 1468 1687 1468 1687 1456 1680 c 0,28,29
 1399 1648 1399 1648 1381.5 1723 c 128,-1,30
 1364 1798 1364 1798 1436 1805 c 0,31,32
 1496 1811 1496 1811 1512.5 1774 c 128,-1,33
 1529 1737 1529 1737 1529 1689 c 0,34,35
 1529 1633 1529 1633 1472.5 1556.5 c 128,-1,36
 1416 1480 1416 1480 1257 1480 c 0,37,38
 1203 1480 1203 1480 1161 1510.5 c 128,-1,39
 1119 1541 1119 1541 1075.5 1567.5 c 128,-1,40
 1032 1594 1032 1594 980 1598.5 c 128,-1,41
 928 1603 928 1603 856 1551 c 0,42,43
 846 1543 846 1543 843 1535 c 128,-1,44
 840 1527 840 1527 830 1518 c 1,45,46
 796 1475 796 1475 755.5 1501 c 128,-1,47
 715 1527 715 1527 738 1556 c 1,48,-1
 1188 2037 l 1,49,50
 1188 2048 1188 2048 1125.5 2027.5 c 128,-1,51
 1063 2007 1063 2007 1021 2027 c 1,52,53
 972 2053 972 2053 959.5 2072 c 128,-1,54
 947 2091 947 2091 918 2091 c 0,55,56
 870 2091 870 2091 846 2074 c 128,-1,57
 822 2057 822 2057 813 2054 c 0,58,59
 752 2038 752 2038 805 2105.5 c 128,-1,60
 858 2173 858 2173 862 2178 c 1,0,1
EndSplineSet
Validated: 33
EndChar

StartChar: seven
Encoding: 55 55 26
Width: 1499
Flags: W
LayerCount: 2
Fore
SplineSet
1011 1467 m 1,0,1
 993 1550 993 1550 997 1609.5 c 128,-1,2
 1001 1669 1001 1669 960 1807 c 1,3,4
 950 1832 950 1832 942.5 1856.5 c 128,-1,5
 935 1881 935 1881 921 1896 c 1,6,7
 899 1917 899 1917 880 1928 c 0,8,9
 839 1953 839 1953 834 1958 c 0,10,11
 822 1969 822 1969 817.5 1979.5 c 128,-1,12
 813 1990 813 1990 811 2009 c 0,13,14
 808 2043 808 2043 821 2056 c 0,15,16
 837 2073 837 2073 859 2070 c 0,17,18
 880 2067 880 2067 904 2045 c 0,19,20
 916 2033 916 2033 932 2008 c 1,21,22
 943 1993 943 1993 950 1962.5 c 128,-1,23
 957 1932 957 1932 966 1905 c 0,24,25
 988 1840 988 1840 1003.5 1775.5 c 128,-1,26
 1019 1711 1019 1711 1029 1637 c 1,27,28
 1078 1717 1078 1717 1123.5 1786.5 c 128,-1,29
 1169 1856 1169 1856 1200 1983 c 1,30,31
 1205 2022 1205 2022 1197.5 2052.5 c 128,-1,32
 1190 2083 1190 2083 1204 2089 c 1,33,34
 1279 2040 1279 2040 1277.5 1926 c 128,-1,35
 1276 1812 1276 1812 1229 1743 c 0,36,37
 1185 1679 1185 1679 1133 1614.5 c 128,-1,38
 1081 1550 1081 1550 1025 1470 c 1,39,40
 1021 1467 1021 1467 1011 1467 c 1,0,1
1432 1638 m 257,41,42
 1432 1638 1432 1638 1432 1638 c 129,-1,43
 1432 1638 1432 1638 1432 1638 c 257,44,45
 1432 1638 1432 1638 1432 1638 c 129,-1,46
 1432 1638 1432 1638 1432 1638 c 257,47,48
 1432 1638 1432 1638 1432 1638 c 129,-1,49
 1432 1638 1432 1638 1432 1638 c 257,50,51
 1432 1638 1432 1638 1432 1638 c 129,-1,52
 1432 1638 1432 1638 1432 1638 c 257,41,42
EndSplineSet
Validated: 37
EndChar

StartChar: eight
Encoding: 56 56 27
Width: 1
Flags: W
LayerCount: 2
Fore
SplineSet
-1605 1340 m 2,0,-1
 -1484 1340 l 2,1,2
 -1473 1340 -1473 1340 -1450.5 1339.5 c 128,-1,3
 -1428 1339 -1428 1339 -1422 1333 c 0,4,5
 -1413 1325 -1413 1325 -1424.5 1324.5 c 128,-1,6
 -1436 1324 -1436 1324 -1443 1278 c 2,7,-1
 -1456 1181 l 1,8,9
 -1463 1119 -1463 1119 -1514 1119 c 2,10,-1
 -1635 1119 l 2,11,12
 -1644 1119 -1644 1119 -1671 1120.5 c 128,-1,13
 -1698 1122 -1698 1122 -1699 1133 c 0,14,15
 -1700 1145 -1700 1145 -1689.5 1149 c 128,-1,16
 -1679 1153 -1679 1153 -1676 1181 c 2,17,-1
 -1663 1278 l 2,18,19
 -1655 1340 -1655 1340 -1605 1340 c 2,0,-1
36 1940 m 1,20,21
 38 1940 38 1940 38 1938 c 256,22,23
 38 1936 38 1936 36 1936 c 1,24,25
 36 1936 36 1936 35.5 1936.5 c 128,-1,26
 35 1937 35 1937 35 1938 c 2,27,28
 35 1938 35 1938 35.5 1939 c 128,-1,29
 36 1940 36 1940 36 1940 c 1,20,21
EndSplineSet
Validated: 1
EndChar

StartChar: nine
Encoding: 57 57 28
Width: 10
Flags: W
LayerCount: 2
Fore
SplineSet
-1606 1340 m 2,0,-1
 -1485 1340 l 2,1,2
 -1474 1340 -1474 1340 -1451.5 1339.5 c 128,-1,3
 -1429 1339 -1429 1339 -1423 1333 c 0,4,5
 -1414 1325 -1414 1325 -1425.5 1324.5 c 128,-1,6
 -1437 1324 -1437 1324 -1444 1278 c 2,7,-1
 -1457 1181 l 1,8,9
 -1464 1119 -1464 1119 -1515 1119 c 2,10,-1
 -1636 1119 l 2,11,12
 -1645 1119 -1645 1119 -1672 1120.5 c 128,-1,13
 -1699 1122 -1699 1122 -1700 1133 c 0,14,15
 -1701 1145 -1701 1145 -1690.5 1149 c 128,-1,16
 -1680 1153 -1680 1153 -1677 1181 c 2,17,-1
 -1664 1278 l 2,18,19
 -1656 1340 -1656 1340 -1606 1340 c 2,0,-1
-1114 1340 m 2,20,-1
 -993 1340 l 2,21,22
 -982 1340 -982 1340 -959.5 1339.5 c 128,-1,23
 -937 1339 -937 1339 -931 1333 c 0,24,25
 -922 1325 -922 1325 -934 1324.5 c 128,-1,26
 -946 1324 -946 1324 -952 1278 c 2,27,-1
 -965 1181 l 1,28,29
 -972 1119 -972 1119 -1023 1119 c 2,30,-1
 -1144 1119 l 2,31,32
 -1153 1119 -1153 1119 -1180 1120.5 c 128,-1,33
 -1207 1122 -1207 1122 -1208 1133 c 0,34,35
 -1209 1145 -1209 1145 -1198.5 1149 c 128,-1,36
 -1188 1153 -1188 1153 -1185 1181 c 2,37,-1
 -1172 1278 l 2,38,39
 -1164 1340 -1164 1340 -1114 1340 c 2,20,-1
8 1970 m 0,40,41
 10 1970 10 1970 10 1967 c 0,42,43
 10 1965 10 1965 8 1965 c 0,44,45
 5 1965 5 1965 5 1967 c 0,46,47
 5 1970 5 1970 8 1970 c 0,40,41
EndSplineSet
Validated: 1
EndChar

StartChar: colon
Encoding: 58 58 29
Width: 1072
Flags: W
LayerCount: 2
Fore
SplineSet
404 2950 m 1,0,1
 554 2951 554 2951 707 2952 c 128,-1,2
 860 2953 860 2953 1010 2955 c 1,3,4
 1021 2941 1021 2941 1018.5 2918 c 128,-1,5
 1016 2895 1016 2895 1011 2880 c 1,6,7
 980 2873 980 2873 809.5 2873.5 c 128,-1,8
 639 2874 639 2874 513 2874 c 1,9,10
 512 2768 512 2768 517 2635 c 128,-1,11
 522 2502 522 2502 511 2501 c 1,12,13
 479 2501 479 2501 443 2496.5 c 128,-1,14
 407 2492 407 2492 382 2501 c 1,15,16
 379 2501 379 2501 379 2521 c 0,17,18
 379 2522 379 2522 380.5 2523 c 128,-1,19
 382 2524 382 2524 382 2526 c 0,20,21
 382 2634 382 2634 383.5 2722.5 c 128,-1,22
 385 2811 385 2811 385 2919 c 0,23,24
 385 2947 385 2947 404 2950 c 1,0,1
733 2257 m 1,25,26
 781 2256 781 2256 779.5 2228 c 128,-1,27
 778 2200 778 2200 745 2195 c 1,28,29
 689 2183 689 2183 672 2148 c 1,30,31
 598 1971 598 1971 558.5 1838.5 c 128,-1,32
 519 1706 519 1706 457 1681 c 1,33,34
 391 1672 391 1672 318 1670.5 c 128,-1,35
 245 1669 245 1669 175 1681 c 1,36,37
 145 1693 145 1693 154.5 1708 c 128,-1,38
 164 1723 164 1723 184 1729 c 1,39,40
 205 1734 205 1734 228 1777 c 0,41,42
 299 1905 299 1905 347 2065.5 c 128,-1,43
 395 2226 395 2226 448 2244 c 1,44,45
 518 2265 518 2265 590 2261 c 128,-1,46
 662 2257 662 2257 733 2257 c 1,25,26
EndSplineSet
Validated: 33
EndChar

StartChar: semicolon
Encoding: 59 59 30
Width: 2281
Flags: W
LayerCount: 2
Fore
SplineSet
1854 1936 m 1,0,-1
 1872 1858 l 2,1,2
 1874 1849 1874 1849 1894.5 1817.5 c 128,-1,3
 1915 1786 1915 1786 1915 1778 c 256,4,5
 1915 1770 1915 1770 1881 1763.5 c 128,-1,6
 1847 1757 1847 1757 1835 1757 c 2,7,-1
 1711 1757 l 2,8,9
 1687 1757 1687 1757 1665 1792 c 128,-1,10
 1643 1827 1643 1827 1637 1858 c 1,11,-1
 1619 1936 l 1,12,13
 1380 1936 1380 1936 1180 1955 c 128,-1,14
 980 1974 980 1974 896 1988 c 0,15,16
 581 2037 581 2037 504 2214 c 0,17,18
 486 2253 486 2253 443 2369.5 c 128,-1,19
 400 2486 400 2486 351.5 2611.5 c 128,-1,20
 303 2737 303 2737 260 2838 c 128,-1,21
 217 2939 217 2939 201 2947 c 1,22,23
 118 2976 118 2976 163 3010 c 1,24,25
 267 3019 267 3019 361 3021 c 128,-1,26
 455 3023 455 3023 554 3015 c 0,27,28
 603 3012 603 3012 637 2943 c 128,-1,29
 671 2874 671 2874 697 2775.5 c 128,-1,30
 723 2677 723 2677 743.5 2566 c 128,-1,31
 764 2455 764 2455 785 2369 c 0,32,33
 827 2196 827 2196 890.5 2134 c 128,-1,34
 954 2072 954 2072 1107 2032 c 0,35,36
 1262 1991 1262 1991 1613 1997 c 1,37,-1
 1587 2138 l 2,38,39
 1585 2148 1585 2148 1566.5 2165 c 128,-1,40
 1548 2182 1548 2182 1548 2191 c 0,41,42
 1548 2203 1548 2203 1581.5 2207.5 c 128,-1,43
 1615 2212 1615 2212 1628 2212 c 2,44,-1
 1753 2212 l 2,45,46
 1775 2212 1775 2212 1797 2180 c 128,-1,47
 1819 2148 1819 2148 1826 2112 c 2,48,-1
 1847 1998 l 1,49,50
 1984 2000 1984 2000 2034 2007.5 c 128,-1,51
 2084 2015 2084 2015 2141 2023 c 1,52,53
 2163 2020 2163 2020 2168 2002 c 128,-1,54
 2173 1984 2173 1984 2159 1969 c 1,55,56
 2139 1952 2139 1952 2075.5 1943.5 c 128,-1,57
 2012 1935 2012 1935 1854 1936 c 1,0,-1
EndSplineSet
Validated: 33
EndChar

StartChar: less
Encoding: 60 60 31
Width: 0
Flags: W
LayerCount: 2
Fore
SplineSet
448 1970 m 0,0,1
 450 1970 450 1970 450 1967 c 0,2,3
 450 1965 450 1965 448 1965 c 0,4,5
 445 1965 445 1965 445 1967 c 0,6,7
 445 1970 445 1970 448 1970 c 0,0,1
-190 1254 m 1,8,9
 -158 1340 -158 1340 -131 1402.5 c 128,-1,10
 -104 1465 -104 1465 -79 1465 c 1,11,12
 -17 1474 -17 1474 60 1476 c 128,-1,13
 137 1478 137 1478 207 1478 c 1,14,15
 255 1477 255 1477 251 1451 c 128,-1,16
 247 1425 247 1425 214 1419 c 0,17,18
 189 1414 189 1414 170 1396.5 c 128,-1,19
 151 1379 151 1379 145 1369 c 1,20,21
 73 1191 73 1191 33 1058.5 c 128,-1,22
 -7 926 -7 926 -70 902 c 1,23,24
 -135 893 -135 893 -207.5 891 c 128,-1,25
 -280 889 -280 889 -352 902 c 1,26,27
 -382 914 -382 914 -372 929 c 128,-1,28
 -362 944 -362 944 -343 950 c 1,29,30
 -322 955 -322 955 -298 998 c 0,31,32
 -278 1034 -278 1034 -260 1076 c 128,-1,33
 -242 1118 -242 1118 -225 1162 c 1,34,-1
 -1942 1162 l 1,35,-1
 -2047 1156 l 1,36,37
 -2102 1154 -2102 1154 -2148 1159 c 0,38,39
 -2190 1163 -2190 1163 -2190 1208.5 c 128,-1,40
 -2190 1254 -2190 1254 -2145 1254 c 2,41,-1
 -190 1254 l 1,8,9
EndSplineSet
Validated: 33
EndChar

StartChar: equal
Encoding: 61 61 32
Width: 2411
Flags: W
LayerCount: 2
Fore
SplineSet
1778 896 m 1,0,1
 1755 914 1755 914 1775.5 929.5 c 128,-1,2
 1796 945 1796 945 1826 945 c 0,3,4
 1859 945 1859 945 1919.5 1005.5 c 128,-1,5
 1980 1066 1980 1066 1999 1154 c 1,6,7
 2029 1304 2029 1304 1842 1399 c 1,8,9
 1640 1499 1640 1499 1320 1532 c 0,10,11
 1266 1537 1266 1537 1199.5 1536 c 128,-1,12
 1133 1535 1133 1535 1125 1539 c 1,13,14
 1097 1549 1097 1549 1103 1573.5 c 128,-1,15
 1109 1598 1109 1598 1133 1600 c 0,16,17
 1156 1602 1156 1602 1244.5 1597 c 128,-1,18
 1333 1592 1333 1592 1438 1577 c 0,19,20
 1558 1559 1558 1559 1682.5 1528.5 c 128,-1,21
 1807 1498 1807 1498 1914 1456 c 0,22,23
 2034 1408 2034 1408 2106.5 1360.5 c 128,-1,24
 2179 1313 2179 1313 2239 1234 c 1,25,26
 2299 1153 2299 1153 2289 1073 c 128,-1,27
 2279 993 2279 993 2219 949 c 0,28,29
 2165 909 2165 909 2094 894.5 c 128,-1,30
 2023 880 2023 880 1958 880 c 256,31,32
 1893 880 1893 880 1868 880.5 c 128,-1,33
 1843 881 1843 881 1778 896 c 1,0,1
838 1767 m 1,34,35
 815 1785 815 1785 835.5 1800.5 c 128,-1,36
 856 1816 856 1816 886 1816 c 0,37,38
 919 1816 919 1816 979.5 1875.5 c 128,-1,39
 1040 1935 1040 1935 1059 2024 c 0,40,41
 1090 2174 1090 2174 902 2269 c 1,42,43
 701 2369 701 2369 380 2401 c 0,44,45
 325 2407 325 2407 259.5 2406 c 128,-1,46
 194 2405 194 2405 185 2409 c 0,47,48
 156 2420 156 2420 163 2444 c 128,-1,49
 170 2468 170 2468 193 2470 c 256,50,51
 216 2472 216 2472 304 2467 c 128,-1,52
 392 2462 392 2462 498 2447 c 0,53,54
 618 2429 618 2429 742.5 2398.5 c 128,-1,55
 867 2368 867 2368 975 2326 c 1,56,57
 1095 2278 1095 2278 1167 2230.5 c 128,-1,58
 1239 2183 1239 2183 1299 2104 c 1,59,60
 1359 2023 1359 2023 1349.5 1943 c 128,-1,61
 1340 1863 1340 1863 1280 1820 c 1,62,63
 1226 1779 1226 1779 1154.5 1765 c 128,-1,64
 1083 1751 1083 1751 1018 1751 c 0,65,66
 954 1751 954 1751 928.5 1751 c 128,-1,67
 903 1751 903 1751 838 1767 c 1,34,35
EndSplineSet
Validated: 33
EndChar

StartChar: greater
Encoding: 62 62 33
Width: 0
Flags: W
LayerCount: 2
Fore
SplineSet
-1602 1539.5 m 128,-1,1
 -1666 1539 -1666 1539 -1706 1523.5 c 128,-1,2
 -1746 1508 -1746 1508 -1787 1460 c 1,3,4
 -1826 1404 -1826 1404 -1850.5 1394.5 c 128,-1,5
 -1875 1385 -1875 1385 -1901.5 1379.5 c 128,-1,6
 -1928 1374 -1928 1374 -1930 1356 c 128,-1,7
 -1932 1338 -1932 1338 -1889.5 1332.5 c 128,-1,8
 -1847 1327 -1847 1327 -1815 1325.5 c 128,-1,9
 -1783 1324 -1783 1324 -1762 1344.5 c 128,-1,10
 -1741 1365 -1741 1365 -1721 1396 c 128,-1,11
 -1701 1427 -1701 1427 -1679 1447.5 c 128,-1,12
 -1657 1468 -1657 1468 -1618 1476.5 c 128,-1,13
 -1579 1485 -1579 1485 -1541.5 1478.5 c 128,-1,14
 -1504 1472 -1504 1472 -1457.5 1451.5 c 128,-1,15
 -1411 1431 -1411 1431 -1331 1349 c 128,-1,16
 -1251 1267 -1251 1267 -1184 1048 c 1,17,18
 -1115 848 -1115 848 -1049.5 691.5 c 128,-1,19
 -984 535 -984 535 -817 415 c 1,20,21
 -682 341 -682 341 -572 323.5 c 128,-1,22
 -462 306 -462 306 -449 311.5 c 128,-1,23
 -436 317 -436 317 -431 323.5 c 128,-1,24
 -426 330 -426 330 -426.5 340.5 c 128,-1,25
 -427 351 -427 351 -439 364.5 c 128,-1,26
 -451 378 -451 378 -466.5 388 c 128,-1,27
 -482 398 -482 398 -503.5 409 c 128,-1,28
 -525 420 -525 420 -567 440 c 0,29,30
 -715 513 -715 513 -787 600 c 128,-1,31
 -859 687 -859 687 -923.5 813 c 128,-1,32
 -988 939 -988 939 -1051 1056 c 128,-1,33
 -1114 1173 -1114 1173 -1163.5 1249.5 c 128,-1,34
 -1213 1326 -1213 1326 -1244.5 1361.5 c 128,-1,35
 -1276 1397 -1276 1397 -1316.5 1433 c 128,-1,36
 -1357 1469 -1357 1469 -1402.5 1492 c 128,-1,37
 -1448 1515 -1448 1515 -1493 1527.5 c 128,-1,0
 -1538 1540 -1538 1540 -1602 1539.5 c 128,-1,1
EndSplineSet
Validated: 41
EndChar

StartChar: question
Encoding: 63 63 34
Width: 38
Flags: W
LayerCount: 2
Fore
SplineSet
35 1940 m 1,0,1
 37 1940 37 1940 37 1938 c 256,2,3
 37 1936 37 1936 35 1936 c 1,4,5
 35 1936 35 1936 34.5 1936.5 c 128,-1,6
 34 1937 34 1937 34 1938 c 2,7,8
 34 1938 34 1938 34.5 1939 c 128,-1,9
 35 1940 35 1940 35 1940 c 1,0,1
-4612 1237 m 1,10,11
 -4592 1255 -4592 1255 -4555 1232 c 128,-1,12
 -4518 1209 -4518 1209 -4547 1164 c 1,13,-1
 -4775 918 l 1,14,15
 -4757 932 -4757 932 -4623 984.5 c 128,-1,16
 -4489 1037 -4489 1037 -4417 1054 c 0,17,18
 -4252 1092 -4252 1092 -4048 1060.5 c 128,-1,19
 -3844 1029 -3844 1029 -3694 966 c 0,20,21
 -3629 938 -3629 938 -3519 878.5 c 128,-1,22
 -3409 819 -3409 819 -3276 764 c 128,-1,23
 -3143 709 -3143 709 -2997 676 c 128,-1,24
 -2851 643 -2851 643 -2714 668 c 1,25,26
 -2637 681 -2637 681 -2571 733 c 128,-1,27
 -2505 785 -2505 785 -2525 823 c 0,28,29
 -2545 860 -2545 860 -2613 816.5 c 128,-1,30
 -2681 773 -2681 773 -2735 902 c 1,31,32
 -2774 1001 -2774 1001 -2714.5 1064.5 c 128,-1,33
 -2655 1128 -2655 1128 -2555 1101 c 0,34,35
 -2409 1061 -2409 1061 -2418 898 c 0,36,37
 -2422 811 -2422 811 -2494 726 c 128,-1,38
 -2566 641 -2566 641 -2654 617 c 1,39,40
 -2832 566 -2832 566 -2989 586 c 128,-1,41
 -3146 606 -3146 606 -3282.5 657.5 c 128,-1,42
 -3419 709 -3419 709 -3535 773.5 c 128,-1,43
 -3651 838 -3651 838 -3747 877 c 0,44,45
 -3926 950 -3926 950 -4083.5 986 c 128,-1,46
 -4241 1022 -4241 1022 -4413 989 c 0,47,48
 -4514 970 -4514 970 -4645 918 c 128,-1,49
 -4776 866 -4776 866 -4822 830 c 1,50,51
 -4845 810 -4845 810 -4879 837 c 128,-1,52
 -4913 864 -4913 864 -4894 910 c 1,53,-1
 -4612 1237 l 1,10,11
EndSplineSet
Validated: 33
EndChar

StartChar: at
Encoding: 64 64 35
Width: 48
Flags: W
LayerCount: 2
Fore
SplineSet
-936 912 m 1,0,1
 -943 992 -943 992 -884 1040 c 0,2,3
 -842 1073 -842 1073 -735.5 1060.5 c 128,-1,4
 -629 1048 -629 1048 -546 926 c 1,5,-1
 -237 439 l 2,6,7
 -235 436 -235 436 -201.5 531.5 c 128,-1,8
 -168 627 -168 627 -127 635 c 1,9,10
 -32 650 -32 650 -11 609 c 1,11,12
 -2 588 -2 588 -16.5 590 c 128,-1,13
 -31 592 -31 592 -63 546 c 1,14,15
 -63 546 -63 546 -88.5 500 c 128,-1,16
 -114 454 -114 454 -123.5 397 c 128,-1,17
 -133 340 -133 340 -105.5 288.5 c 128,-1,18
 -78 237 -78 237 28 225 c 1,19,20
 46 179 46 179 -34 197 c 1,21,22
 -92 212 -92 212 -158.5 263 c 128,-1,23
 -225 314 -225 314 -243 354 c 1,24,-1
 -423 629 l 1,25,-1
 -576 211 l 1,26,-1
 -720 213 l 1,27,-1
 -496 736 l 1,28,29
 -565 913 -565 913 -683 992.5 c 128,-1,30
 -801 1072 -801 1072 -791 880 c 0,31,32
 -789 841 -789 841 -856.5 824.5 c 128,-1,33
 -924 808 -924 808 -936 912 c 1,0,1
EndSplineSet
Validated: 33
EndChar

StartChar: A
Encoding: 65 65 36
Width: 2701
Flags: W
LayerCount: 2
Fore
SplineSet
1935 2361 m 1,0,1
 2013 2390 2013 2390 2198 2358 c 1,2,3
 2306 2330 2306 2330 2389.5 2285 c 128,-1,4
 2473 2240 2473 2240 2518 2127 c 1,5,6
 2548 2018 2548 2018 2538 1953.5 c 128,-1,7
 2528 1889 2528 1889 2466 1804 c 1,8,9
 2407 1733 2407 1733 2328 1696.5 c 128,-1,10
 2249 1660 2249 1660 2134 1636 c 1,11,12
 2020 1614 2020 1614 1948 1614.5 c 128,-1,13
 1876 1615 1876 1615 1793 1618 c 1,14,15
 1711 1622 1711 1622 1640.5 1631.5 c 128,-1,16
 1570 1641 1570 1641 1470 1672 c 1,17,18
 1304 1718 1304 1718 1142 1797 c 0,19,20
 1051 1842 1051 1842 949.5 1894 c 128,-1,21
 848 1946 848 1946 723 2017 c 1,22,23
 665 2052 665 2052 597.5 2091.5 c 128,-1,24
 530 2131 530 2131 451 2173 c 1,25,26
 391 2210 391 2210 333.5 2247.5 c 128,-1,27
 276 2285 276 2285 285 2323 c 128,-1,28
 294 2361 294 2361 329 2359 c 128,-1,29
 364 2357 364 2357 548.5 2360.5 c 128,-1,30
 733 2364 733 2364 871 2361 c 1,31,32
 926 2321 926 2321 869.5 2303 c 128,-1,33
 813 2285 813 2285 786 2258 c 0,34,35
 735 2205 735 2205 740.5 2174 c 128,-1,36
 746 2143 746 2143 757 2125.5 c 128,-1,37
 768 2108 768 2108 790.5 2088 c 128,-1,38
 813 2068 813 2068 902 2007 c 128,-1,39
 991 1946 991 1946 1123 1878 c 1,40,41
 1241 1826 1241 1826 1309 1793.5 c 128,-1,42
 1377 1761 1377 1761 1529 1720 c 1,43,44
 1642 1698 1642 1698 1758.5 1693 c 128,-1,45
 1875 1688 1875 1688 1995 1727 c 1,46,47
 2079 1764 2079 1764 2113.5 1790 c 128,-1,48
 2148 1816 2148 1816 2190 1880 c 1,49,50
 2227 1942 2227 1942 2232.5 1984.5 c 128,-1,51
 2238 2027 2238 2027 2234 2083 c 1,52,53
 2231 2140 2231 2140 2220 2165.5 c 128,-1,54
 2209 2191 2209 2191 2191 2217.5 c 128,-1,55
 2173 2244 2173 2244 2145.5 2265.5 c 128,-1,56
 2118 2287 2118 2287 2061 2296 c 128,-1,57
 2004 2305 2004 2305 1948 2311 c 1,58,59
 1924 2316 1924 2316 1917.5 2331.5 c 128,-1,60
 1911 2347 1911 2347 1935 2361 c 1,0,1
183 2989 m 1,61,62
 105 3130 105 3130 141 3231 c 128,-1,63
 177 3332 177 3332 269 3339 c 0,64,65
 329 3343 329 3343 360.5 3330 c 128,-1,66
 392 3317 392 3317 416 3303.5 c 128,-1,67
 440 3290 440 3290 461.5 3274.5 c 128,-1,68
 483 3259 483 3259 502 3242.5 c 128,-1,69
 521 3226 521 3226 528.5 3213 c 128,-1,70
 536 3200 536 3200 535 3189 c 128,-1,71
 534 3178 534 3178 526.5 3173 c 128,-1,72
 519 3168 519 3168 483 3154 c 128,-1,73
 447 3140 447 3140 390 3108 c 128,-1,74
 333 3076 333 3076 335 3001 c 1,75,76
 336 2923 336 2923 497.5 2854.5 c 128,-1,77
 659 2786 659 2786 978 2799 c 1,78,-1
 2102 2837 l 1,79,80
 2169 2837 2169 2837 2209.5 2828 c 128,-1,81
 2250 2819 2250 2819 2282.5 2805 c 128,-1,82
 2315 2791 2315 2791 2338 2777 c 128,-1,83
 2361 2763 2361 2763 2391.5 2735.5 c 128,-1,84
 2422 2708 2422 2708 2462.5 2665 c 128,-1,85
 2503 2622 2503 2622 2515.5 2601.5 c 128,-1,86
 2528 2581 2528 2581 2528 2562 c 128,-1,87
 2528 2543 2528 2543 2515.5 2536.5 c 128,-1,88
 2503 2530 2503 2530 2488 2530 c 128,-1,89
 2473 2530 2473 2530 2456.5 2536.5 c 128,-1,90
 2440 2543 2440 2543 2417 2550.5 c 128,-1,91
 2394 2558 2394 2558 2365 2566.5 c 128,-1,92
 2336 2575 2336 2575 2312 2579 c 128,-1,93
 2288 2583 2288 2583 2245 2585 c 2,94,-1
 1815 2597 l 1,95,96
 1626 2597 1626 2597 1418.5 2612.5 c 128,-1,97
 1211 2628 1211 2628 1027 2652.5 c 128,-1,98
 843 2677 843 2677 703.5 2706 c 128,-1,99
 564 2735 564 2735 512 2754 c 1,100,101
 423 2791 423 2791 355.5 2827 c 128,-1,102
 288 2863 288 2863 183 2989 c 1,61,62
EndSplineSet
Validated: 33
EndChar

StartChar: B
Encoding: 66 66 37
Width: 4
Flags: W
LayerCount: 2
Fore
SplineSet
-1679 1273 m 1,0,-1
 -1655 1296 l 1,1,-1
 -1633 1323 l 1,2,3
 -1611 1345 -1611 1345 -1589.5 1324 c 128,-1,4
 -1568 1303 -1568 1303 -1591 1279 c 1,5,-1
 -1640 1233 l 1,6,-1
 -1544 1134 l 1,7,8
 -1522 1115 -1522 1115 -1544 1096 c 128,-1,9
 -1566 1077 -1566 1077 -1583 1096 c 1,10,-1
 -1679 1195 l 1,11,-1
 -1730 1146 l 1,12,-1
 -1632 1045 l 1,13,14
 -1611 1026 -1611 1026 -1633 1007.5 c 128,-1,15
 -1655 989 -1655 989 -1672 1007 c 2,16,-1
 -1769 1107 l 1,17,-1
 -1831 1048 l 1,18,19
 -1780 984 -1780 984 -1780 903 c 0,20,21
 -1780 803 -1780 803 -1850.5 733.5 c 128,-1,22
 -1921 664 -1921 664 -2018 664 c 0,23,24
 -2117 664 -2117 664 -2187 733.5 c 128,-1,25
 -2257 803 -2257 803 -2257 903 c 0,26,27
 -2257 1001 -2257 1001 -2187 1071 c 128,-1,28
 -2117 1141 -2117 1141 -2018 1141 c 0,29,30
 -1932 1141 -1932 1141 -1866 1085 c 1,31,-1
 -1806 1145 l 1,32,-1
 -1906 1248 l 2,33,34
 -1927 1269 -1927 1269 -1905.5 1286.5 c 128,-1,35
 -1884 1304 -1884 1304 -1867 1286 c 2,36,-1
 -1767 1184 l 1,37,-1
 -1718 1234 l 1,38,-1
 -1818 1337 l 2,39,40
 -1839 1358 -1839 1358 -1817 1375.5 c 128,-1,41
 -1795 1393 -1795 1393 -1779 1375 c 1,42,-1
 -1679 1273 l 1,0,-1
-2018 716 m 0,43,44
 -1942 716 -1942 716 -1887 770.5 c 128,-1,45
 -1832 825 -1832 825 -1832 903 c 0,46,47
 -1832 979 -1832 979 -1887 1034.5 c 128,-1,48
 -1942 1090 -1942 1090 -2018 1090 c 0,49,50
 -2095 1090 -2095 1090 -2150.5 1034.5 c 128,-1,51
 -2206 979 -2206 979 -2206 903 c 0,52,53
 -2206 825 -2206 825 -2150.5 770.5 c 128,-1,54
 -2095 716 -2095 716 -2018 716 c 0,43,44
8 1970 m 0,55,56
 10 1970 10 1970 10 1967 c 0,57,58
 10 1965 10 1965 8 1965 c 0,59,60
 5 1965 5 1965 5 1967 c 0,61,62
 5 1970 5 1970 8 1970 c 0,55,56
EndSplineSet
Validated: 1
EndChar

StartChar: C
Encoding: 67 67 38
Width: 572
Flags: W
LayerCount: 2
Fore
SplineSet
-43 2257 m 1,0,1
 26 2257 26 2257 103 2255 c 128,-1,2
 180 2253 180 2253 242 2244 c 1,3,4
 285 2244 285 2244 337 2074.5 c 128,-1,5
 389 1905 389 1905 461 1777 c 0,6,7
 485 1734 485 1734 506 1729 c 1,8,9
 525 1723 525 1723 535 1708 c 128,-1,10
 545 1693 545 1693 515 1681 c 1,11,12
 443 1669 443 1669 370.5 1670.5 c 128,-1,13
 298 1672 298 1672 232 1681 c 1,14,15
 170 1706 170 1706 130 1838.5 c 128,-1,16
 90 1971 90 1971 18 2148 c 1,17,18
 12 2158 12 2158 -6 2175.5 c 128,-1,19
 -24 2193 -24 2193 -50 2198 c 0,20,21
 -83 2204 -83 2204 -87 2230 c 128,-1,22
 -91 2256 -91 2256 -43 2257 c 1,0,1
EndSplineSet
Validated: 33
EndChar

StartChar: D
Encoding: 68 68 39
Width: 2801
Flags: W
LayerCount: 2
Fore
SplineSet
157 2910.5 m 128,-1,1
 167 2926 167 2926 179 2927.5 c 128,-1,2
 191 2929 191 2929 205.5 2920.5 c 128,-1,3
 220 2912 220 2912 240.5 2901.5 c 128,-1,4
 261 2891 261 2891 294 2884.5 c 128,-1,5
 327 2878 327 2878 386 2878 c 2,6,-1
 2309 2878 l 2,7,8
 2364 2878 2364 2878 2408 2869 c 128,-1,9
 2452 2860 2452 2860 2489 2840.5 c 128,-1,10
 2526 2821 2526 2821 2546 2805.5 c 128,-1,11
 2566 2790 2566 2790 2601.5 2753.5 c 128,-1,12
 2637 2717 2637 2717 2662 2681.5 c 128,-1,13
 2687 2646 2687 2646 2672 2614 c 1,14,15
 2657 2590 2657 2590 2637 2603.5 c 128,-1,16
 2617 2617 2617 2617 2589.5 2627 c 128,-1,17
 2562 2637 2562 2637 2530 2640.5 c 128,-1,18
 2498 2644 2498 2644 2432 2644 c 2,19,-1
 537 2644 l 1,20,21
 492 2645 492 2645 456 2651 c 128,-1,22
 420 2657 420 2657 399.5 2663.5 c 128,-1,23
 379 2670 379 2670 356.5 2681 c 128,-1,24
 334 2692 334 2692 308 2709 c 128,-1,25
 282 2726 282 2726 253 2756 c 128,-1,26
 224 2786 224 2786 193.5 2825 c 128,-1,27
 163 2864 163 2864 155 2879.5 c 128,-1,0
 147 2895 147 2895 157 2910.5 c 128,-1,1
1967 2361 m 1,28,29
 2045 2390 2045 2390 2230 2358 c 1,30,31
 2338 2330 2338 2330 2421.5 2285 c 128,-1,32
 2505 2240 2505 2240 2550 2127 c 1,33,34
 2580 2018 2580 2018 2570 1953.5 c 128,-1,35
 2560 1889 2560 1889 2498 1804 c 1,36,37
 2439 1733 2439 1733 2360 1696.5 c 128,-1,38
 2281 1660 2281 1660 2166 1636 c 1,39,40
 2052 1614 2052 1614 1980 1614.5 c 128,-1,41
 1908 1615 1908 1615 1825 1618 c 1,42,43
 1743 1622 1743 1622 1672.5 1631.5 c 128,-1,44
 1602 1641 1602 1641 1502 1672 c 1,45,46
 1336 1718 1336 1718 1174 1797 c 0,47,48
 1083 1842 1083 1842 981.5 1894 c 128,-1,49
 880 1946 880 1946 755 2017 c 1,50,51
 697 2052 697 2052 629.5 2091.5 c 128,-1,52
 562 2131 562 2131 483 2173 c 1,53,54
 423 2210 423 2210 365.5 2247.5 c 128,-1,55
 308 2285 308 2285 317 2323 c 128,-1,56
 326 2361 326 2361 361 2359 c 128,-1,57
 396 2357 396 2357 580.5 2360.5 c 128,-1,58
 765 2364 765 2364 903 2361 c 1,59,60
 958 2321 958 2321 901.5 2303 c 128,-1,61
 845 2285 845 2285 818 2258 c 0,62,63
 767 2205 767 2205 772.5 2174 c 128,-1,64
 778 2143 778 2143 789 2125.5 c 128,-1,65
 800 2108 800 2108 822.5 2088 c 128,-1,66
 845 2068 845 2068 934 2007 c 128,-1,67
 1023 1946 1023 1946 1155 1878 c 1,68,69
 1273 1826 1273 1826 1341 1793.5 c 128,-1,70
 1409 1761 1409 1761 1561 1720 c 1,71,72
 1674 1698 1674 1698 1790.5 1693 c 128,-1,73
 1907 1688 1907 1688 2027 1727 c 1,74,75
 2111 1764 2111 1764 2145.5 1790 c 128,-1,76
 2180 1816 2180 1816 2222 1880 c 1,77,78
 2259 1942 2259 1942 2264.5 1984.5 c 128,-1,79
 2270 2027 2270 2027 2266 2083 c 1,80,81
 2263 2140 2263 2140 2252 2165.5 c 128,-1,82
 2241 2191 2241 2191 2223 2217.5 c 128,-1,83
 2205 2244 2205 2244 2177.5 2265.5 c 128,-1,84
 2150 2287 2150 2287 2093 2296 c 128,-1,85
 2036 2305 2036 2305 1980 2311 c 1,86,87
 1956 2316 1956 2316 1949.5 2331.5 c 128,-1,88
 1943 2347 1943 2347 1967 2361 c 1,28,29
EndSplineSet
Validated: 33
EndChar

StartChar: E
Encoding: 69 69 40
Width: 38
Flags: W
LayerCount: 2
Fore
SplineSet
-1633 1519 m 1,0,1
 -1482 1520 -1482 1520 -1329.5 1520.5 c 128,-1,2
 -1177 1521 -1177 1521 -1027 1524 c 1,3,4
 -1016 1510 -1016 1510 -1018 1487 c 128,-1,5
 -1020 1464 -1020 1464 -1026 1449 c 1,6,7
 -1056 1442 -1056 1442 -1227 1442.5 c 128,-1,8
 -1398 1443 -1398 1443 -1524 1443 c 1,9,10
 -1524 1337 -1524 1337 -1519.5 1204 c 128,-1,11
 -1515 1071 -1515 1071 -1527 1069 c 1,12,13
 -1557 1069 -1557 1069 -1593 1064.5 c 128,-1,14
 -1629 1060 -1629 1060 -1655 1069 c 1,15,16
 -1659 1069 -1659 1069 -1659 1090 c 0,17,18
 -1659 1091 -1659 1091 -1657 1092 c 128,-1,19
 -1655 1093 -1655 1093 -1655 1095 c 0,20,21
 -1655 1203 -1655 1203 -1653.5 1291 c 128,-1,22
 -1652 1379 -1652 1379 -1652 1488 c 0,23,24
 -1652 1516 -1652 1516 -1633 1519 c 1,0,1
35 1940 m 1,25,26
 37 1940 37 1940 37 1938 c 256,27,28
 37 1936 37 1936 35 1936 c 1,29,30
 35 1936 35 1936 34.5 1936.5 c 128,-1,31
 34 1937 34 1937 34 1938 c 2,32,33
 34 1938 34 1938 34.5 1939 c 128,-1,34
 35 1940 35 1940 35 1940 c 1,25,26
EndSplineSet
Validated: 33
EndChar

StartChar: F
Encoding: 70 70 41
Width: 2533
Flags: W
LayerCount: 2
Fore
SplineSet
926 3039 m 1,0,1
 996 3039 996 3039 1073 3037 c 128,-1,2
 1150 3035 1150 3035 1212 3025 c 1,3,4
 1255 3025 1255 3025 1307 2855.5 c 128,-1,5
 1359 2686 1359 2686 1431 2559 c 0,6,7
 1454 2517 1454 2517 1476 2510 c 0,8,9
 1495 2504 1495 2504 1505 2489 c 128,-1,10
 1515 2474 1515 2474 1485 2462 c 1,11,12
 1413 2450 1413 2450 1340.5 2451.5 c 128,-1,13
 1268 2453 1268 2453 1202 2462 c 1,14,15
 1140 2487 1140 2487 1100 2619.5 c 128,-1,16
 1060 2752 1060 2752 988 2929 c 1,17,18
 982 2939 982 2939 963 2956.5 c 128,-1,19
 944 2974 944 2974 919 2979 c 0,20,21
 886 2985 886 2985 881.5 3011 c 128,-1,22
 877 3037 877 3037 926 3039 c 1,0,1
1801 2361 m 1,23,24
 1879 2390 1879 2390 2064 2358 c 1,25,26
 2172 2330 2172 2330 2255.5 2285 c 128,-1,27
 2339 2240 2339 2240 2384 2127 c 1,28,29
 2414 2018 2414 2018 2404 1953.5 c 128,-1,30
 2394 1889 2394 1889 2332 1804 c 1,31,32
 2273 1733 2273 1733 2194 1696.5 c 128,-1,33
 2115 1660 2115 1660 2000 1636 c 1,34,35
 1886 1614 1886 1614 1814 1614.5 c 128,-1,36
 1742 1615 1742 1615 1659 1618 c 1,37,38
 1577 1622 1577 1622 1506.5 1631.5 c 128,-1,39
 1436 1641 1436 1641 1336 1672 c 1,40,41
 1170 1718 1170 1718 1008 1797 c 0,42,43
 917 1842 917 1842 815.5 1894 c 128,-1,44
 714 1946 714 1946 589 2017 c 1,45,46
 531 2052 531 2052 463.5 2091.5 c 128,-1,47
 396 2131 396 2131 317 2173 c 1,48,49
 257 2210 257 2210 199.5 2247.5 c 128,-1,50
 142 2285 142 2285 151 2323 c 128,-1,51
 160 2361 160 2361 195 2359 c 128,-1,52
 230 2357 230 2357 414.5 2360.5 c 128,-1,53
 599 2364 599 2364 737 2361 c 1,54,55
 792 2321 792 2321 735.5 2303 c 128,-1,56
 679 2285 679 2285 652 2258 c 0,57,58
 601 2205 601 2205 606.5 2174 c 128,-1,59
 612 2143 612 2143 623 2125.5 c 128,-1,60
 634 2108 634 2108 656.5 2088 c 128,-1,61
 679 2068 679 2068 768 2007 c 128,-1,62
 857 1946 857 1946 989 1878 c 1,63,64
 1107 1826 1107 1826 1175 1793.5 c 128,-1,65
 1243 1761 1243 1761 1395 1720 c 1,66,67
 1508 1698 1508 1698 1624.5 1693 c 128,-1,68
 1741 1688 1741 1688 1861 1727 c 1,69,70
 1945 1764 1945 1764 1979.5 1790 c 128,-1,71
 2014 1816 2014 1816 2056 1880 c 1,72,73
 2093 1942 2093 1942 2098.5 1984.5 c 128,-1,74
 2104 2027 2104 2027 2100 2083 c 1,75,76
 2097 2140 2097 2140 2086 2165.5 c 128,-1,77
 2075 2191 2075 2191 2057 2217.5 c 128,-1,78
 2039 2244 2039 2244 2011.5 2265.5 c 128,-1,79
 1984 2287 1984 2287 1927 2296 c 128,-1,80
 1870 2305 1870 2305 1814 2311 c 1,81,82
 1790 2316 1790 2316 1783.5 2331.5 c 128,-1,83
 1777 2347 1777 2347 1801 2361 c 1,23,24
EndSplineSet
Validated: 33
EndChar

StartChar: G
Encoding: 71 71 42
Width: 2532
Flags: W
LayerCount: 2
Fore
SplineSet
1801 2361 m 1,0,1
 1879 2390 1879 2390 2064 2358 c 1,2,3
 2172 2330 2172 2330 2255.5 2285 c 128,-1,4
 2339 2240 2339 2240 2384 2127 c 1,5,6
 2414 2018 2414 2018 2404 1953.5 c 128,-1,7
 2394 1889 2394 1889 2332 1804 c 1,8,9
 2273 1733 2273 1733 2194 1696.5 c 128,-1,10
 2115 1660 2115 1660 2000 1636 c 1,11,12
 1886 1614 1886 1614 1814 1614.5 c 128,-1,13
 1742 1615 1742 1615 1659 1618 c 1,14,15
 1577 1622 1577 1622 1506.5 1631.5 c 128,-1,16
 1436 1641 1436 1641 1336 1672 c 1,17,18
 1170 1718 1170 1718 1008 1797 c 0,19,20
 917 1842 917 1842 815.5 1894 c 128,-1,21
 714 1946 714 1946 589 2017 c 1,22,23
 531 2052 531 2052 463.5 2091.5 c 128,-1,24
 396 2131 396 2131 317 2173 c 1,25,26
 257 2210 257 2210 199.5 2247.5 c 128,-1,27
 142 2285 142 2285 151 2323 c 128,-1,28
 160 2361 160 2361 195 2359 c 128,-1,29
 230 2357 230 2357 414.5 2360.5 c 128,-1,30
 599 2364 599 2364 737 2361 c 1,31,32
 792 2321 792 2321 735.5 2303 c 128,-1,33
 679 2285 679 2285 652 2258 c 0,34,35
 601 2205 601 2205 606.5 2174 c 128,-1,36
 612 2143 612 2143 623 2125.5 c 128,-1,37
 634 2108 634 2108 656.5 2088 c 128,-1,38
 679 2068 679 2068 768 2007 c 128,-1,39
 857 1946 857 1946 989 1878 c 1,40,41
 1107 1826 1107 1826 1175 1793.5 c 128,-1,42
 1243 1761 1243 1761 1395 1720 c 1,43,44
 1508 1698 1508 1698 1624.5 1693 c 128,-1,45
 1741 1688 1741 1688 1861 1727 c 1,46,47
 1945 1764 1945 1764 1979.5 1790 c 128,-1,48
 2014 1816 2014 1816 2056 1880 c 1,49,50
 2093 1942 2093 1942 2098.5 1984.5 c 128,-1,51
 2104 2027 2104 2027 2100 2083 c 1,52,53
 2097 2140 2097 2140 2086 2165.5 c 128,-1,54
 2075 2191 2075 2191 2057 2217.5 c 128,-1,55
 2039 2244 2039 2244 2011.5 2265.5 c 128,-1,56
 1984 2287 1984 2287 1927 2296 c 128,-1,57
 1870 2305 1870 2305 1814 2311 c 1,58,59
 1790 2316 1790 2316 1783.5 2331.5 c 128,-1,60
 1777 2347 1777 2347 1801 2361 c 1,0,1
2554 3851 m 1,61,62
 2586 3845 2586 3845 2582 3818.5 c 128,-1,63
 2578 3792 2578 3792 2542 3789 c 1,64,65
 2502 3775 2502 3775 2476.5 3685.5 c 128,-1,66
 2451 3596 2451 3596 2423 3497 c 0,67,68
 2357 3264 2357 3264 2302 3119 c 128,-1,69
 2247 2974 2247 2974 2198 2916.5 c 128,-1,70
 2149 2859 2149 2859 2080 2829 c 0,71,72
 1974 2783 1974 2783 1871.5 2761 c 128,-1,73
 1769 2739 1769 2739 1693 2739 c 1,74,75
 1731 2651 1731 2651 1818.5 2617 c 128,-1,76
 1906 2583 1906 2583 1869 2543 c 1,77,78
 1847 2521 1847 2521 1733.5 2599.5 c 128,-1,79
 1620 2678 1620 2678 1578 2755 c 1,80,81
 1578 2803 1578 2803 1617.5 2795 c 128,-1,82
 1657 2787 1657 2787 1703 2784 c 256,83,84
 1749 2781 1749 2781 1796.5 2789 c 128,-1,85
 1844 2797 1844 2797 1924 2838 c 0,86,87
 1964 2858 1964 2858 1998.5 2927 c 128,-1,88
 2033 2996 2033 2996 2061.5 3080.5 c 128,-1,89
 2090 3165 2090 3165 2109.5 3248 c 128,-1,90
 2129 3331 2129 3331 2160.5 3487 c 128,-1,91
 2192 3643 2192 3643 2215 3696 c 128,-1,92
 2238 3749 2238 3749 2280 3782 c 128,-1,93
 2322 3815 2322 3815 2360.5 3824.5 c 128,-1,94
 2399 3834 2399 3834 2445.5 3838.5 c 128,-1,95
 2492 3843 2492 3843 2554 3851 c 1,61,62
EndSplineSet
Validated: 33
EndChar

StartChar: H
Encoding: 72 72 43
Width: 3101
Flags: W
LayerCount: 2
Fore
SplineSet
503 2441 m 1,0,1
 483 2456 483 2456 500.5 2469.5 c 128,-1,2
 518 2483 518 2483 544 2483 c 0,3,4
 573 2483 573 2483 624 2534.5 c 128,-1,5
 675 2586 675 2586 692 2662 c 1,6,7
 718 2790 718 2790 558 2871 c 0,8,9
 438 2931 438 2931 232.5 2963 c 128,-1,10
 27 2995 27 2995 4 3004 c 256,11,12
 -19 3013 -19 3013 -13 3029.5 c 128,-1,13
 -7 3046 -7 3046 11 3046 c 0,14,15
 30 3046 30 3046 239 3016 c 128,-1,16
 448 2986 448 2986 620 2920 c 0,17,18
 722 2880 722 2880 784 2839 c 128,-1,19
 846 2798 846 2798 898 2730 c 1,20,21
 949 2661 949 2661 940.5 2592.5 c 128,-1,22
 932 2524 932 2524 881 2487 c 0,23,24
 834 2452 834 2452 773.5 2439.5 c 128,-1,25
 713 2427 713 2427 658 2427 c 0,26,27
 602 2427 602 2427 580 2427.5 c 128,-1,28
 558 2428 558 2428 503 2441 c 1,0,1
2521 2281 m 1,29,30
 2592 2307 2592 2307 2760 2278 c 1,31,32
 2858 2254 2858 2254 2934 2213 c 128,-1,33
 3010 2172 3010 2172 3051 2069 c 1,34,35
 3078 1970 3078 1970 3069 1911.5 c 128,-1,36
 3060 1853 3060 1853 3004 1775 c 1,37,38
 2950 1711 2950 1711 2878.5 1677 c 128,-1,39
 2807 1643 2807 1643 2702 1622 c 0,40,41
 2599 1601 2599 1601 2533.5 1601.5 c 128,-1,42
 2468 1602 2468 1602 2392 1605 c 0,43,44
 2318 1608 2318 1608 2253.5 1617 c 128,-1,45
 2189 1626 2189 1626 2098 1654 c 1,46,47
 1947 1696 1947 1696 1800 1767 c 0,48,49
 1717 1808 1717 1808 1625 1855.5 c 128,-1,50
 1533 1903 1533 1903 1419 1967 c 1,51,52
 1366 1999 1366 1999 1304.5 2035 c 128,-1,53
 1243 2071 1243 2071 1172 2108 c 1,54,55
 1117 2141 1117 2141 1064.5 2175.5 c 128,-1,56
 1012 2210 1012 2210 1020.5 2244.5 c 128,-1,57
 1029 2279 1029 2279 1060.5 2277 c 128,-1,58
 1092 2275 1092 2275 1260 2279 c 128,-1,59
 1428 2283 1428 2283 1553 2280 c 1,60,61
 1603 2244 1603 2244 1552 2227.5 c 128,-1,62
 1501 2211 1501 2211 1476 2186 c 0,63,64
 1430 2138 1430 2138 1435 2110 c 128,-1,65
 1440 2082 1440 2082 1449.5 2066 c 128,-1,66
 1459 2050 1459 2050 1480 2031.5 c 128,-1,67
 1501 2013 1501 2013 1582 1958 c 128,-1,68
 1663 1903 1663 1903 1783 1841 c 1,69,70
 1890 1794 1890 1794 1952 1764.5 c 128,-1,71
 2014 1735 2014 1735 2152 1697 c 1,72,73
 2255 1678 2255 1678 2361 1673.5 c 128,-1,74
 2467 1669 2467 1669 2576 1704 c 1,75,76
 2652 1738 2652 1738 2683.5 1761.5 c 128,-1,77
 2715 1785 2715 1785 2753 1843 c 1,78,79
 2786 1900 2786 1900 2791 1938.5 c 128,-1,80
 2796 1977 2796 1977 2793 2028 c 0,81,82
 2790 2080 2790 2080 2780 2103 c 128,-1,83
 2770 2126 2770 2126 2753.5 2150 c 128,-1,84
 2737 2174 2737 2174 2712 2194 c 128,-1,85
 2687 2214 2687 2214 2635 2222 c 128,-1,86
 2583 2230 2583 2230 2533 2235 c 1,87,88
 2511 2240 2511 2240 2505 2254 c 128,-1,89
 2499 2268 2499 2268 2521 2281 c 1,29,30
1526 2416 m 1,90,91
 1455 2389 1455 2389 1287 2418 c 1,92,93
 1189 2443 1189 2443 1113 2484 c 128,-1,94
 1037 2525 1037 2525 996 2628 c 1,95,96
 969 2727 969 2727 978 2785.5 c 128,-1,97
 987 2844 987 2844 1043 2921 c 1,98,99
 1097 2986 1097 2986 1169 3019.5 c 128,-1,100
 1241 3053 1241 3053 1345 3075 c 1,101,102
 1449 3095 1449 3095 1514.5 3094.5 c 128,-1,103
 1580 3094 1580 3094 1655 3091 c 256,104,105
 1730 3088 1730 3088 1794 3079 c 128,-1,106
 1858 3070 1858 3070 1949 3042 c 1,107,108
 2100 3000 2100 3000 2247 2929 c 0,109,110
 2330 2888 2330 2888 2422 2840.5 c 128,-1,111
 2514 2793 2514 2793 2628 2728 c 0,112,113
 2681 2697 2681 2697 2742 2661 c 128,-1,114
 2803 2625 2803 2625 2875 2588 c 1,115,116
 2930 2554 2930 2554 2982 2520 c 128,-1,117
 3034 2486 3034 2486 3026 2451.5 c 128,-1,118
 3018 2417 3018 2417 2986 2418.5 c 128,-1,119
 2954 2420 2954 2420 2786.5 2416.5 c 128,-1,120
 2619 2413 2619 2413 2493 2416 c 1,121,122
 2443 2452 2443 2452 2494.5 2468.5 c 128,-1,123
 2546 2485 2546 2485 2571 2509 c 1,124,125
 2617 2558 2617 2558 2612 2586 c 128,-1,126
 2607 2614 2607 2614 2597.5 2630 c 128,-1,127
 2588 2646 2588 2646 2567 2664 c 128,-1,128
 2546 2682 2546 2682 2465 2737.5 c 128,-1,129
 2384 2793 2384 2793 2264 2855 c 1,130,131
 2157 2902 2157 2902 2095 2931.5 c 128,-1,132
 2033 2961 2033 2961 1895 2999 c 1,133,134
 1792 3019 1792 3019 1686.5 3023.5 c 128,-1,135
 1581 3028 1581 3028 1471 2992 c 1,136,137
 1395 2959 1395 2959 1363.5 2935 c 128,-1,138
 1332 2911 1332 2911 1294 2853 c 1,139,140
 1261 2797 1261 2797 1256 2758 c 128,-1,141
 1251 2719 1251 2719 1254 2668 c 256,142,143
 1257 2617 1257 2617 1267 2593.5 c 128,-1,144
 1277 2570 1277 2570 1293.5 2546 c 128,-1,145
 1310 2522 1310 2522 1335 2502.5 c 128,-1,146
 1360 2483 1360 2483 1411.5 2475 c 128,-1,147
 1463 2467 1463 2467 1514 2461 c 1,148,149
 1536 2457 1536 2457 1542 2442.5 c 128,-1,150
 1548 2428 1548 2428 1526 2416 c 1,90,91
EndSplineSet
Validated: 33
EndChar

StartChar: I
Encoding: 73 73 44
Width: 10
Flags: W
LayerCount: 2
Fore
SplineSet
8 1970 m 0,0,1
 10 1970 10 1970 10 1967 c 0,2,3
 10 1965 10 1965 8 1965 c 0,4,5
 5 1965 5 1965 5 1967 c 0,6,7
 5 1970 5 1970 8 1970 c 0,0,1
-1867 1537 m 0,8,9
 -1850 1529 -1850 1529 -1830 1514.5 c 128,-1,10
 -1810 1500 -1810 1500 -1797 1491 c 0,11,12
 -1719 1436 -1719 1436 -1657 1398 c 128,-1,13
 -1595 1360 -1595 1360 -1508 1343 c 0,14,15
 -1466 1335 -1466 1335 -1416.5 1338.5 c 128,-1,16
 -1367 1342 -1367 1342 -1348 1350 c 1,17,18
 -1294 1368 -1294 1368 -1288.5 1416 c 128,-1,19
 -1283 1464 -1283 1464 -1300 1494 c 0,20,21
 -1311 1514 -1311 1514 -1308 1538.5 c 128,-1,22
 -1305 1563 -1305 1563 -1283 1568 c 1,23,24
 -1184 1559 -1184 1559 -1118.5 1508.5 c 128,-1,25
 -1053 1458 -1053 1458 -1046 1414 c 1,26,-1
 -1044 1394 l 1,27,28
 -1045 1364 -1045 1364 -1080.5 1316 c 128,-1,29
 -1116 1268 -1116 1268 -1192 1250 c 0,30,31
 -1370 1208 -1370 1208 -1546 1277 c 0,32,33
 -1643 1315 -1643 1315 -1736.5 1365 c 128,-1,34
 -1830 1415 -1830 1415 -1905 1475 c 0,35,36
 -1929 1494 -1929 1494 -1915.5 1523.5 c 128,-1,37
 -1902 1553 -1902 1553 -1867 1537 c 0,8,9
EndSplineSet
Validated: 33
EndChar

StartChar: J
Encoding: 74 74 45
Width: 2533
Flags: W
LayerCount: 2
Fore
SplineSet
1090 2289 m 1,0,1
 1067 2307 1067 2307 1087.5 2322.5 c 128,-1,2
 1108 2338 1108 2338 1138 2338 c 0,3,4
 1171 2338 1171 2338 1231.5 2398 c 128,-1,5
 1292 2458 1292 2458 1311 2547 c 0,6,7
 1342 2698 1342 2698 1154 2791 c 0,8,9
 1083 2826 1083 2826 973.5 2853.5 c 128,-1,10
 864 2881 864 2881 758 2901.5 c 128,-1,11
 652 2922 652 2922 570.5 2934.5 c 128,-1,12
 489 2947 489 2947 476 2953 c 0,13,14
 448 2964 448 2964 454.5 2983 c 128,-1,15
 461 3002 461 3002 485 3002 c 1,16,17
 496 3001 496 3001 575.5 2992 c 128,-1,18
 655 2983 655 2983 766 2964 c 128,-1,19
 877 2945 877 2945 1001.5 2916.5 c 128,-1,20
 1126 2888 1126 2888 1227 2849 c 1,21,22
 1347 2801 1347 2801 1419 2753.5 c 128,-1,23
 1491 2706 1491 2706 1551 2627 c 1,24,25
 1611 2546 1611 2546 1601.5 2466 c 128,-1,26
 1592 2386 1592 2386 1532 2342 c 1,27,28
 1478 2301 1478 2301 1406.5 2287 c 128,-1,29
 1335 2273 1335 2273 1271 2273 c 0,30,31
 1206 2273 1206 2273 1180.5 2273.5 c 128,-1,32
 1155 2274 1155 2274 1090 2289 c 1,0,1
1801 2361 m 1,33,34
 1879 2390 1879 2390 2064 2358 c 1,35,36
 2172 2330 2172 2330 2255.5 2285 c 128,-1,37
 2339 2240 2339 2240 2384 2127 c 1,38,39
 2414 2018 2414 2018 2404 1953.5 c 128,-1,40
 2394 1889 2394 1889 2332 1804 c 1,41,42
 2273 1733 2273 1733 2194 1696.5 c 128,-1,43
 2115 1660 2115 1660 2000 1636 c 1,44,45
 1886 1614 1886 1614 1814 1614.5 c 128,-1,46
 1742 1615 1742 1615 1659 1618 c 1,47,48
 1577 1622 1577 1622 1506.5 1631.5 c 128,-1,49
 1436 1641 1436 1641 1336 1672 c 1,50,51
 1170 1718 1170 1718 1008 1797 c 0,52,53
 917 1842 917 1842 815.5 1894 c 128,-1,54
 714 1946 714 1946 589 2017 c 1,55,56
 531 2052 531 2052 463.5 2091.5 c 128,-1,57
 396 2131 396 2131 317 2173 c 1,58,59
 257 2210 257 2210 199.5 2247.5 c 128,-1,60
 142 2285 142 2285 151 2323 c 128,-1,61
 160 2361 160 2361 195 2359 c 128,-1,62
 230 2357 230 2357 414.5 2360.5 c 128,-1,63
 599 2364 599 2364 737 2361 c 1,64,65
 792 2321 792 2321 735.5 2303 c 128,-1,66
 679 2285 679 2285 652 2258 c 0,67,68
 601 2205 601 2205 606.5 2174 c 128,-1,69
 612 2143 612 2143 623 2125.5 c 128,-1,70
 634 2108 634 2108 656.5 2088 c 128,-1,71
 679 2068 679 2068 768 2007 c 128,-1,72
 857 1946 857 1946 989 1878 c 1,73,74
 1107 1826 1107 1826 1175 1793.5 c 128,-1,75
 1243 1761 1243 1761 1395 1720 c 1,76,77
 1508 1698 1508 1698 1624.5 1693 c 128,-1,78
 1741 1688 1741 1688 1861 1727 c 1,79,80
 1945 1764 1945 1764 1979.5 1790 c 128,-1,81
 2014 1816 2014 1816 2056 1880 c 1,82,83
 2093 1942 2093 1942 2098.5 1984.5 c 128,-1,84
 2104 2027 2104 2027 2100 2083 c 1,85,86
 2097 2140 2097 2140 2086 2165.5 c 128,-1,87
 2075 2191 2075 2191 2057 2217.5 c 128,-1,88
 2039 2244 2039 2244 2011.5 2265.5 c 128,-1,89
 1984 2287 1984 2287 1927 2296 c 128,-1,90
 1870 2305 1870 2305 1814 2311 c 1,91,92
 1790 2316 1790 2316 1783.5 2331.5 c 128,-1,93
 1777 2347 1777 2347 1801 2361 c 1,33,34
EndSplineSet
Validated: 33
EndChar

StartChar: K
Encoding: 75 75 46
Width: 2545
Flags: W
LayerCount: 2
Fore
SplineSet
767 2559 m 1,0,1
 689 2530 689 2530 504 2562 c 1,2,3
 396 2589 396 2589 312.5 2634 c 128,-1,4
 229 2679 229 2679 184 2792 c 1,5,6
 154 2901 154 2901 164 2965.5 c 128,-1,7
 174 3030 174 3030 236 3115 c 1,8,9
 295 3186 295 3186 374 3223 c 128,-1,10
 453 3260 453 3260 568 3284 c 1,11,12
 682 3306 682 3306 754 3305.5 c 128,-1,13
 826 3305 826 3305 909 3302 c 1,14,15
 991 3298 991 3298 1061.5 3288.5 c 128,-1,16
 1132 3279 1132 3279 1232 3248 c 1,17,18
 1398 3202 1398 3202 1560 3123 c 0,19,20
 1651 3078 1651 3078 1752.5 3026 c 128,-1,21
 1854 2974 1854 2974 1979 2903 c 1,22,23
 2037 2868 2037 2868 2104.5 2828.5 c 128,-1,24
 2172 2789 2172 2789 2251 2748 c 1,25,26
 2311 2711 2311 2711 2368.5 2673.5 c 128,-1,27
 2426 2636 2426 2636 2417 2598 c 128,-1,28
 2408 2560 2408 2560 2373 2562 c 128,-1,29
 2338 2564 2338 2564 2153.5 2560 c 128,-1,30
 1969 2556 1969 2556 1831 2559 c 1,31,32
 1776 2599 1776 2599 1832.5 2617 c 128,-1,33
 1889 2635 1889 2635 1916 2662 c 0,34,35
 1967 2715 1967 2715 1961.5 2746 c 128,-1,36
 1956 2777 1956 2777 1945 2794.5 c 128,-1,37
 1934 2812 1934 2812 1911.5 2832 c 128,-1,38
 1889 2852 1889 2852 1800 2913 c 128,-1,39
 1711 2974 1711 2974 1579 3042 c 1,40,41
 1461 3094 1461 3094 1393 3126.5 c 128,-1,42
 1325 3159 1325 3159 1173 3200 c 1,43,44
 1060 3222 1060 3222 943.5 3227 c 128,-1,45
 827 3232 827 3232 707 3193 c 1,46,47
 623 3156 623 3156 588.5 3130 c 128,-1,48
 554 3104 554 3104 512 3040 c 1,49,50
 475 2978 475 2978 469.5 2935.5 c 128,-1,51
 464 2893 464 2893 468 2837 c 1,52,53
 471 2780 471 2780 482 2754.5 c 128,-1,54
 493 2729 493 2729 511 2702.5 c 128,-1,55
 529 2676 529 2676 556.5 2654.5 c 128,-1,56
 584 2633 584 2633 641 2624 c 128,-1,57
 698 2615 698 2615 754 2609 c 1,58,59
 778 2604 778 2604 784.5 2588.5 c 128,-1,60
 791 2573 791 2573 767 2559 c 1,0,1
1813 2361 m 1,61,62
 1891 2390 1891 2390 2076 2358 c 1,63,64
 2184 2331 2184 2331 2267.5 2286 c 128,-1,65
 2351 2241 2351 2241 2396 2128 c 1,66,67
 2426 2018 2426 2018 2416 1954 c 128,-1,68
 2406 1890 2406 1890 2344 1805 c 1,69,70
 2285 1734 2285 1734 2206 1697 c 128,-1,71
 2127 1660 2127 1660 2012 1636 c 1,72,73
 1898 1614 1898 1614 1826 1614.5 c 128,-1,74
 1754 1615 1754 1615 1671 1618 c 1,75,76
 1589 1622 1589 1622 1518.5 1631.5 c 128,-1,77
 1448 1641 1448 1641 1348 1672 c 1,78,79
 1182 1718 1182 1718 1020 1797 c 0,80,81
 929 1842 929 1842 827.5 1894 c 128,-1,82
 726 1946 726 1946 601 2017 c 1,83,84
 543 2052 543 2052 475.5 2091.5 c 128,-1,85
 408 2131 408 2131 329 2172 c 1,86,87
 269 2209 269 2209 211.5 2247 c 128,-1,88
 154 2285 154 2285 163 2322.5 c 128,-1,89
 172 2360 172 2360 207 2358 c 128,-1,90
 242 2356 242 2356 426.5 2360 c 128,-1,91
 611 2364 611 2364 749 2361 c 1,92,93
 804 2321 804 2321 747.5 2303 c 128,-1,94
 691 2285 691 2285 664 2258 c 0,95,96
 613 2205 613 2205 618.5 2174 c 128,-1,97
 624 2143 624 2143 635 2125.5 c 128,-1,98
 646 2108 646 2108 668.5 2088 c 128,-1,99
 691 2068 691 2068 780 2007 c 128,-1,100
 869 1946 869 1946 1001 1878 c 1,101,102
 1119 1826 1119 1826 1187 1793.5 c 128,-1,103
 1255 1761 1255 1761 1407 1720 c 1,104,105
 1520 1698 1520 1698 1636.5 1693 c 128,-1,106
 1753 1688 1753 1688 1873 1727 c 1,107,108
 1957 1764 1957 1764 1991.5 1790 c 128,-1,109
 2026 1816 2026 1816 2068 1880 c 1,110,111
 2105 1942 2105 1942 2110.5 1984.5 c 128,-1,112
 2116 2027 2116 2027 2112 2083 c 1,113,114
 2109 2140 2109 2140 2098 2165.5 c 128,-1,115
 2087 2191 2087 2191 2069 2217.5 c 128,-1,116
 2051 2244 2051 2244 2023.5 2265.5 c 128,-1,117
 1996 2287 1996 2287 1939 2296 c 128,-1,118
 1882 2305 1882 2305 1826 2311 c 1,119,120
 1802 2316 1802 2316 1795.5 2331.5 c 128,-1,121
 1789 2347 1789 2347 1813 2361 c 1,61,62
EndSplineSet
Validated: 33
EndChar

StartChar: L
Encoding: 76 76 47
Width: 2547
Flags: W
LayerCount: 2
Fore
SplineSet
767 2549 m 1,0,1
 689 2520 689 2520 504 2552 c 1,2,3
 396 2579 396 2579 312.5 2624 c 128,-1,4
 229 2669 229 2669 184 2782 c 1,5,6
 154 2891 154 2891 164 2955.5 c 128,-1,7
 174 3020 174 3020 236 3105 c 1,8,9
 295 3176 295 3176 374 3213 c 128,-1,10
 453 3250 453 3250 568 3274 c 1,11,12
 682 3296 682 3296 754 3295.5 c 128,-1,13
 826 3295 826 3295 909 3292 c 1,14,15
 991 3288 991 3288 1061.5 3278.5 c 128,-1,16
 1132 3269 1132 3269 1232 3238 c 1,17,18
 1398 3192 1398 3192 1560 3113 c 0,19,20
 1651 3068 1651 3068 1752.5 3016 c 128,-1,21
 1854 2964 1854 2964 1979 2893 c 1,22,23
 2037 2858 2037 2858 2104.5 2818.5 c 128,-1,24
 2172 2779 2172 2779 2251 2738 c 1,25,26
 2311 2701 2311 2701 2368.5 2663.5 c 128,-1,27
 2426 2626 2426 2626 2417 2588 c 128,-1,28
 2408 2550 2408 2550 2373 2552 c 128,-1,29
 2338 2554 2338 2554 2153.5 2550 c 128,-1,30
 1969 2546 1969 2546 1831 2549 c 1,31,32
 1776 2589 1776 2589 1832.5 2607 c 128,-1,33
 1889 2625 1889 2625 1916 2652 c 0,34,35
 1967 2705 1967 2705 1961.5 2736 c 128,-1,36
 1956 2767 1956 2767 1945 2784.5 c 128,-1,37
 1934 2802 1934 2802 1911.5 2822 c 128,-1,38
 1889 2842 1889 2842 1800 2903 c 128,-1,39
 1711 2964 1711 2964 1579 3032 c 1,40,41
 1461 3084 1461 3084 1393 3116.5 c 128,-1,42
 1325 3149 1325 3149 1173 3190 c 1,43,44
 1060 3212 1060 3212 943.5 3217 c 128,-1,45
 827 3222 827 3222 707 3183 c 1,46,47
 623 3146 623 3146 588.5 3120 c 128,-1,48
 554 3094 554 3094 512 3030 c 1,49,50
 475 2968 475 2968 469.5 2925.5 c 128,-1,51
 464 2883 464 2883 468 2827 c 1,52,53
 471 2770 471 2770 482 2744.5 c 128,-1,54
 493 2719 493 2719 511 2692.5 c 128,-1,55
 529 2666 529 2666 556.5 2644.5 c 128,-1,56
 584 2623 584 2623 641 2614 c 128,-1,57
 698 2605 698 2605 754 2599 c 1,58,59
 778 2594 778 2594 784.5 2578.5 c 128,-1,60
 791 2563 791 2563 767 2549 c 1,0,1
1813 2361 m 1,61,62
 1891 2390 1891 2390 2076 2358 c 1,63,64
 2184 2330 2184 2330 2267.5 2285 c 128,-1,65
 2351 2240 2351 2240 2396 2127 c 1,66,67
 2426 2018 2426 2018 2416 1953.5 c 128,-1,68
 2406 1889 2406 1889 2344 1804 c 1,69,70
 2285 1733 2285 1733 2206 1696.5 c 128,-1,71
 2127 1660 2127 1660 2012 1636 c 1,72,73
 1898 1614 1898 1614 1826 1614.5 c 128,-1,74
 1754 1615 1754 1615 1671 1618 c 1,75,76
 1589 1622 1589 1622 1518.5 1631.5 c 128,-1,77
 1448 1641 1448 1641 1348 1672 c 1,78,79
 1182 1718 1182 1718 1020 1797 c 0,80,81
 929 1842 929 1842 827.5 1894 c 128,-1,82
 726 1946 726 1946 601 2017 c 1,83,84
 543 2052 543 2052 475.5 2091.5 c 128,-1,85
 408 2131 408 2131 329 2173 c 1,86,87
 269 2210 269 2210 211.5 2247.5 c 128,-1,88
 154 2285 154 2285 163 2323 c 128,-1,89
 172 2361 172 2361 207 2359 c 128,-1,90
 242 2357 242 2357 426.5 2360.5 c 128,-1,91
 611 2364 611 2364 749 2361 c 1,92,93
 804 2321 804 2321 747.5 2303 c 128,-1,94
 691 2285 691 2285 664 2258 c 0,95,96
 613 2205 613 2205 618.5 2174 c 128,-1,97
 624 2143 624 2143 635 2125.5 c 128,-1,98
 646 2108 646 2108 668.5 2088 c 128,-1,99
 691 2068 691 2068 780 2007 c 128,-1,100
 869 1946 869 1946 1001 1878 c 1,101,102
 1119 1826 1119 1826 1187 1793.5 c 128,-1,103
 1255 1761 1255 1761 1407 1720 c 1,104,105
 1520 1698 1520 1698 1636.5 1693 c 128,-1,106
 1753 1688 1753 1688 1873 1727 c 1,107,108
 1957 1764 1957 1764 1991.5 1790 c 128,-1,109
 2026 1816 2026 1816 2068 1880 c 1,110,111
 2105 1942 2105 1942 2110.5 1984.5 c 128,-1,112
 2116 2027 2116 2027 2112 2083 c 1,113,114
 2109 2140 2109 2140 2098 2165.5 c 128,-1,115
 2087 2191 2087 2191 2069 2217.5 c 128,-1,116
 2051 2244 2051 2244 2023.5 2265.5 c 128,-1,117
 1996 2287 1996 2287 1939 2296 c 128,-1,118
 1882 2305 1882 2305 1826 2311 c 1,119,120
 1802 2316 1802 2316 1795.5 2331.5 c 128,-1,121
 1789 2347 1789 2347 1813 2361 c 1,61,62
1189 2343 m 1,122,123
 1168 2360 1168 2360 1186.5 2374 c 128,-1,124
 1205 2388 1205 2388 1232 2388 c 0,125,126
 1262 2388 1262 2388 1316.5 2442 c 128,-1,127
 1371 2496 1371 2496 1389 2577 c 1,128,129
 1417 2713 1417 2713 1247 2799 c 1,130,131
 1182 2830 1182 2830 1083.5 2854.5 c 128,-1,132
 985 2879 985 2879 889 2898 c 128,-1,133
 793 2917 793 2917 719 2928 c 128,-1,134
 645 2939 645 2939 633 2945 c 1,135,136
 607 2955 607 2955 612.5 2972 c 128,-1,137
 618 2989 618 2989 640 2989 c 1,138,139
 651 2988 651 2988 723 2980 c 128,-1,140
 795 2972 795 2972 896 2955 c 128,-1,141
 997 2938 997 2938 1109 2912 c 128,-1,142
 1221 2886 1221 2886 1313 2850 c 0,143,144
 1421 2807 1421 2807 1486.5 2764 c 128,-1,145
 1552 2721 1552 2721 1606 2649 c 0,146,147
 1660 2576 1660 2576 1651.5 2503.5 c 128,-1,148
 1643 2431 1643 2431 1589 2391 c 0,149,150
 1539 2354 1539 2354 1474.5 2341.5 c 128,-1,151
 1410 2329 1410 2329 1352 2329 c 256,152,153
 1294 2329 1294 2329 1270.5 2329.5 c 128,-1,154
 1247 2330 1247 2330 1189 2343 c 1,122,123
EndSplineSet
Validated: 33
EndChar

StartChar: M
Encoding: 77 77 48
Width: 159
Flags: W
LayerCount: 2
Fore
SplineSet
-1596 1489 m 1,0,1
 -1442 1496 -1442 1496 -1334.5 1504 c 128,-1,2
 -1227 1512 -1227 1512 -1128.5 1517 c 128,-1,3
 -1030 1522 -1030 1522 -923 1524 c 128,-1,4
 -816 1526 -816 1526 -663 1522 c 0,5,6
 -397 1515 -397 1515 -157 1488 c 128,-1,7
 83 1461 83 1461 212 1432 c 0,8,9
 343 1403 343 1403 465.5 1342.5 c 128,-1,10
 588 1282 588 1282 597 1229 c 0,11,12
 605 1176 605 1176 589.5 1110 c 128,-1,13
 574 1044 574 1044 427 979 c 1,14,15
 324 957 324 957 192.5 942 c 128,-1,16
 61 927 61 927 -23 929 c 1,17,18
 -57 943 -57 943 -32 961.5 c 128,-1,19
 -7 980 -7 980 40 1009.5 c 128,-1,20
 87 1039 87 1039 138 1081.5 c 128,-1,21
 189 1124 189 1124 207 1186 c 0,22,23
 239 1299 239 1299 118 1354 c 128,-1,24
 -3 1409 -3 1409 -174 1430 c 128,-1,25
 -345 1451 -345 1451 -513 1451 c 128,-1,26
 -681 1451 -681 1451 -743 1454 c 0,27,28
 -872 1460 -872 1460 -1020.5 1453.5 c 128,-1,29
 -1169 1447 -1169 1447 -1295.5 1436.5 c 128,-1,30
 -1422 1426 -1422 1426 -1506 1416.5 c 128,-1,31
 -1590 1407 -1590 1407 -1590 1407 c 1,32,33
 -1623 1413 -1623 1413 -1624.5 1449 c 128,-1,34
 -1626 1485 -1626 1485 -1596 1489 c 1,0,1
EndSplineSet
Validated: 33
EndChar

StartChar: N
Encoding: 78 78 49
Width: 0
Flags: W
LayerCount: 2
Fore
SplineSet
-771 1241 m 1,0,-1
 -748 1265 l 1,1,-1
 -725 1292 l 1,2,3
 -703 1315 -703 1315 -681.5 1293.5 c 128,-1,4
 -660 1272 -660 1272 -683 1248 c 1,5,-1
 -732 1200 l 1,6,-1
 -635 1099 l 1,7,8
 -613 1081 -613 1081 -635 1062 c 128,-1,9
 -657 1043 -657 1043 -675 1062 c 2,10,-1
 -772 1162 l 1,11,-1
 -824 1112 l 1,12,-1
 -724 1010 l 1,13,14
 -703 991 -703 991 -725 972 c 128,-1,15
 -747 953 -747 953 -765 972 c 2,16,-1
 -863 1073 l 1,17,-1
 -925 1014 l 1,18,19
 -875 947 -875 947 -875 865 c 0,20,21
 -875 765 -875 765 -946 694.5 c 128,-1,22
 -1017 624 -1017 624 -1116 624 c 0,23,24
 -1216 624 -1216 624 -1287 694.5 c 128,-1,25
 -1358 765 -1358 765 -1358 865 c 0,26,27
 -1358 964 -1358 964 -1287 1035.5 c 128,-1,28
 -1216 1107 -1216 1107 -1116 1107 c 0,29,30
 -1029 1107 -1029 1107 -962 1051 c 1,31,-1
 -901 1112 l 1,32,-1
 -1003 1216 l 1,33,34
 -1023 1238 -1023 1238 -1001 1255.5 c 128,-1,35
 -979 1273 -979 1273 -962 1255 c 2,36,-1
 -862 1151 l 1,37,-1
 -812 1202 l 1,38,-1
 -913 1307 l 2,39,40
 -933 1327 -933 1327 -911.5 1345 c 128,-1,41
 -890 1363 -890 1363 -873 1345 c 2,42,-1
 -771 1241 l 1,0,-1
-1116 676 m 0,43,44
 -1037 676 -1037 676 -982 731.5 c 128,-1,45
 -927 787 -927 787 -927 865 c 256,46,47
 -927 943 -927 943 -982 999 c 128,-1,48
 -1037 1055 -1037 1055 -1116 1055 c 0,49,50
 -1194 1055 -1194 1055 -1249.5 999 c 128,-1,51
 -1305 943 -1305 943 -1305 865 c 256,52,53
 -1305 787 -1305 787 -1249.5 731.5 c 128,-1,54
 -1194 676 -1194 676 -1116 676 c 0,43,44
8 2080 m 0,55,56
 10 2080 10 2080 10 2077 c 0,57,58
 10 2075 10 2075 8 2075 c 0,59,60
 5 2075 5 2075 5 2077 c 0,61,62
 5 2080 5 2080 8 2080 c 0,55,56
EndSplineSet
Validated: 1
EndChar

StartChar: O
Encoding: 79 79 50
Width: 0
Flags: W
LayerCount: 2
Fore
SplineSet
402 1987 m 256,0,1
 404 1987 404 1987 404 1985 c 256,2,3
 404 1983 404 1983 402 1983 c 256,4,5
 400 1983 400 1983 400 1985 c 256,6,7
 400 1987 400 1987 402 1987 c 256,0,1
182 1850 m 257,8,9
 182 1850 182 1850 182 1850 c 129,-1,10
 182 1850 182 1850 182 1850 c 257,11,12
 182 1850 182 1850 182 1850 c 129,-1,13
 182 1850 182 1850 182 1850 c 257,14,15
 182 1850 182 1850 182 1850 c 129,-1,16
 182 1850 182 1850 182 1850 c 257,17,18
 182 1850 182 1850 182 1850 c 129,-1,19
 182 1850 182 1850 182 1850 c 257,8,9
962 2997 m 1,20,21
 964 3019 964 3019 994.5 3017.5 c 128,-1,22
 1025 3016 1025 3016 1027 2998 c 1,23,-1
 1027 2537 l 2,24,25
 1027 2512 1027 2512 1027 2512 c 1,26,27
 1015 2489 1015 2489 988.5 2492.5 c 128,-1,28
 962 2496 962 2496 962 2512 c 2,29,-1
 962 2973 l 2,30,31
 962 2997 962 2997 962 2997 c 1,20,21
EndSplineSet
Validated: 5
EndChar

StartChar: P
Encoding: 80 80 51
Width: 0
Flags: W
LayerCount: 2
Fore
SplineSet
502 1987 m 256,0,1
 504 1987 504 1987 504 1985 c 256,2,3
 504 1983 504 1983 502 1983 c 256,4,5
 500 1983 500 1983 500 1985 c 256,6,7
 500 1987 500 1987 502 1987 c 256,0,1
182 1850 m 257,8,9
 182 1850 182 1850 182 1850 c 129,-1,10
 182 1850 182 1850 182 1850 c 257,11,12
 182 1850 182 1850 182 1850 c 129,-1,13
 182 1850 182 1850 182 1850 c 257,14,15
 182 1850 182 1850 182 1850 c 129,-1,16
 182 1850 182 1850 182 1850 c 257,17,18
 182 1850 182 1850 182 1850 c 129,-1,19
 182 1850 182 1850 182 1850 c 257,8,9
785 3000 m 1,20,21
 787 3022 787 3022 817.5 3020.5 c 128,-1,22
 848 3019 848 3019 850 3001 c 1,23,-1
 850 2538 l 2,24,25
 850 2513 850 2513 850 2513 c 1,26,27
 838 2490 838 2490 811.5 2493.5 c 128,-1,28
 785 2497 785 2497 785 2513 c 2,29,-1
 785 2976 l 2,30,31
 785 3000 785 3000 785 3000 c 1,20,21
975 3000 m 1,32,33
 977 3022 977 3022 1007.5 3020.5 c 128,-1,34
 1038 3019 1038 3019 1040 3001 c 1,35,-1
 1040 2538 l 2,36,37
 1040 2513 1040 2513 1040 2513 c 1,38,39
 1028 2490 1028 2490 1001.5 2493.5 c 128,-1,40
 975 2497 975 2497 975 2513 c 2,41,-1
 975 2976 l 2,42,43
 975 3000 975 3000 975 3000 c 1,32,33
EndSplineSet
Validated: 5
EndChar

StartChar: Q
Encoding: 81 81 52
Width: 589
Flags: W
LayerCount: 2
Fore
SplineSet
244 2751 m 0,0,1
 196 2842 196 2842 240 2896 c 1,2,3
 290 2940 290 2940 338 2896 c 2,4,-1
 411 2828 l 1,5,6
 420 2822 420 2822 414 2810.5 c 128,-1,7
 408 2799 408 2799 391 2803 c 0,8,9
 366 2810 366 2810 343 2807.5 c 128,-1,10
 320 2805 320 2805 314 2764 c 0,11,12
 306 2712 306 2712 332.5 2682.5 c 128,-1,13
 359 2653 359 2653 394 2633 c 1,14,15
 435 2614 435 2614 464.5 2614 c 128,-1,16
 494 2614 494 2614 523 2618 c 0,17,18
 588 2625 588 2625 659 2638 c 128,-1,19
 730 2651 730 2651 797 2668 c 1,20,21
 814 2671 814 2671 844 2673 c 1,22,23
 872 2673 872 2673 910.5 2619.5 c 128,-1,24
 949 2566 949 2566 956.5 2549.5 c 128,-1,25
 964 2533 964 2533 955.5 2521 c 128,-1,26
 947 2509 947 2509 926.5 2520.5 c 128,-1,27
 906 2532 906 2532 862 2539.5 c 128,-1,28
 818 2547 818 2547 781 2547 c 2,29,-1
 662 2547 l 1,30,31
 590 2546 590 2546 512.5 2558.5 c 128,-1,32
 435 2571 435 2571 378 2609 c 1,33,34
 340 2633 340 2633 301.5 2675 c 128,-1,35
 263 2717 263 2717 244 2751 c 0,0,1
EndSplineSet
Validated: 33
EndChar

StartChar: R
Encoding: 82 82 53
Width: 38
Flags: W
LayerCount: 2
Fore
SplineSet
-840 1225 m 1,0,1
 -689 1226 -689 1226 -536 1226.5 c 128,-1,2
 -383 1227 -383 1227 -233 1230 c 1,3,4
 -222 1216 -222 1216 -224.5 1193.5 c 128,-1,5
 -227 1171 -227 1171 -233 1156 c 1,6,7
 -263 1148 -263 1148 -434 1148.5 c 128,-1,8
 -605 1149 -605 1149 -731 1149 c 1,9,10
 -731 1044 -731 1044 -726 910.5 c 128,-1,11
 -721 777 -721 777 -733 776 c 1,12,13
 -764 776 -764 776 -800 771.5 c 128,-1,14
 -836 767 -836 767 -862 776 c 0,15,16
 -865 776 -865 776 -865 797 c 1,17,18
 -865 797 -865 797 -863.5 798.5 c 128,-1,19
 -862 800 -862 800 -862 801 c 0,20,21
 -862 909 -862 909 -860.5 997.5 c 128,-1,22
 -859 1086 -859 1086 -859 1195 c 0,23,24
 -859 1222 -859 1222 -840 1225 c 1,0,1
35 1940 m 1,25,26
 37 1940 37 1940 37 1938 c 256,27,28
 37 1936 37 1936 35 1936 c 1,29,30
 35 1936 35 1936 34.5 1936.5 c 128,-1,31
 34 1937 34 1937 34 1938 c 2,32,33
 34 1938 34 1938 34.5 1939 c 128,-1,34
 35 1940 35 1940 35 1940 c 1,25,26
EndSplineSet
Validated: 33
EndChar

StartChar: S
Encoding: 83 83 54
Width: 2546
Flags: W
LayerCount: 2
Fore
SplineSet
1813 2361 m 1,0,1
 1891 2390 1891 2390 2076 2358 c 1,2,3
 2184 2330 2184 2330 2267.5 2285 c 128,-1,4
 2351 2240 2351 2240 2396 2127 c 1,5,6
 2426 2018 2426 2018 2416 1953.5 c 128,-1,7
 2406 1889 2406 1889 2344 1804 c 1,8,9
 2285 1733 2285 1733 2206 1696.5 c 128,-1,10
 2127 1660 2127 1660 2012 1636 c 1,11,12
 1898 1614 1898 1614 1826 1614.5 c 128,-1,13
 1754 1615 1754 1615 1671 1618 c 1,14,15
 1589 1622 1589 1622 1518.5 1631.5 c 128,-1,16
 1448 1641 1448 1641 1348 1672 c 1,17,18
 1182 1718 1182 1718 1020 1797 c 0,19,20
 929 1842 929 1842 827.5 1894 c 128,-1,21
 726 1946 726 1946 601 2017 c 1,22,23
 543 2052 543 2052 475.5 2091.5 c 128,-1,24
 408 2131 408 2131 329 2173 c 1,25,26
 269 2210 269 2210 211.5 2247.5 c 128,-1,27
 154 2285 154 2285 163 2323 c 128,-1,28
 172 2361 172 2361 207 2359 c 128,-1,29
 242 2357 242 2357 426.5 2360.5 c 128,-1,30
 611 2364 611 2364 749 2361 c 1,31,32
 804 2321 804 2321 747.5 2303 c 128,-1,33
 691 2285 691 2285 664 2258 c 0,34,35
 613 2205 613 2205 618.5 2174 c 128,-1,36
 624 2143 624 2143 635 2125.5 c 128,-1,37
 646 2108 646 2108 668.5 2088 c 128,-1,38
 691 2068 691 2068 780 2007 c 128,-1,39
 869 1946 869 1946 1001 1878 c 1,40,41
 1119 1826 1119 1826 1187 1793.5 c 128,-1,42
 1255 1761 1255 1761 1407 1720 c 1,43,44
 1520 1698 1520 1698 1636.5 1693 c 128,-1,45
 1753 1688 1753 1688 1873 1727 c 1,46,47
 1957 1764 1957 1764 1991.5 1790 c 128,-1,48
 2026 1816 2026 1816 2068 1880 c 1,49,50
 2105 1942 2105 1942 2110.5 1984.5 c 128,-1,51
 2116 2027 2116 2027 2112 2083 c 1,52,53
 2109 2140 2109 2140 2098 2165.5 c 128,-1,54
 2087 2191 2087 2191 2069 2217.5 c 128,-1,55
 2051 2244 2051 2244 2023.5 2265.5 c 128,-1,56
 1996 2287 1996 2287 1939 2296 c 128,-1,57
 1882 2305 1882 2305 1826 2311 c 1,58,59
 1802 2316 1802 2316 1795.5 2331.5 c 128,-1,60
 1789 2347 1789 2347 1813 2361 c 1,0,1
EndSplineSet
Validated: 33
EndChar

StartChar: T
Encoding: 84 84 55
Width: 0
Flags: W
LayerCount: 2
Fore
SplineSet
-1428 2752 m 1,0,-1
 -1499 2681 l 1,1,-1
 -1521 2655 l 1,2,3
 -1542 2632 -1542 2632 -1562.5 2653.5 c 128,-1,4
 -1583 2675 -1583 2675 -1562 2698 c 1,5,-1
 -1503 2754 l 1,6,-1
 -1466 2791 l 1,7,-1
 -1562 2890 l 1,8,9
 -1582 2908 -1582 2908 -1560.5 2926 c 128,-1,10
 -1539 2944 -1539 2944 -1522 2926 c 2,11,-1
 -1427 2828 l 1,12,-1
 -1325 2926 l 1,13,14
 -1375 2989 -1375 2989 -1375 3070 c 0,15,16
 -1375 3168 -1375 3168 -1305.5 3237 c 128,-1,17
 -1236 3306 -1236 3306 -1139 3306 c 256,18,19
 -1042 3306 -1042 3306 -972.5 3237 c 128,-1,20
 -903 3168 -903 3168 -903 3070 c 0,21,22
 -903 2973 -903 2973 -972.5 2904 c 128,-1,23
 -1042 2835 -1042 2835 -1139 2835 c 0,24,25
 -1224 2835 -1224 2835 -1291 2890 c 1,26,-1
 -1390 2790 l 1,27,-1
 -1291 2689 l 2,28,29
 -1270 2668 -1270 2668 -1291 2650 c 128,-1,30
 -1312 2632 -1312 2632 -1330 2650 c 2,31,-1
 -1428 2752 l 1,0,-1
-1139 3255 m 0,32,33
 -1215 3255 -1215 3255 -1270 3200.5 c 128,-1,34
 -1325 3146 -1325 3146 -1325 3070 c 0,35,36
 -1325 2993 -1325 2993 -1270 2939.5 c 128,-1,37
 -1215 2886 -1215 2886 -1139 2886 c 0,38,39
 -1062 2886 -1062 2886 -1008 2939.5 c 128,-1,40
 -954 2993 -954 2993 -954 3070 c 0,41,42
 -954 3146 -954 3146 -1008 3200.5 c 128,-1,43
 -1062 3255 -1062 3255 -1139 3255 c 0,32,33
19 1970 m 0,44,45
 21 1970 21 1970 21 1967 c 0,46,47
 21 1965 21 1965 19 1965 c 0,48,49
 16 1965 16 1965 16 1967 c 0,50,51
 16 1970 16 1970 19 1970 c 0,44,45
EndSplineSet
Validated: 1
EndChar

StartChar: U
Encoding: 85 85 56
Width: 10
Flags: W
LayerCount: 2
Fore
SplineSet
8 1970 m 0,0,1
 10 1970 10 1970 10 1967 c 0,2,3
 10 1965 10 1965 8 1965 c 0,4,5
 5 1965 5 1965 5 1967 c 0,6,7
 5 1970 5 1970 8 1970 c 0,0,1
-2498 2794 m 0,8,9
 -2480 2785 -2480 2785 -2457.5 2768.5 c 128,-1,10
 -2435 2752 -2435 2752 -2421 2742 c 0,11,12
 -2334 2682 -2334 2682 -2266 2640 c 128,-1,13
 -2198 2598 -2198 2598 -2101 2580 c 0,14,15
 -2055 2571 -2055 2571 -2000 2574.5 c 128,-1,16
 -1945 2578 -1945 2578 -1924 2587 c 1,17,18
 -1865 2608 -1865 2608 -1859 2660.5 c 128,-1,19
 -1853 2713 -1853 2713 -1872 2746 c 0,20,21
 -1884 2768 -1884 2768 -1880.5 2795 c 128,-1,22
 -1877 2822 -1877 2822 -1853 2827 c 1,23,24
 -1744 2818 -1744 2818 -1670 2759.5 c 128,-1,25
 -1596 2701 -1596 2701 -1591 2658 c 1,26,-1
 -1591 2640 l 2,27,28
 -1591 2603 -1591 2603 -1630 2550 c 128,-1,29
 -1669 2497 -1669 2497 -1753 2477 c 0,30,31
 -1953 2431 -1953 2431 -2144 2506 c 0,32,33
 -2251 2548 -2251 2548 -2353.5 2604 c 128,-1,34
 -2456 2660 -2456 2660 -2540 2726 c 0,35,36
 -2567 2747 -2567 2747 -2552 2779.5 c 128,-1,37
 -2537 2812 -2537 2812 -2498 2794 c 0,8,9
EndSplineSet
Validated: 33
EndChar

StartChar: V
Encoding: 86 86 57
Width: 3009
Flags: W
LayerCount: 2
Fore
SplineSet
1546 2694 m 1,0,1
 1616 2694 1616 2694 1693 2692.5 c 128,-1,2
 1770 2691 1770 2691 1832 2683 c 1,3,4
 1875 2683 1875 2683 1914 2578.5 c 128,-1,5
 1953 2474 1953 2474 2024 2369 c 0,6,7
 2048 2333 2048 2333 2068 2330 c 1,8,9
 2087 2325 2087 2325 2097 2312.5 c 128,-1,10
 2107 2300 2107 2300 2077 2290 c 1,11,12
 2006 2280 2006 2280 1933.5 2281.5 c 128,-1,13
 1861 2283 1861 2283 1795 2290 c 1,14,15
 1732 2311 1732 2311 1706 2385 c 128,-1,16
 1680 2459 1680 2459 1607 2605 c 1,17,18
 1586 2637 1586 2637 1538 2646 c 1,19,20
 1505 2650 1505 2650 1501 2671.5 c 128,-1,21
 1497 2693 1497 2693 1546 2694 c 1,0,1
1037 2697 m 1,22,23
 1098 2697 1098 2697 1165.5 2695.5 c 128,-1,24
 1233 2694 1233 2694 1287 2685 c 1,25,26
 1325 2685 1325 2685 1368 2577.5 c 128,-1,27
 1411 2470 1411 2470 1469 2367 c 0,28,29
 1489 2331 1489 2331 1508 2327 c 0,30,31
 1524 2323 1524 2323 1533 2310 c 128,-1,32
 1542 2297 1542 2297 1516 2287 c 1,33,34
 1453 2277 1453 2277 1389.5 2279 c 128,-1,35
 1326 2281 1326 2281 1269 2287 c 1,36,37
 1215 2308 1215 2308 1184.5 2384 c 128,-1,38
 1154 2460 1154 2460 1091 2607 c 1,39,40
 1085 2615 1085 2615 1068.5 2632.5 c 128,-1,41
 1052 2650 1052 2650 1030 2654 c 0,42,43
 1001 2658 1001 2658 997.5 2676.5 c 128,-1,44
 994 2695 994 2695 1037 2697 c 1,22,23
1352 3284 m 1,45,46
 1502 3285 1502 3285 1655 3286 c 128,-1,47
 1808 3287 1808 3287 1959 3289 c 1,48,49
 1969 3275 1969 3275 1966.5 3252 c 128,-1,50
 1964 3229 1964 3229 1959 3214 c 1,51,52
 1928 3207 1928 3207 1757 3207.5 c 128,-1,53
 1586 3208 1586 3208 1461 3208 c 1,54,55
 1460 3102 1460 3102 1465 2990.5 c 128,-1,56
 1470 2879 1470 2879 1459 2877 c 1,57,58
 1427 2877 1427 2877 1391 2872.5 c 128,-1,59
 1355 2868 1355 2868 1330 2877 c 1,60,61
 1327 2877 1327 2877 1327 2898 c 0,62,63
 1327 2899 1327 2899 1328.5 2900 c 128,-1,64
 1330 2901 1330 2901 1330 2903 c 0,65,66
 1330 3011 1330 3011 1331.5 3078 c 128,-1,67
 1333 3145 1333 3145 1333 3253 c 0,68,69
 1333 3281 1333 3281 1352 3284 c 1,45,46
177.5 2127.5 m 128,-1,71
 188 2144 188 2144 201 2145.5 c 128,-1,72
 214 2147 214 2147 229 2138 c 128,-1,73
 244 2129 244 2129 266 2118 c 128,-1,74
 288 2107 288 2107 323 2100 c 128,-1,75
 358 2093 358 2093 421 2093 c 2,76,-1
 2458 2093 l 1,77,78
 2516 2094 2516 2094 2563 2084 c 128,-1,79
 2610 2074 2610 2074 2649 2053.5 c 128,-1,80
 2688 2033 2688 2033 2709.5 2016.5 c 128,-1,81
 2731 2000 2731 2000 2768.5 1961 c 128,-1,82
 2806 1922 2806 1922 2833 1884.5 c 128,-1,83
 2860 1847 2860 1847 2844 1812 c 1,84,85
 2828 1788 2828 1788 2806.5 1802 c 128,-1,86
 2785 1816 2785 1816 2756 1826.5 c 128,-1,87
 2727 1837 2727 1837 2693 1841 c 128,-1,88
 2659 1845 2659 1845 2588 1845 c 2,89,-1
 581 1845 l 1,90,91
 533 1846 533 1846 495 1852 c 128,-1,92
 457 1858 457 1858 435 1865 c 128,-1,93
 413 1872 413 1872 389 1884 c 128,-1,94
 365 1896 365 1896 337.5 1914 c 128,-1,95
 310 1932 310 1932 279 1963.5 c 128,-1,96
 248 1995 248 1995 216 2036.5 c 128,-1,97
 184 2078 184 2078 175.5 2094.5 c 128,-1,70
 167 2111 167 2111 177.5 2127.5 c 128,-1,71
EndSplineSet
Validated: 33
EndChar

StartChar: W
Encoding: 87 87 58
Width: 37
Flags: W
LayerCount: 2
Fore
SplineSet
34 1965 m 0,0,1
 36 1965 36 1965 36 1963 c 256,2,3
 36 1961 36 1961 34 1961 c 0,4,5
 31 1961 31 1961 31 1963 c 256,6,7
 31 1965 31 1965 34 1965 c 0,0,1
-1644 2977 m 1,8,9
 -1497 2974 -1497 2974 -1349 2977 c 128,-1,10
 -1201 2980 -1201 2980 -1053 2979 c 0,11,12
 -1053 2978 -1053 2978 -1052 2978 c 1,13,14
 -1052 2978 -1052 2978 -1052 2978 c 129,-1,15
 -1052 2978 -1052 2978 -1052 2978 c 1,16,17
 -1034 2975 -1034 2975 -1034 2948 c 0,18,19
 -1034 2839 -1034 2839 -1032 2747 c 128,-1,20
 -1030 2655 -1030 2655 -1030 2547 c 0,21,22
 -1030 2546 -1030 2546 -1028 2544.5 c 128,-1,23
 -1026 2543 -1026 2543 -1026 2543 c 1,24,25
 -1026 2522 -1026 2522 -1030 2522 c 1,26,27
 -1043 2517 -1043 2517 -1070 2517 c 0,28,29
 -1089 2517 -1089 2517 -1110 2519 c 128,-1,30
 -1131 2521 -1131 2521 -1151 2522 c 0,31,32
 -1152 2522 -1152 2522 -1154 2522 c 128,-1,33
 -1156 2522 -1156 2522 -1159 2522 c 0,34,35
 -1170 2523 -1170 2523 -1165 2656.5 c 128,-1,36
 -1160 2790 -1160 2790 -1161 2895 c 1,37,38
 -1308 2898 -1308 2898 -1461.5 2894.5 c 128,-1,39
 -1615 2891 -1615 2891 -1750 2895 c 1,40,41
 -1770 2897 -1770 2897 -1770 2925 c 0,42,43
 -1770 3039 -1770 3039 -1770.5 3130.5 c 128,-1,44
 -1771 3222 -1771 3222 -1771 3337 c 1,45,46
 -1746 3346 -1746 3346 -1710.5 3341.5 c 128,-1,47
 -1675 3337 -1675 3337 -1645 3337 c 1,48,49
 -1644 3232 -1644 3232 -1643.5 3157 c 128,-1,50
 -1643 3082 -1643 3082 -1644 2977 c 1,8,9
EndSplineSet
Validated: 33
EndChar

StartChar: X
Encoding: 88 88 59
Width: 3103
Flags: W
LayerCount: 2
Fore
SplineSet
138 2020.5 m 128,-1,1
 147 2033 147 2033 159 2034 c 128,-1,2
 171 2035 171 2035 260.5 2031 c 128,-1,3
 350 2027 350 2027 627 2049 c 1,4,-1
 1953 2149 l 2,5,6
 2139 2164 2139 2164 2213.5 2166 c 128,-1,7
 2288 2168 2288 2168 2354 2161.5 c 128,-1,8
 2420 2155 2420 2155 2469 2143 c 128,-1,9
 2518 2131 2518 2131 2586 2111.5 c 128,-1,10
 2654 2092 2654 2092 2715.5 2069 c 128,-1,11
 2777 2046 2777 2046 2830.5 2017 c 128,-1,12
 2884 1988 2884 1988 2896.5 1959.5 c 128,-1,13
 2909 1931 2909 1931 2889 1923.5 c 128,-1,14
 2869 1916 2869 1916 2839 1917.5 c 128,-1,15
 2809 1919 2809 1919 2758 1923 c 128,-1,16
 2707 1927 2707 1927 2657 1930.5 c 128,-1,17
 2607 1934 2607 1934 2512 1933 c 128,-1,18
 2417 1932 2417 1932 2298 1924 c 2,19,-1
 661 1802 l 1,20,21
 561 1800 561 1800 522.5 1803 c 128,-1,22
 484 1806 484 1806 451.5 1812 c 128,-1,23
 419 1818 419 1818 389.5 1829 c 128,-1,24
 360 1840 360 1840 326 1856.5 c 128,-1,25
 292 1873 292 1873 256.5 1895.5 c 128,-1,26
 221 1918 221 1918 184.5 1947 c 128,-1,27
 148 1976 148 1976 138.5 1992 c 128,-1,0
 129 2008 129 2008 138 2020.5 c 128,-1,1
EndSplineSet
Validated: 33
EndChar

StartChar: Y
Encoding: 89 89 60
Width: 0
Flags: W
LayerCount: 2
Fore
SplineSet
-351 2757 m 1,0,-1
 -421 2687 l 1,1,-1
 -444 2660 l 2,2,3
 -464 2637 -464 2637 -484.5 2658.5 c 128,-1,4
 -505 2680 -505 2680 -484 2703 c 1,5,-1
 -425 2760 l 1,6,-1
 -388 2796 l 1,7,-1
 -484 2895 l 1,8,9
 -504 2913 -504 2913 -482.5 2931 c 128,-1,10
 -461 2949 -461 2949 -444 2932 c 2,11,-1
 -349 2834 l 1,12,-1
 -248 2932 l 1,13,14
 -298 2995 -298 2995 -298 3075 c 0,15,16
 -298 3172 -298 3172 -228 3241 c 128,-1,17
 -158 3310 -158 3310 -62 3310 c 0,18,19
 35 3310 35 3310 103.5 3241 c 128,-1,20
 172 3172 172 3172 172 3075 c 256,21,22
 172 2978 172 2978 103.5 2909 c 128,-1,23
 35 2840 35 2840 -62 2840 c 0,24,25
 -146 2840 -146 2840 -212 2895 c 1,26,-1
 -312 2796 l 1,27,-1
 -212 2694 l 2,28,29
 -192 2673 -192 2673 -213.5 2655.5 c 128,-1,30
 -235 2638 -235 2638 -252 2656 c 2,31,-1
 -351 2757 l 1,0,-1
-62 3260 m 256,32,33
 -138 3260 -138 3260 -192 3205.5 c 128,-1,34
 -246 3151 -246 3151 -246 3075 c 256,35,36
 -246 2999 -246 2999 -192 2945 c 128,-1,37
 -138 2891 -138 2891 -62 2891 c 256,38,39
 14 2891 14 2891 68 2945 c 128,-1,40
 122 2999 122 2999 122 3075 c 256,41,42
 122 3151 122 3151 68 3205.5 c 128,-1,43
 14 3260 14 3260 -62 3260 c 256,32,33
EndSplineSet
Validated: 1
EndChar

StartChar: Z
Encoding: 90 90 61
Width: 3226
Flags: W
LayerCount: 2
Fore
SplineSet
364 1169 m 1,0,1
 671 1184 671 1184 1087 1206 c 128,-1,2
 1503 1228 1503 1228 1809 1219 c 0,3,4
 2074 1211 2074 1211 2320 1186 c 128,-1,5
 2566 1161 2566 1161 2695 1133 c 1,6,7
 2826 1103 2826 1103 2935 1032 c 128,-1,8
 3044 961 3044 961 3062 889 c 1,9,10
 3078 817 3078 817 3063.5 768 c 128,-1,11
 3049 719 3049 719 2903 654 c 1,12,13
 2799 631 2799 631 2685.5 624 c 128,-1,14
 2572 617 2572 617 2488 619 c 1,15,16
 2453 632 2453 632 2482.5 648 c 128,-1,17
 2512 664 2512 664 2564.5 689.5 c 128,-1,18
 2617 715 2617 715 2672 755 c 128,-1,19
 2727 795 2727 795 2745 857 c 0,20,21
 2777 970 2777 970 2645 1029 c 128,-1,22
 2513 1088 2513 1088 2330 1114 c 128,-1,23
 2147 1140 2147 1140 1968 1143.5 c 128,-1,24
 1789 1147 1789 1147 1728 1150 c 0,25,26
 1598 1156 1598 1156 1369 1148 c 128,-1,27
 1140 1140 1140 1140 916.5 1127.5 c 128,-1,28
 693 1115 693 1115 528.5 1104 c 128,-1,29
 364 1093 364 1093 364 1093 c 1,30,31
 331 1099 331 1099 332 1132.5 c 128,-1,32
 333 1166 333 1166 364 1169 c 1,0,1
1532 1000 m 2,33,-1
 1653 1000 l 2,34,35
 1663 1000 1663 1000 1686 999.5 c 128,-1,36
 1709 999 1709 999 1715 993 c 0,37,38
 1723 985 1723 985 1711.5 984 c 128,-1,39
 1700 983 1700 983 1694 937 c 2,40,-1
 1681 841 l 2,41,42
 1673 778 1673 778 1623 778 c 2,43,-1
 1502 778 l 2,44,45
 1492 778 1492 778 1465.5 780 c 128,-1,46
 1439 782 1439 782 1438 792 c 0,47,48
 1436 804 1436 804 1446.5 808 c 128,-1,49
 1457 812 1457 812 1461 841 c 2,50,-1
 1474 937 l 2,51,52
 1483 1000 1483 1000 1532 1000 c 2,33,-1
1772 1711 m 1,53,54
 1842 1711 1842 1711 1919 1709.5 c 128,-1,55
 1996 1708 1996 1708 2058 1700 c 1,56,57
 2101 1700 2101 1700 2140 1595 c 128,-1,58
 2179 1490 2179 1490 2250 1386 c 0,59,60
 2275 1350 2275 1350 2295 1346 c 1,61,62
 2313 1341 2313 1341 2323.5 1328.5 c 128,-1,63
 2334 1316 2334 1316 2304 1307 c 1,64,65
 2232 1296 2232 1296 2159.5 1298 c 128,-1,66
 2087 1300 2087 1300 2021 1307 c 1,67,68
 1959 1327 1959 1327 1932.5 1401.5 c 128,-1,69
 1906 1476 1906 1476 1834 1621 c 1,70,71
 1811 1655 1811 1655 1765 1662 c 0,72,73
 1732 1667 1732 1667 1727.5 1688.5 c 128,-1,74
 1723 1710 1723 1710 1772 1711 c 1,53,54
177.5 2127.5 m 128,-1,76
 188 2144 188 2144 201 2145.5 c 128,-1,77
 214 2147 214 2147 229 2138 c 128,-1,78
 244 2129 244 2129 266 2118 c 128,-1,79
 288 2107 288 2107 323 2100 c 128,-1,80
 358 2093 358 2093 421 2093 c 2,81,-1
 2518 2093 l 1,82,83
 2576 2094 2576 2094 2623 2084 c 128,-1,84
 2670 2074 2670 2074 2709 2053.5 c 128,-1,85
 2748 2033 2748 2033 2769.5 2016.5 c 128,-1,86
 2791 2000 2791 2000 2828.5 1961 c 128,-1,87
 2866 1922 2866 1922 2893 1884.5 c 128,-1,88
 2920 1847 2920 1847 2904 1812 c 1,89,90
 2888 1788 2888 1788 2866.5 1802 c 128,-1,91
 2845 1816 2845 1816 2816 1826.5 c 128,-1,92
 2787 1837 2787 1837 2753 1841 c 128,-1,93
 2719 1845 2719 1845 2648 1845 c 2,94,-1
 581 1845 l 1,95,96
 533 1846 533 1846 495 1852 c 128,-1,97
 457 1858 457 1858 435 1865 c 128,-1,98
 413 1872 413 1872 389 1884 c 128,-1,99
 365 1896 365 1896 337.5 1914 c 128,-1,100
 310 1932 310 1932 279 1963.5 c 128,-1,101
 248 1995 248 1995 216 2036.5 c 128,-1,102
 184 2078 184 2078 175.5 2094.5 c 128,-1,75
 167 2111 167 2111 177.5 2127.5 c 128,-1,76
EndSplineSet
Validated: 33
EndChar

StartChar: bracketleft
Encoding: 91 91 62
Width: 999
Flags: W
LayerCount: 2
Fore
SplineSet
445.5 2444.5 m 128,-1,1
 389 2439 389 2439 315 2400.5 c 128,-1,2
 241 2362 241 2362 195 2277 c 1,3,-1
 209 2270 l 1,4,5
 305 2347 305 2347 362 2366 c 128,-1,6
 419 2385 419 2385 460 2387 c 128,-1,7
 501 2389 501 2389 548 2385.5 c 128,-1,8
 595 2382 595 2382 648.5 2359 c 128,-1,9
 702 2336 702 2336 783 2270 c 1,10,-1
 797 2279 l 1,11,12
 743 2371 743 2371 675.5 2402 c 128,-1,13
 608 2433 608 2433 555 2441.5 c 128,-1,0
 502 2450 502 2450 445.5 2444.5 c 128,-1,1
469 2222 m 1,14,15
 471 2241 471 2241 501.5 2240 c 128,-1,16
 532 2239 532 2239 534 2223 c 1,17,-1
 534 1835 l 2,18,19
 534 1814 534 1814 534 1814 c 1,20,21
 522 1795 522 1795 495.5 1798 c 128,-1,22
 469 1801 469 1801 469 1814 c 2,23,-1
 469 2202 l 2,24,25
 469 2222 469 2222 469 2222 c 1,14,15
EndSplineSet
Validated: 41
EndChar

StartChar: backslash
Encoding: 92 92 63
Width: 1094
Flags: W
LayerCount: 2
Fore
SplineSet
152 2768 m 1,0,1
 164 2792 164 2792 283 2763.5 c 128,-1,2
 402 2735 402 2735 479 2699 c 0,3,4
 518 2681 518 2681 524.5 2641 c 128,-1,5
 531 2601 531 2601 533 2514 c 0,6,7
 536 2268 536 2268 551 2125 c 128,-1,8
 566 1982 566 1982 581 1883 c 0,9,10
 606 1724 606 1724 642.5 1615.5 c 128,-1,11
 679 1507 679 1507 757 1428 c 1,12,13
 834 1348 834 1348 901.5 1305.5 c 128,-1,14
 969 1263 969 1263 1159 1224 c 1,15,16
 1192 1224 1192 1224 1187 1208.5 c 128,-1,17
 1182 1193 1182 1193 1146 1194 c 1,18,19
 1030 1218 1030 1218 1034.5 1214.5 c 128,-1,20
 1039 1211 1039 1211 941 1242 c 1,21,22
 764 1314 764 1314 663.5 1442.5 c 128,-1,23
 563 1571 563 1571 491 1694 c 1,24,25
 386 1889 386 1889 321 2099.5 c 128,-1,26
 256 2310 256 2310 227 2649 c 1,27,28
 216 2742 216 2742 181.5 2736.5 c 128,-1,29
 147 2731 147 2731 152 2768 c 1,0,1
EndSplineSet
Validated: 33
EndChar

StartChar: bracketright
Encoding: 93 93 64
Width: 300
Flags: W
LayerCount: 2
Fore
SplineSet
8 1970 m 0,0,1
 10 1970 10 1970 10 1967 c 0,2,3
 10 1965 10 1965 8 1965 c 0,4,5
 5 1965 5 1965 5 1967 c 0,6,7
 5 1970 5 1970 8 1970 c 0,0,1
-211 2776 m 1,8,-1
 -129 2782 l 1,9,10
 -119 2723 -119 2723 -86 2693 c 128,-1,11
 -53 2663 -53 2663 -6 2663 c 0,12,13
 50 2663 50 2663 89 2705 c 128,-1,14
 128 2747 128 2747 128 2818 c 0,15,16
 128 2884 128 2884 90.5 2922.5 c 128,-1,17
 53 2961 53 2961 -8 2961 c 0,18,19
 -46 2961 -46 2961 -76 2944 c 128,-1,20
 -106 2927 -106 2927 -124 2900 c 1,21,-1
 -198 2909 l 1,22,-1
 -136 3236 l 1,23,-1
 181 3236 l 1,24,-1
 181 3162 l 1,25,-1
 -73 3162 l 1,26,-1
 -107 2990 l 1,27,28
 -50 3031 -50 3031 13 3031 c 0,29,30
 96 3031 96 3031 153.5 2973 c 128,-1,31
 211 2915 211 2915 211 2824 c 0,32,33
 211 2738 211 2738 161 2675 c 0,34,35
 100 2598 100 2598 -6 2598 c 0,36,37
 -93 2598 -93 2598 -148 2646.5 c 128,-1,38
 -203 2695 -203 2695 -211 2776 c 1,8,-1
EndSplineSet
Validated: 1
EndChar

StartChar: asciicircum
Encoding: 94 94 65
Width: 748
Flags: W
LayerCount: 2
Fore
SplineSet
-887 824 m 1,0,1
 -945 786 -945 786 -989.5 752.5 c 128,-1,2
 -1034 719 -1034 719 -1080 696 c 0,3,4
 -1168 652 -1168 652 -1270 679 c 0,5,6
 -1369 705 -1369 705 -1382 788 c 128,-1,7
 -1395 871 -1395 871 -1377 917 c 0,8,9
 -1368 939 -1368 939 -1336.5 978 c 128,-1,10
 -1305 1017 -1305 1017 -1212 1035 c 0,11,12
 -1167 1044 -1167 1044 -1067 1035 c 128,-1,13
 -967 1026 -967 1026 -800 888 c 0,14,15
 -733 833 -733 833 -595 706 c 128,-1,16
 -457 579 -457 579 -366 534 c 0,17,18
 -344 523 -344 523 -305 522 c 128,-1,19
 -266 521 -266 521 -248 523 c 0,20,21
 -196 527 -196 527 -98 597.5 c 128,-1,22
 0 668 0 668 97 751.5 c 128,-1,23
 194 835 194 835 267 904 c 128,-1,24
 340 973 340 973 340 973 c 1,25,26
 358 986 358 986 420 993.5 c 128,-1,27
 482 1001 482 1001 548 1001.5 c 128,-1,28
 614 1002 614 1002 664.5 995.5 c 128,-1,29
 715 989 715 989 711 975 c 0,30,31
 705 951 705 951 671 940.5 c 128,-1,32
 637 930 637 930 617 929 c 1,33,34
 447 809 447 809 300 662.5 c 128,-1,35
 153 516 153 516 -31 475 c 0,36,37
 -127 454 -127 454 -204 449.5 c 128,-1,38
 -281 445 -281 445 -378 466 c 1,39,40
 -533 525 -533 525 -657.5 616 c 128,-1,41
 -782 707 -782 707 -887 824 c 1,0,1
-929 879 m 1,42,43
 -962 902 -962 902 -990 932 c 128,-1,44
 -1018 962 -1018 962 -1081 984 c 0,45,46
 -1144 1005 -1144 1005 -1224.5 969.5 c 128,-1,47
 -1305 934 -1305 934 -1269 872 c 0,48,49
 -1215 779 -1215 779 -1130 794 c 128,-1,50
 -1045 809 -1045 809 -929 879 c 1,42,43
EndSplineSet
Validated: 33
EndChar

StartChar: underscore
Encoding: 95 95 66
Width: 4024
Flags: W
LayerCount: 2
Fore
SplineSet
2503 2715 m 1,0,1
 2564 2715 2564 2715 2631.5 2713 c 128,-1,2
 2699 2711 2699 2711 2753 2701 c 1,3,4
 2791 2701 2791 2701 2841 2596.5 c 128,-1,5
 2891 2492 2891 2492 2949 2367 c 1,6,7
 2966 2324 2966 2324 2988 2319 c 1,8,9
 3003 2313 3003 2313 3012 2297.5 c 128,-1,10
 3021 2282 3021 2282 2995 2270 c 1,11,12
 2933 2258 2933 2258 2869 2260 c 128,-1,13
 2805 2262 2805 2262 2748 2270 c 1,14,15
 2694 2295 2694 2295 2657 2361.5 c 128,-1,16
 2620 2428 2620 2428 2557 2605 c 1,17,18
 2551 2616 2551 2616 2534.5 2637.5 c 128,-1,19
 2518 2659 2518 2659 2496 2663 c 0,20,21
 2468 2668 2468 2668 2464 2691 c 128,-1,22
 2460 2714 2460 2714 2503 2715 c 1,0,1
3057 2715 m 1,23,24
 3118 2715 3118 2715 3185.5 2713 c 128,-1,25
 3253 2711 3253 2711 3307 2701 c 1,26,27
 3345 2701 3345 2701 3394.5 2596.5 c 128,-1,28
 3444 2492 3444 2492 3502 2367 c 0,29,30
 3521 2324 3521 2324 3541 2319 c 1,31,32
 3557 2313 3557 2313 3566 2297.5 c 128,-1,33
 3575 2282 3575 2282 3549 2270 c 1,34,35
 3486 2258 3486 2258 3422.5 2260 c 128,-1,36
 3359 2262 3359 2262 3301 2270 c 1,37,38
 3247 2295 3247 2295 3210.5 2361.5 c 128,-1,39
 3174 2428 3174 2428 3111 2605 c 1,40,41
 3105 2616 3105 2616 3088 2637.5 c 128,-1,42
 3071 2659 3071 2659 3050 2663 c 0,43,44
 3021 2668 3021 2668 3017.5 2691 c 128,-1,45
 3014 2714 3014 2714 3057 2715 c 1,23,24
325.5 2127.5 m 128,-1,47
 336 2144 336 2144 349 2145.5 c 128,-1,48
 362 2147 362 2147 377 2138 c 128,-1,49
 392 2129 392 2129 414 2118 c 128,-1,50
 436 2107 436 2107 471 2100 c 128,-1,51
 506 2093 506 2093 569 2093 c 2,52,-1
 3406 2093 l 1,53,54
 3464 2094 3464 2094 3511 2084 c 128,-1,55
 3558 2074 3558 2074 3597 2053.5 c 128,-1,56
 3636 2033 3636 2033 3657.5 2016.5 c 128,-1,57
 3679 2000 3679 2000 3716.5 1961 c 128,-1,58
 3754 1922 3754 1922 3781 1884.5 c 128,-1,59
 3808 1847 3808 1847 3792 1812 c 1,60,61
 3776 1788 3776 1788 3754.5 1802 c 128,-1,62
 3733 1816 3733 1816 3704 1826.5 c 128,-1,63
 3675 1837 3675 1837 3641 1841 c 128,-1,64
 3607 1845 3607 1845 3536 1845 c 2,65,-1
 729 1845 l 1,66,67
 681 1846 681 1846 643 1852 c 128,-1,68
 605 1858 605 1858 583 1865 c 128,-1,69
 561 1872 561 1872 537 1884 c 128,-1,70
 513 1896 513 1896 485.5 1914 c 128,-1,71
 458 1932 458 1932 427 1963.5 c 128,-1,72
 396 1995 396 1995 364 2036.5 c 128,-1,73
 332 2078 332 2078 323.5 2094.5 c 128,-1,46
 315 2111 315 2111 325.5 2127.5 c 128,-1,47
196 2697 m 1,74,75
 118 2838 118 2838 154 2939 c 128,-1,76
 190 3040 190 3040 282 3047 c 0,77,78
 342 3051 342 3051 373.5 3038 c 128,-1,79
 405 3025 405 3025 429 3011.5 c 128,-1,80
 453 2998 453 2998 474.5 2982.5 c 128,-1,81
 496 2967 496 2967 515 2950.5 c 128,-1,82
 534 2934 534 2934 541.5 2921 c 128,-1,83
 549 2908 549 2908 548 2897 c 128,-1,84
 547 2886 547 2886 539.5 2881 c 128,-1,85
 532 2876 532 2876 496 2862 c 128,-1,86
 460 2848 460 2848 403 2816 c 128,-1,87
 346 2784 346 2784 348 2709 c 1,88,89
 349 2631 349 2631 510.5 2562.5 c 128,-1,90
 672 2494 672 2494 991 2507 c 1,91,-1
 1905 2555 l 1,92,93
 1972 2555 1972 2555 2012.5 2546 c 128,-1,94
 2053 2537 2053 2537 2085.5 2523 c 128,-1,95
 2118 2509 2118 2509 2141 2495 c 128,-1,96
 2164 2481 2164 2481 2195 2453.5 c 128,-1,97
 2226 2426 2226 2426 2266 2383 c 128,-1,98
 2306 2340 2306 2340 2318.5 2319.5 c 128,-1,99
 2331 2299 2331 2299 2331 2280 c 128,-1,100
 2331 2261 2331 2261 2318.5 2254.5 c 128,-1,101
 2306 2248 2306 2248 2291 2248 c 128,-1,102
 2276 2248 2276 2248 2259.5 2254.5 c 128,-1,103
 2243 2261 2243 2261 2219.5 2268.5 c 128,-1,104
 2196 2276 2196 2276 2167.5 2284.5 c 128,-1,105
 2139 2293 2139 2293 2114.5 2297 c 128,-1,106
 2090 2301 2090 2301 2048 2303 c 1,107,-1
 1928 2315 l 1,108,109
 1639 2305 1639 2305 1431.5 2320.5 c 128,-1,110
 1224 2336 1224 2336 1040 2360.5 c 128,-1,111
 856 2385 856 2385 716.5 2414 c 128,-1,112
 577 2443 577 2443 525 2462 c 1,113,114
 436 2499 436 2499 368.5 2535 c 128,-1,115
 301 2571 301 2571 196 2697 c 1,74,75
EndSplineSet
Validated: 33
EndChar

StartChar: grave
Encoding: 96 96 67
Width: 0
Flags: W
LayerCount: 2
Fore
SplineSet
-616 1371 m 0,0,1
 -553 1371 -553 1371 -553 1307 c 256,2,3
 -553 1243 -553 1243 -616 1243 c 0,4,5
 -680 1243 -680 1243 -680 1307 c 256,6,7
 -680 1371 -680 1371 -616 1371 c 0,0,1
-333 1371 m 256,8,9
 -269 1371 -269 1371 -269 1307 c 256,10,11
 -269 1243 -269 1243 -333 1243 c 256,12,13
 -397 1243 -397 1243 -397 1307 c 256,14,15
 -397 1371 -397 1371 -333 1371 c 256,8,9
EndSplineSet
Validated: 1
EndChar

StartChar: a
Encoding: 97 97 68
Width: 3123
Flags: W
LayerCount: 2
Fore
SplineSet
221 2249 m 1,0,1
 143 2390 143 2390 179 2491 c 128,-1,2
 215 2592 215 2592 307 2599 c 0,3,4
 367 2603 367 2603 398.5 2590 c 128,-1,5
 430 2577 430 2577 454 2563.5 c 128,-1,6
 478 2550 478 2550 499.5 2534.5 c 128,-1,7
 521 2519 521 2519 540 2502.5 c 128,-1,8
 559 2486 559 2486 566.5 2473 c 128,-1,9
 574 2460 574 2460 573 2449 c 128,-1,10
 572 2438 572 2438 564.5 2433 c 128,-1,11
 557 2428 557 2428 521 2414 c 128,-1,12
 485 2400 485 2400 428 2368 c 128,-1,13
 371 2336 371 2336 373 2261 c 1,14,15
 374 2183 374 2183 535.5 2114.5 c 128,-1,16
 697 2046 697 2046 1016 2059 c 1,17,-1
 2520 2097 l 1,18,19
 2587 2097 2587 2097 2627.5 2088 c 128,-1,20
 2668 2079 2668 2079 2700.5 2065 c 128,-1,21
 2733 2051 2733 2051 2756 2037 c 128,-1,22
 2779 2023 2779 2023 2809.5 1995.5 c 128,-1,23
 2840 1968 2840 1968 2880.5 1925 c 128,-1,24
 2921 1882 2921 1882 2933.5 1861.5 c 128,-1,25
 2946 1841 2946 1841 2946 1822 c 128,-1,26
 2946 1803 2946 1803 2933.5 1796.5 c 128,-1,27
 2921 1790 2921 1790 2906 1790 c 128,-1,28
 2891 1790 2891 1790 2874.5 1796.5 c 128,-1,29
 2858 1803 2858 1803 2835 1810.5 c 128,-1,30
 2812 1818 2812 1818 2783 1826.5 c 128,-1,31
 2754 1835 2754 1835 2730 1839 c 128,-1,32
 2706 1843 2706 1843 2663 1845 c 1,33,-1
 1853 1857 l 1,34,35
 1664 1857 1664 1857 1456.5 1872.5 c 128,-1,36
 1249 1888 1249 1888 1065 1912.5 c 128,-1,37
 881 1937 881 1937 741.5 1966 c 128,-1,38
 602 1995 602 1995 550 2014 c 1,39,40
 461 2051 461 2051 393.5 2087 c 128,-1,41
 326 2123 326 2123 221 2249 c 1,0,1
EndSplineSet
Validated: 33
EndChar

StartChar: b
Encoding: 98 98 69
Width: 0
Flags: W
LayerCount: 2
Fore
SplineSet
-1750 1281 m 1,0,-1
 -1679 1352 l 1,1,-1
 -1656 1379 l 1,2,3
 -1634 1401 -1634 1401 -1613 1380 c 128,-1,4
 -1592 1359 -1592 1359 -1615 1335 c 1,5,-1
 -1674 1279 l 1,6,-1
 -1712 1242 l 1,7,-1
 -1615 1142 l 1,8,9
 -1594 1124 -1594 1124 -1616 1105.5 c 128,-1,10
 -1638 1087 -1638 1087 -1655 1106 c 1,11,-1
 -1751 1205 l 1,12,-1
 -1853 1106 l 1,13,14
 -1803 1042 -1803 1042 -1803 961 c 0,15,16
 -1803 862 -1803 862 -1873 793 c 128,-1,17
 -1943 724 -1943 724 -2040 724 c 0,18,19
 -2138 724 -2138 724 -2207.5 793 c 128,-1,20
 -2277 862 -2277 862 -2277 961 c 0,21,22
 -2277 1058 -2277 1058 -2207.5 1128 c 128,-1,23
 -2138 1198 -2138 1198 -2040 1198 c 0,24,25
 -1954 1198 -1954 1198 -1888 1142 c 1,26,-1
 -1788 1242 l 1,27,-1
 -1888 1345 l 2,28,29
 -1908 1366 -1908 1366 -1887 1383 c 128,-1,30
 -1866 1400 -1866 1400 -1849 1383 c 2,31,-1
 -1750 1281 l 1,0,-1
-2040 776 m 256,32,33
 -1964 776 -1964 776 -1909 830 c 128,-1,34
 -1854 884 -1854 884 -1854 961 c 0,35,36
 -1854 1037 -1854 1037 -1909 1092 c 128,-1,37
 -1964 1147 -1964 1147 -2040 1147 c 256,38,39
 -2116 1147 -2116 1147 -2171 1092 c 128,-1,40
 -2226 1037 -2226 1037 -2226 961 c 0,41,42
 -2226 884 -2226 884 -2171 830 c 128,-1,43
 -2116 776 -2116 776 -2040 776 c 256,32,33
8 1970 m 0,44,45
 10 1970 10 1970 10 1967 c 0,46,47
 10 1965 10 1965 8 1965 c 0,48,49
 5 1965 5 1965 5 1967 c 0,50,51
 5 1970 5 1970 8 1970 c 0,44,45
EndSplineSet
Validated: 1
EndChar

StartChar: c
Encoding: 99 99 70
Width: 3103
Flags: W
LayerCount: 2
Fore
SplineSet
1694 1725 m 1,0,1
 1755 1725 1755 1725 1822.5 1723 c 128,-1,2
 1890 1721 1890 1721 1944 1711 c 1,3,4
 1982 1711 1982 1711 2025 1580.5 c 128,-1,5
 2068 1450 2068 1450 2126 1324 c 1,6,7
 2144 1282 2144 1282 2165 1276 c 1,8,9
 2181 1270 2181 1270 2190 1255 c 128,-1,10
 2199 1240 2199 1240 2173 1228 c 1,11,12
 2110 1216 2110 1216 2046.5 1217.5 c 128,-1,13
 1983 1219 1983 1219 1926 1228 c 1,14,15
 1871 1253 1871 1253 1841 1345.5 c 128,-1,16
 1811 1438 1811 1438 1748 1616 c 1,17,18
 1742 1626 1742 1626 1725.5 1647 c 128,-1,19
 1709 1668 1709 1668 1687 1673 c 0,20,21
 1657 1679 1657 1679 1654 1701.5 c 128,-1,22
 1651 1724 1651 1724 1694 1725 c 1,0,1
2247 1725 m 1,23,24
 2308 1725 2308 1725 2375.5 1723 c 128,-1,25
 2443 1721 2443 1721 2497 1711 c 1,26,27
 2535 1711 2535 1711 2578 1580.5 c 128,-1,28
 2621 1450 2621 1450 2680 1324 c 1,29,30
 2698 1282 2698 1282 2719 1276 c 1,31,32
 2735 1270 2735 1270 2744 1255 c 128,-1,33
 2753 1240 2753 1240 2726 1228 c 1,34,35
 2664 1216 2664 1216 2600 1217.5 c 128,-1,36
 2536 1219 2536 1219 2479 1228 c 1,37,38
 2425 1253 2425 1253 2394.5 1345.5 c 128,-1,39
 2364 1438 2364 1438 2301 1616 c 1,40,41
 2295 1626 2295 1626 2278.5 1647 c 128,-1,42
 2262 1668 2262 1668 2240 1673 c 0,43,44
 2211 1679 2211 1679 2207.5 1701.5 c 128,-1,45
 2204 1724 2204 1724 2247 1725 c 1,23,24
177.5 2127.5 m 128,-1,47
 188 2144 188 2144 201 2145.5 c 128,-1,48
 214 2147 214 2147 229 2138 c 128,-1,49
 244 2129 244 2129 266 2118 c 128,-1,50
 288 2107 288 2107 323 2100 c 128,-1,51
 358 2093 358 2093 421 2093 c 2,52,-1
 2518 2093 l 1,53,54
 2576 2094 2576 2094 2623 2084 c 128,-1,55
 2670 2074 2670 2074 2709 2053.5 c 128,-1,56
 2748 2033 2748 2033 2769.5 2016.5 c 128,-1,57
 2791 2000 2791 2000 2828.5 1961 c 128,-1,58
 2866 1922 2866 1922 2893 1884.5 c 128,-1,59
 2920 1847 2920 1847 2904 1812 c 1,60,61
 2888 1788 2888 1788 2866.5 1802 c 128,-1,62
 2845 1816 2845 1816 2816 1826.5 c 128,-1,63
 2787 1837 2787 1837 2753 1841 c 128,-1,64
 2719 1845 2719 1845 2648 1845 c 2,65,-1
 581 1845 l 1,66,67
 533 1846 533 1846 495 1852 c 128,-1,68
 457 1858 457 1858 435 1865 c 128,-1,69
 413 1872 413 1872 389 1884 c 128,-1,70
 365 1896 365 1896 337.5 1914 c 128,-1,71
 310 1932 310 1932 279 1963.5 c 128,-1,72
 248 1995 248 1995 216 2036.5 c 128,-1,73
 184 2078 184 2078 175.5 2094.5 c 128,-1,46
 167 2111 167 2111 177.5 2127.5 c 128,-1,47
EndSplineSet
Validated: 33
EndChar

StartChar: d
Encoding: 100 100 71
Width: 3103
Flags: W
LayerCount: 2
Fore
SplineSet
1772 1711 m 1,0,1
 1842 1711 1842 1711 1919 1709.5 c 128,-1,2
 1996 1708 1996 1708 2058 1700 c 1,3,4
 2101 1700 2101 1700 2140 1595 c 128,-1,5
 2179 1490 2179 1490 2250 1386 c 0,6,7
 2275 1350 2275 1350 2295 1346 c 1,8,9
 2313 1341 2313 1341 2323.5 1328.5 c 128,-1,10
 2334 1316 2334 1316 2304 1307 c 1,11,12
 2232 1296 2232 1296 2159.5 1298 c 128,-1,13
 2087 1300 2087 1300 2021 1307 c 1,14,15
 1959 1327 1959 1327 1932.5 1401.5 c 128,-1,16
 1906 1476 1906 1476 1834 1621 c 1,17,18
 1811 1655 1811 1655 1765 1662 c 0,19,20
 1732 1667 1732 1667 1727.5 1688.5 c 128,-1,21
 1723 1710 1723 1710 1772 1711 c 1,0,1
177.5 2127.5 m 128,-1,23
 188 2144 188 2144 201 2145.5 c 128,-1,24
 214 2147 214 2147 229 2138 c 128,-1,25
 244 2129 244 2129 266 2118 c 128,-1,26
 288 2107 288 2107 323 2100 c 128,-1,27
 358 2093 358 2093 421 2093 c 2,28,-1
 2518 2093 l 1,29,30
 2576 2094 2576 2094 2623 2084 c 128,-1,31
 2670 2074 2670 2074 2709 2053.5 c 128,-1,32
 2748 2033 2748 2033 2769.5 2016.5 c 128,-1,33
 2791 2000 2791 2000 2828.5 1961 c 128,-1,34
 2866 1922 2866 1922 2893 1884.5 c 128,-1,35
 2920 1847 2920 1847 2904 1812 c 1,36,37
 2888 1788 2888 1788 2866.5 1802 c 128,-1,38
 2845 1816 2845 1816 2816 1826.5 c 128,-1,39
 2787 1837 2787 1837 2753 1841 c 128,-1,40
 2719 1845 2719 1845 2648 1845 c 2,41,-1
 581 1845 l 1,42,43
 533 1846 533 1846 495 1852 c 128,-1,44
 457 1858 457 1858 435 1865 c 128,-1,45
 413 1872 413 1872 389 1884 c 128,-1,46
 365 1896 365 1896 337.5 1914 c 128,-1,47
 310 1932 310 1932 279 1963.5 c 128,-1,48
 248 1995 248 1995 216 2036.5 c 128,-1,49
 184 2078 184 2078 175.5 2094.5 c 128,-1,22
 167 2111 167 2111 177.5 2127.5 c 128,-1,23
EndSplineSet
Validated: 33
EndChar

StartChar: e
Encoding: 101 101 72
Width: 38
Flags: W
LayerCount: 2
Fore
SplineSet
-1626 2973 m 1,0,1
 -1475 2974 -1475 2974 -1322.5 2974.5 c 128,-1,2
 -1170 2975 -1170 2975 -1020 2978 c 1,3,4
 -1009 2964 -1009 2964 -1011.5 2941 c 128,-1,5
 -1014 2918 -1014 2918 -1019 2903 c 1,6,7
 -1049 2896 -1049 2896 -1220 2896 c 128,-1,8
 -1391 2896 -1391 2896 -1517 2896 c 1,9,10
 -1517 2791 -1517 2791 -1512.5 2657.5 c 128,-1,11
 -1508 2524 -1508 2524 -1520 2524 c 0,12,13
 -1551 2524 -1551 2524 -1586.5 2519.5 c 128,-1,14
 -1622 2515 -1622 2515 -1648 2524 c 1,15,16
 -1652 2524 -1652 2524 -1652 2544 c 0,17,18
 -1652 2545 -1652 2545 -1650 2546 c 128,-1,19
 -1648 2547 -1648 2547 -1648 2548 c 0,20,21
 -1648 2656 -1648 2656 -1647 2744.5 c 128,-1,22
 -1646 2833 -1646 2833 -1646 2942 c 0,23,24
 -1646 2969 -1646 2969 -1626 2973 c 1,0,1
35 1940 m 1,25,26
 37 1940 37 1940 37 1938 c 256,27,28
 37 1936 37 1936 35 1936 c 1,29,30
 35 1936 35 1936 34.5 1936.5 c 128,-1,31
 34 1937 34 1937 34 1938 c 2,32,33
 34 1938 34 1938 34.5 1939 c 128,-1,34
 35 1940 35 1940 35 1940 c 1,25,26
EndSplineSet
Validated: 33
EndChar

StartChar: f
Encoding: 102 102 73
Width: 3103
Flags: W
LayerCount: 2
Fore
SplineSet
1219 2946 m 1,0,1
 1289 2946 1289 2946 1366 2944 c 128,-1,2
 1443 2942 1443 2942 1505 2932 c 1,3,4
 1548 2932 1548 2932 1600 2763 c 128,-1,5
 1652 2594 1652 2594 1724 2466 c 0,6,7
 1748 2423 1748 2423 1769 2418 c 1,8,9
 1788 2412 1788 2412 1797.5 2396.5 c 128,-1,10
 1807 2381 1807 2381 1777 2369 c 1,11,12
 1706 2357 1706 2357 1633.5 2359 c 128,-1,13
 1561 2361 1561 2361 1495 2369 c 1,14,15
 1433 2394 1433 2394 1393 2526.5 c 128,-1,16
 1353 2659 1353 2659 1281 2837 c 1,17,18
 1275 2847 1275 2847 1256 2864 c 128,-1,19
 1237 2881 1237 2881 1212 2887 c 1,20,21
 1179 2893 1179 2893 1174.5 2919 c 128,-1,22
 1170 2945 1170 2945 1219 2946 c 1,0,1
177.5 2127.5 m 128,-1,24
 188 2144 188 2144 201 2145.5 c 128,-1,25
 214 2147 214 2147 229 2138 c 128,-1,26
 244 2129 244 2129 266 2118 c 128,-1,27
 288 2107 288 2107 323 2100 c 128,-1,28
 358 2093 358 2093 421 2093 c 2,29,-1
 2518 2093 l 1,30,31
 2576 2094 2576 2094 2623 2084 c 128,-1,32
 2670 2074 2670 2074 2709 2053.5 c 128,-1,33
 2748 2033 2748 2033 2769.5 2016.5 c 128,-1,34
 2791 2000 2791 2000 2828.5 1961 c 128,-1,35
 2866 1922 2866 1922 2893 1884.5 c 128,-1,36
 2920 1847 2920 1847 2904 1812 c 1,37,38
 2888 1788 2888 1788 2866.5 1802 c 128,-1,39
 2845 1816 2845 1816 2816 1826.5 c 128,-1,40
 2787 1837 2787 1837 2753 1841 c 128,-1,41
 2719 1845 2719 1845 2648 1845 c 2,42,-1
 581 1845 l 1,43,44
 533 1846 533 1846 495 1852 c 128,-1,45
 457 1858 457 1858 435 1865 c 128,-1,46
 413 1872 413 1872 389 1884 c 128,-1,47
 365 1896 365 1896 337.5 1914 c 128,-1,48
 310 1932 310 1932 279 1963.5 c 128,-1,49
 248 1995 248 1995 216 2036.5 c 128,-1,50
 184 2078 184 2078 175.5 2094.5 c 128,-1,23
 167 2111 167 2111 177.5 2127.5 c 128,-1,24
EndSplineSet
Validated: 33
EndChar

StartChar: g
Encoding: 103 103 74
Width: 3103
Flags: W
LayerCount: 2
Fore
SplineSet
2927 3724 m 1,0,1
 2960 3718 2960 3718 2956 3690 c 128,-1,2
 2952 3662 2952 3662 2914 3659 c 1,3,4
 2872 3644 2872 3644 2845.5 3550.5 c 128,-1,5
 2819 3457 2819 3457 2789 3353 c 0,6,7
 2720 3109 2720 3109 2662.5 2957.5 c 128,-1,8
 2605 2806 2605 2806 2553.5 2745 c 128,-1,9
 2502 2684 2502 2684 2430 2653 c 0,10,11
 2319 2605 2319 2605 2211.5 2582 c 128,-1,12
 2104 2559 2104 2559 2025 2559 c 1,13,14
 2064 2466 2064 2466 2156 2430.5 c 128,-1,15
 2248 2395 2248 2395 2209 2353 c 1,16,17
 2186 2330 2186 2330 2067 2412.5 c 128,-1,18
 1948 2495 1948 2495 1904 2575 c 1,19,20
 1904 2626 1904 2626 1945.5 2617.5 c 128,-1,21
 1987 2609 1987 2609 2035 2606 c 256,22,23
 2083 2603 2083 2603 2133 2611 c 128,-1,24
 2183 2619 2183 2619 2267 2662 c 0,25,26
 2308 2683 2308 2683 2344.5 2755.5 c 128,-1,27
 2381 2828 2381 2828 2410.5 2916.5 c 128,-1,28
 2440 3005 2440 3005 2460.5 3092 c 128,-1,29
 2481 3179 2481 3179 2514.5 3342.5 c 128,-1,30
 2548 3506 2548 3506 2572 3561.5 c 128,-1,31
 2596 3617 2596 3617 2640 3651.5 c 128,-1,32
 2684 3686 2684 3686 2724 3696 c 128,-1,33
 2764 3706 2764 3706 2813 3711 c 128,-1,34
 2862 3716 2862 3716 2927 3724 c 1,0,1
177.5 2127.5 m 128,-1,36
 188 2144 188 2144 201 2145.5 c 128,-1,37
 214 2147 214 2147 229 2138 c 128,-1,38
 244 2129 244 2129 266 2118 c 128,-1,39
 288 2107 288 2107 323 2100 c 128,-1,40
 358 2093 358 2093 421 2093 c 2,41,-1
 2518 2093 l 1,42,43
 2576 2094 2576 2094 2623 2084 c 128,-1,44
 2670 2074 2670 2074 2709 2053.5 c 128,-1,45
 2748 2033 2748 2033 2769.5 2016.5 c 128,-1,46
 2791 2000 2791 2000 2828.5 1961 c 128,-1,47
 2866 1922 2866 1922 2893 1884.5 c 128,-1,48
 2920 1847 2920 1847 2904 1812 c 1,49,50
 2888 1788 2888 1788 2866.5 1802 c 128,-1,51
 2845 1816 2845 1816 2816 1826.5 c 128,-1,52
 2787 1837 2787 1837 2753 1841 c 128,-1,53
 2719 1845 2719 1845 2648 1845 c 2,54,-1
 581 1845 l 1,55,56
 533 1846 533 1846 495 1852 c 128,-1,57
 457 1858 457 1858 435 1865 c 128,-1,58
 413 1872 413 1872 389 1884 c 128,-1,59
 365 1896 365 1896 337.5 1914 c 128,-1,60
 310 1932 310 1932 279 1963.5 c 128,-1,61
 248 1995 248 1995 216 2036.5 c 128,-1,62
 184 2078 184 2078 175.5 2094.5 c 128,-1,35
 167 2111 167 2111 177.5 2127.5 c 128,-1,36
EndSplineSet
Validated: 33
EndChar

StartChar: h
Encoding: 104 104 75
Width: 3590
Flags: W
LayerCount: 2
Fore
SplineSet
680 1625 m 1,0,1
 658 1642 658 1642 677 1657 c 128,-1,2
 696 1672 696 1672 726 1672 c 0,3,4
 758 1672 758 1672 815 1729.5 c 128,-1,5
 872 1787 872 1787 891 1871 c 1,6,7
 920 2013 920 2013 741 2105 c 1,8,9
 674 2138 674 2138 573.5 2163.5 c 128,-1,10
 473 2189 473 2189 377 2207 c 128,-1,11
 281 2225 281 2225 208 2236.5 c 128,-1,12
 135 2248 135 2248 122 2253 c 0,13,14
 95 2263 95 2263 101.5 2281.5 c 128,-1,15
 108 2300 108 2300 130 2300 c 256,16,17
 152 2300 152 2300 385 2266.5 c 128,-1,18
 618 2233 618 2233 810 2159 c 0,19,20
 924 2114 924 2114 993 2068.5 c 128,-1,21
 1062 2023 1062 2023 1120 1947 c 256,22,23
 1178 1871 1178 1871 1168.5 1794.5 c 128,-1,24
 1159 1718 1159 1718 1102 1676 c 0,25,26
 1049 1637 1049 1637 981.5 1623.5 c 128,-1,27
 914 1610 914 1610 852 1610 c 256,28,29
 790 1610 790 1610 766 1610 c 128,-1,30
 742 1610 742 1610 680 1625 c 1,0,1
1821 1629 m 1,31,32
 1743 1600 1743 1600 1558 1632 c 1,33,34
 1450 1659 1450 1659 1366.5 1704 c 128,-1,35
 1283 1749 1283 1749 1238 1862 c 1,36,37
 1208 1971 1208 1971 1218 2035.5 c 128,-1,38
 1228 2100 1228 2100 1290 2185 c 1,39,40
 1349 2256 1349 2256 1428 2293 c 128,-1,41
 1507 2330 1507 2330 1622 2354 c 1,42,43
 1736 2376 1736 2376 1808 2375.5 c 128,-1,44
 1880 2375 1880 2375 1963 2372 c 1,45,46
 2045 2368 2045 2368 2115.5 2358.5 c 128,-1,47
 2186 2349 2186 2349 2286 2318 c 1,48,49
 2452 2272 2452 2272 2614 2193 c 0,50,51
 2705 2148 2705 2148 2806.5 2096 c 128,-1,52
 2908 2044 2908 2044 3033 1973 c 1,53,54
 3091 1938 3091 1938 3158.5 1898.5 c 128,-1,55
 3226 1859 3226 1859 3305 1818 c 1,56,57
 3365 1781 3365 1781 3422.5 1743.5 c 128,-1,58
 3480 1706 3480 1706 3471 1668 c 128,-1,59
 3462 1630 3462 1630 3427 1632 c 128,-1,60
 3392 1634 3392 1634 3207.5 1630 c 128,-1,61
 3023 1626 3023 1626 2885 1629 c 1,62,63
 2830 1669 2830 1669 2886.5 1687 c 128,-1,64
 2943 1705 2943 1705 2970 1732 c 0,65,66
 3021 1785 3021 1785 3015.5 1816 c 128,-1,67
 3010 1847 3010 1847 2999 1864.5 c 128,-1,68
 2988 1882 2988 1882 2965.5 1902 c 128,-1,69
 2943 1922 2943 1922 2854 1983 c 128,-1,70
 2765 2044 2765 2044 2633 2112 c 1,71,72
 2515 2164 2515 2164 2447 2196.5 c 128,-1,73
 2379 2229 2379 2229 2227 2270 c 1,74,75
 2114 2292 2114 2292 1997.5 2297 c 128,-1,76
 1881 2302 1881 2302 1761 2263 c 1,77,78
 1677 2226 1677 2226 1642.5 2200 c 128,-1,79
 1608 2174 1608 2174 1566 2110 c 1,80,81
 1529 2048 1529 2048 1523.5 2005.5 c 128,-1,82
 1518 1963 1518 1963 1522 1907 c 1,83,84
 1525 1850 1525 1850 1536 1824.5 c 128,-1,85
 1547 1799 1547 1799 1565 1772.5 c 128,-1,86
 1583 1746 1583 1746 1610.5 1724.5 c 128,-1,87
 1638 1703 1638 1703 1695 1694 c 128,-1,88
 1752 1685 1752 1685 1808 1679 c 1,89,90
 1832 1674 1832 1674 1838.5 1658.5 c 128,-1,91
 1845 1643 1845 1643 1821 1629 c 1,31,32
EndSplineSet
Validated: 33
EndChar

StartChar: i
Encoding: 105 105 76
Width: 10
Flags: W
LayerCount: 2
Fore
SplineSet
-1197 2914 m 0,0,1
 -1178 2905 -1178 2905 -1155.5 2888.5 c 128,-1,2
 -1133 2872 -1133 2872 -1119 2862 c 0,3,4
 -1032 2802 -1032 2802 -964 2760 c 128,-1,5
 -896 2718 -896 2718 -800 2700 c 0,6,7
 -753 2691 -753 2691 -698.5 2694.5 c 128,-1,8
 -644 2698 -644 2698 -623 2707 c 1,9,10
 -563 2728 -563 2728 -557.5 2780.5 c 128,-1,11
 -552 2833 -552 2833 -570 2866 c 0,12,13
 -582 2888 -582 2888 -578.5 2915 c 128,-1,14
 -575 2942 -575 2942 -551 2947 c 1,15,16
 -443 2938 -443 2938 -368.5 2880 c 128,-1,17
 -294 2822 -294 2822 -290 2778 c 1,18,-1
 -290 2760 l 1,19,20
 -289 2723 -289 2723 -328.5 2670 c 128,-1,21
 -368 2617 -368 2617 -452 2597 c 0,22,23
 -651 2551 -651 2551 -842 2626 c 0,24,25
 -950 2668 -950 2668 -1052.5 2724 c 128,-1,26
 -1155 2780 -1155 2780 -1239 2846 c 0,27,28
 -1265 2867 -1265 2867 -1250 2899.5 c 128,-1,29
 -1235 2932 -1235 2932 -1197 2914 c 0,0,1
8 1970 m 0,30,31
 10 1970 10 1970 10 1967 c 0,32,33
 10 1965 10 1965 8 1965 c 0,34,35
 5 1965 5 1965 5 1967 c 0,36,37
 5 1970 5 1970 8 1970 c 0,30,31
EndSplineSet
Validated: 33
EndChar

StartChar: j
Encoding: 106 106 77
Width: 1440
Flags: W
LayerCount: 2
Fore
SplineSet
851 1654 m 1,0,1
 828 1672 828 1672 848.5 1687.5 c 128,-1,2
 869 1703 869 1703 899 1703 c 0,3,4
 932 1703 932 1703 992 1763.5 c 128,-1,5
 1052 1824 1052 1824 1072 1912 c 1,6,7
 1102 2062 1102 2062 915 2157 c 1,8,9
 713 2258 713 2258 393 2290 c 0,10,11
 338 2295 338 2295 272 2294.5 c 128,-1,12
 206 2294 206 2294 197 2297 c 0,13,14
 169 2307 169 2307 175.5 2331.5 c 128,-1,15
 182 2356 182 2356 206 2358 c 0,16,17
 228 2360 228 2360 316.5 2354.5 c 128,-1,18
 405 2349 405 2349 511 2334 c 0,19,20
 631 2316 631 2316 755.5 2286 c 128,-1,21
 880 2256 880 2256 987 2214 c 0,22,23
 1107 2166 1107 2166 1179.5 2118.5 c 128,-1,24
 1252 2071 1252 2071 1312 1992 c 1,25,26
 1372 1911 1372 1911 1362.5 1831.5 c 128,-1,27
 1353 1752 1353 1752 1293 1707 c 1,28,29
 1238 1667 1238 1667 1167 1652.5 c 128,-1,30
 1096 1638 1096 1638 1031 1638 c 256,31,32
 966 1638 966 1638 941 1638.5 c 128,-1,33
 916 1639 916 1639 851 1654 c 1,0,1
EndSplineSet
Validated: 33
EndChar

StartChar: k
Encoding: 107 107 78
Width: 2547
Flags: W
LayerCount: 2
Fore
SplineSet
767 1629 m 1,0,1
 689 1600 689 1600 504 1632 c 1,2,3
 396 1659 396 1659 312.5 1704 c 128,-1,4
 229 1749 229 1749 184 1862 c 1,5,6
 154 1971 154 1971 164 2035.5 c 128,-1,7
 174 2100 174 2100 236 2185 c 1,8,9
 295 2256 295 2256 374 2293 c 128,-1,10
 453 2330 453 2330 568 2354 c 1,11,12
 682 2376 682 2376 754 2375.5 c 128,-1,13
 826 2375 826 2375 909 2372 c 1,14,15
 991 2368 991 2368 1061.5 2358.5 c 128,-1,16
 1132 2349 1132 2349 1232 2318 c 1,17,18
 1398 2272 1398 2272 1560 2193 c 0,19,20
 1651 2148 1651 2148 1752.5 2096 c 128,-1,21
 1854 2044 1854 2044 1979 1973 c 1,22,23
 2037 1938 2037 1938 2104.5 1898.5 c 128,-1,24
 2172 1859 2172 1859 2251 1818 c 1,25,26
 2311 1781 2311 1781 2368.5 1743.5 c 128,-1,27
 2426 1706 2426 1706 2417 1668 c 128,-1,28
 2408 1630 2408 1630 2373 1632 c 128,-1,29
 2338 1634 2338 1634 2153.5 1630 c 128,-1,30
 1969 1626 1969 1626 1831 1629 c 1,31,32
 1776 1669 1776 1669 1832.5 1687 c 128,-1,33
 1889 1705 1889 1705 1916 1732 c 0,34,35
 1967 1785 1967 1785 1961.5 1816 c 128,-1,36
 1956 1847 1956 1847 1945 1864.5 c 128,-1,37
 1934 1882 1934 1882 1911.5 1902 c 128,-1,38
 1889 1922 1889 1922 1800 1983 c 128,-1,39
 1711 2044 1711 2044 1579 2112 c 1,40,41
 1461 2164 1461 2164 1393 2196.5 c 128,-1,42
 1325 2229 1325 2229 1173 2270 c 1,43,44
 1060 2292 1060 2292 943.5 2297 c 128,-1,45
 827 2302 827 2302 707 2263 c 1,46,47
 623 2226 623 2226 588.5 2200 c 128,-1,48
 554 2174 554 2174 512 2110 c 1,49,50
 475 2048 475 2048 469.5 2005.5 c 128,-1,51
 464 1963 464 1963 468 1907 c 1,52,53
 471 1850 471 1850 482 1824.5 c 128,-1,54
 493 1799 493 1799 511 1772.5 c 128,-1,55
 529 1746 529 1746 556.5 1724.5 c 128,-1,56
 584 1703 584 1703 641 1694 c 128,-1,57
 698 1685 698 1685 754 1679 c 1,58,59
 778 1674 778 1674 784.5 1658.5 c 128,-1,60
 791 1643 791 1643 767 1629 c 1,0,1
EndSplineSet
Validated: 33
EndChar

StartChar: l
Encoding: 108 108 79
Width: 2547
Flags: W
LayerCount: 2
Fore
SplineSet
767 1629 m 1,0,1
 689 1600 689 1600 504 1632 c 1,2,3
 396 1659 396 1659 312.5 1704 c 128,-1,4
 229 1749 229 1749 184 1862 c 1,5,6
 154 1971 154 1971 164 2035.5 c 128,-1,7
 174 2100 174 2100 236 2185 c 1,8,9
 295 2256 295 2256 374 2293 c 128,-1,10
 453 2330 453 2330 568 2354 c 1,11,12
 682 2376 682 2376 754 2375.5 c 128,-1,13
 826 2375 826 2375 909 2372 c 1,14,15
 991 2368 991 2368 1061.5 2358.5 c 128,-1,16
 1132 2349 1132 2349 1232 2318 c 1,17,18
 1398 2272 1398 2272 1560 2193 c 0,19,20
 1651 2148 1651 2148 1752.5 2096 c 128,-1,21
 1854 2044 1854 2044 1979 1973 c 1,22,23
 2037 1938 2037 1938 2104.5 1898.5 c 128,-1,24
 2172 1859 2172 1859 2251 1818 c 1,25,26
 2311 1781 2311 1781 2368.5 1743.5 c 128,-1,27
 2426 1706 2426 1706 2417 1668 c 128,-1,28
 2408 1630 2408 1630 2373 1632 c 128,-1,29
 2338 1634 2338 1634 2153.5 1630 c 128,-1,30
 1969 1626 1969 1626 1831 1629 c 1,31,32
 1776 1669 1776 1669 1832.5 1687 c 128,-1,33
 1889 1705 1889 1705 1916 1732 c 0,34,35
 1967 1785 1967 1785 1961.5 1816 c 128,-1,36
 1956 1847 1956 1847 1945 1864.5 c 128,-1,37
 1934 1882 1934 1882 1911.5 1902 c 128,-1,38
 1889 1922 1889 1922 1800 1983 c 128,-1,39
 1711 2044 1711 2044 1579 2112 c 1,40,41
 1461 2164 1461 2164 1393 2196.5 c 128,-1,42
 1325 2229 1325 2229 1173 2270 c 1,43,44
 1060 2292 1060 2292 943.5 2297 c 128,-1,45
 827 2302 827 2302 707 2263 c 1,46,47
 623 2226 623 2226 588.5 2200 c 128,-1,48
 554 2174 554 2174 512 2110 c 1,49,50
 475 2048 475 2048 469.5 2005.5 c 128,-1,51
 464 1963 464 1963 468 1907 c 1,52,53
 471 1850 471 1850 482 1824.5 c 128,-1,54
 493 1799 493 1799 511 1772.5 c 128,-1,55
 529 1746 529 1746 556.5 1724.5 c 128,-1,56
 584 1703 584 1703 641 1694 c 128,-1,57
 698 1685 698 1685 754 1679 c 1,58,59
 778 1674 778 1674 784.5 1658.5 c 128,-1,60
 791 1643 791 1643 767 1629 c 1,0,1
1189 1413 m 1,61,62
 1168 1430 1168 1430 1186.5 1444 c 128,-1,63
 1205 1458 1205 1458 1232 1458 c 0,64,65
 1262 1458 1262 1458 1316.5 1512 c 128,-1,66
 1371 1566 1371 1566 1389 1647 c 1,67,68
 1417 1783 1417 1783 1247 1869 c 1,69,70
 1182 1900 1182 1900 1083.5 1924.5 c 128,-1,71
 985 1949 985 1949 889 1968 c 128,-1,72
 793 1987 793 1987 719 1998 c 128,-1,73
 645 2009 645 2009 633 2015 c 1,74,75
 607 2025 607 2025 612.5 2042 c 128,-1,76
 618 2059 618 2059 640 2059 c 1,77,78
 651 2058 651 2058 723 2050 c 128,-1,79
 795 2042 795 2042 896 2025 c 128,-1,80
 997 2008 997 2008 1109 1982 c 128,-1,81
 1221 1956 1221 1956 1313 1920 c 0,82,83
 1421 1877 1421 1877 1486.5 1834 c 128,-1,84
 1552 1791 1552 1791 1606 1719 c 0,85,86
 1660 1646 1660 1646 1651.5 1573.5 c 128,-1,87
 1643 1501 1643 1501 1589 1461 c 0,88,89
 1539 1424 1539 1424 1474.5 1411.5 c 128,-1,90
 1410 1399 1410 1399 1352 1399 c 256,91,92
 1294 1399 1294 1399 1270.5 1399.5 c 128,-1,93
 1247 1400 1247 1400 1189 1413 c 1,61,62
EndSplineSet
Validated: 33
EndChar

StartChar: m
Encoding: 109 109 80
Width: 16
Flags: W
LayerCount: 2
Fore
SplineSet
-2698 1473 m 1,0,1
 -2391 1488 -2391 1488 -1975 1509.5 c 128,-1,2
 -1559 1531 -1559 1531 -1253 1522 c 0,3,4
 -987 1515 -987 1515 -741.5 1490 c 128,-1,5
 -496 1465 -496 1465 -367 1436 c 0,6,7
 -235 1406 -235 1406 -125.5 1335 c 128,-1,8
 -16 1264 -16 1264 0 1192 c 256,9,10
 16 1120 16 1120 2 1071 c 128,-1,11
 -12 1022 -12 1022 -158 957 c 1,12,13
 -261 935 -261 935 -374.5 927.5 c 128,-1,14
 -488 920 -488 920 -573 922 c 1,15,16
 -607 936 -607 936 -578 951.5 c 128,-1,17
 -549 967 -549 967 -496.5 992.5 c 128,-1,18
 -444 1018 -444 1018 -388.5 1058 c 128,-1,19
 -333 1098 -333 1098 -316 1160 c 1,20,21
 -283 1273 -283 1273 -415 1332 c 128,-1,22
 -547 1391 -547 1391 -730.5 1417 c 128,-1,23
 -914 1443 -914 1443 -1093 1447 c 128,-1,24
 -1272 1451 -1272 1451 -1334 1454 c 0,25,26
 -1463 1460 -1463 1460 -1692 1451.5 c 128,-1,27
 -1921 1443 -1921 1443 -2144.5 1430.5 c 128,-1,28
 -2368 1418 -2368 1418 -2533 1407 c 128,-1,29
 -2698 1396 -2698 1396 -2698 1396 c 1,30,31
 -2731 1402 -2731 1402 -2730 1435.5 c 128,-1,32
 -2729 1469 -2729 1469 -2698 1473 c 1,0,1
EndSplineSet
Validated: 33
EndChar

StartChar: n
Encoding: 110 110 81
Width: 0
Flags: W
LayerCount: 2
Fore
SplineSet
-825 1247 m 1,0,-1
 -754 1317 l 1,1,-1
 -732 1344 l 1,2,3
 -710 1366 -710 1366 -689 1345 c 128,-1,4
 -668 1324 -668 1324 -691 1300 c 1,5,-1
 -749 1245 l 1,6,-1
 -787 1208 l 1,7,-1
 -691 1109 l 1,8,9
 -670 1091 -670 1091 -692 1072.5 c 128,-1,10
 -714 1054 -714 1054 -731 1072 c 2,11,-1
 -826 1170 l 1,12,-1
 -927 1073 l 1,13,14
 -878 1008 -878 1008 -878 929 c 0,15,16
 -878 831 -878 831 -947 762.5 c 128,-1,17
 -1016 694 -1016 694 -1113 694 c 256,18,19
 -1210 694 -1210 694 -1279 762.5 c 128,-1,20
 -1348 831 -1348 831 -1348 929 c 0,21,22
 -1348 1025 -1348 1025 -1279 1094.5 c 128,-1,23
 -1210 1164 -1210 1164 -1113 1164 c 0,24,25
 -1027 1164 -1027 1164 -962 1109 c 1,26,-1
 -863 1208 l 1,27,-1
 -962 1310 l 2,28,29
 -982 1331 -982 1331 -961 1348 c 128,-1,30
 -940 1365 -940 1365 -923 1347 c 2,31,-1
 -825 1247 l 1,0,-1
-1113 744 m 0,32,33
 -1036 744 -1036 744 -982 798 c 128,-1,34
 -928 852 -928 852 -928 929 c 0,35,36
 -928 1004 -928 1004 -982 1058.5 c 128,-1,37
 -1036 1113 -1036 1113 -1113 1113 c 0,38,39
 -1188 1113 -1188 1113 -1242.5 1058.5 c 128,-1,40
 -1297 1004 -1297 1004 -1297 929 c 0,41,42
 -1297 852 -1297 852 -1242.5 798 c 128,-1,43
 -1188 744 -1188 744 -1113 744 c 0,32,33
8 1970 m 0,44,45
 10 1970 10 1970 10 1967 c 0,46,47
 10 1965 10 1965 8 1965 c 0,48,49
 5 1965 5 1965 5 1967 c 0,50,51
 5 1970 5 1970 8 1970 c 0,44,45
EndSplineSet
Validated: 1
EndChar

StartChar: o
Encoding: 111 111 82
Width: 599
Flags: W
LayerCount: 2
Fore
SplineSet
265 2299 m 1,0,1
 267 2321 267 2321 297.5 2319.5 c 128,-1,2
 328 2318 328 2318 330 2300 c 1,3,-1
 330 1843 l 2,4,5
 330 1818 330 1818 330 1818 c 1,6,7
 318 1796 318 1796 291.5 1799 c 128,-1,8
 265 1802 265 1802 265 1818 c 2,9,-1
 265 2275 l 2,10,11
 265 2299 265 2299 265 2299 c 1,0,1
EndSplineSet
Validated: 1
EndChar

StartChar: p
Encoding: 112 112 83
Width: 797
Flags: W
LayerCount: 2
Fore
SplineSet
274 2299 m 1,0,1
 276 2321 276 2321 306.5 2319.5 c 128,-1,2
 337 2318 337 2318 339 2300 c 1,3,-1
 339 1843 l 2,4,5
 339 1818 339 1818 339 1818 c 1,6,7
 327 1796 327 1796 300.5 1799 c 128,-1,8
 274 1802 274 1802 274 1818 c 2,9,-1
 274 2275 l 2,10,11
 274 2299 274 2299 274 2299 c 1,0,1
464 2296 m 1,12,13
 466 2317 466 2317 496.5 2316 c 128,-1,14
 527 2315 527 2315 529 2296 c 1,15,-1
 529 1843 l 2,16,17
 529 1818 529 1818 529 1818 c 1,18,19
 517 1796 517 1796 490.5 1799 c 128,-1,20
 464 1802 464 1802 464 1818 c 2,21,-1
 464 2272 l 2,22,23
 464 2296 464 2296 464 2296 c 1,12,13
EndSplineSet
Validated: 1
EndChar

StartChar: q
Encoding: 113 113 84
Width: 586
Flags: W
LayerCount: 2
Fore
SplineSet
8 2260 m 0,0,1
 10 2260 10 2260 10 2257 c 0,2,3
 10 2255 10 2255 8 2255 c 0,4,5
 5 2255 5 2255 5 2257 c 0,6,7
 5 2260 5 2260 8 2260 c 0,0,1
243 1668 m 0,8,9
 195 1757 195 1757 238 1812 c 1,10,11
 289 1856 289 1856 337 1812 c 2,12,-1
 409 1744 l 1,13,14
 418 1739 418 1739 412.5 1727 c 128,-1,15
 407 1715 407 1715 389 1719 c 1,16,17
 365 1726 365 1726 342 1723.5 c 128,-1,18
 319 1721 319 1721 311 1681 c 1,19,20
 304 1628 304 1628 330 1598.5 c 128,-1,21
 356 1569 356 1569 394 1549 c 1,22,23
 433 1530 433 1530 463 1530.5 c 128,-1,24
 493 1531 493 1531 521 1535 c 1,25,26
 585 1540 585 1540 655.5 1554 c 128,-1,27
 726 1568 726 1568 793 1583 c 1,28,29
 810 1588 810 1588 840 1589 c 0,30,31
 868 1589 868 1589 906.5 1536 c 128,-1,32
 945 1483 945 1483 952.5 1466.5 c 128,-1,33
 960 1450 960 1450 951.5 1438 c 128,-1,34
 943 1426 943 1426 922.5 1437.5 c 128,-1,35
 902 1449 902 1449 858 1456.5 c 128,-1,36
 814 1464 814 1464 778 1464 c 2,37,-1
 660 1464 l 1,38,39
 587 1463 587 1463 510 1475.5 c 128,-1,40
 433 1488 433 1488 376 1525 c 0,41,42
 338 1550 338 1550 299.5 1592 c 128,-1,43
 261 1634 261 1634 243 1668 c 0,8,9
EndSplineSet
Validated: 33
EndChar

StartChar: r
Encoding: 114 114 85
Width: 38
Flags: W
LayerCount: 2
Fore
SplineSet
-952 3284 m 1,0,1
 -801 3285 -801 3285 -648.5 3286 c 128,-1,2
 -496 3287 -496 3287 -346 3289 c 1,3,4
 -335 3275 -335 3275 -337.5 3252 c 128,-1,5
 -340 3229 -340 3229 -345 3214 c 1,6,7
 -375 3207 -375 3207 -546 3207.5 c 128,-1,8
 -717 3208 -717 3208 -843 3208 c 1,9,10
 -843 3102 -843 3102 -838.5 2990.5 c 128,-1,11
 -834 2879 -834 2879 -846 2877 c 1,12,13
 -877 2877 -877 2877 -912.5 2872.5 c 128,-1,14
 -948 2868 -948 2868 -975 2877 c 0,15,16
 -978 2877 -978 2877 -978 2898 c 0,17,18
 -978 2899 -978 2899 -976.5 2900 c 128,-1,19
 -975 2901 -975 2901 -975 2903 c 0,20,21
 -975 3011 -975 3011 -973.5 3078 c 128,-1,22
 -972 3145 -972 3145 -972 3253 c 0,23,24
 -972 3281 -972 3281 -952 3284 c 1,0,1
35 1940 m 1,25,26
 37 1940 37 1940 37 1938 c 256,27,28
 37 1936 37 1936 35 1936 c 1,29,30
 35 1936 35 1936 34.5 1936.5 c 128,-1,31
 34 1937 34 1937 34 1938 c 2,32,33
 34 1938 34 1938 34.5 1939 c 128,-1,34
 35 1940 35 1940 35 1940 c 1,25,26
EndSplineSet
Validated: 33
EndChar

StartChar: s
Encoding: 115 115 86
Width: 3103
Flags: W
LayerCount: 2
Fore
SplineSet
139.5 2127.5 m 128,-1,1
 150 2144 150 2144 163 2145.5 c 128,-1,2
 176 2147 176 2147 191 2138 c 128,-1,3
 206 2129 206 2129 228 2118 c 128,-1,4
 250 2107 250 2107 285 2100 c 128,-1,5
 320 2093 320 2093 383 2093 c 2,6,-1
 2480 2093 l 1,7,8
 2538 2094 2538 2094 2585 2084 c 128,-1,9
 2632 2074 2632 2074 2671 2053.5 c 128,-1,10
 2710 2033 2710 2033 2731.5 2016.5 c 128,-1,11
 2753 2000 2753 2000 2790.5 1961 c 128,-1,12
 2828 1922 2828 1922 2855 1884.5 c 128,-1,13
 2882 1847 2882 1847 2866 1812 c 1,14,15
 2850 1788 2850 1788 2828.5 1802 c 128,-1,16
 2807 1816 2807 1816 2778 1826.5 c 128,-1,17
 2749 1837 2749 1837 2715 1841 c 128,-1,18
 2681 1845 2681 1845 2610 1845 c 2,19,-1
 543 1845 l 1,20,21
 495 1846 495 1846 457 1852 c 128,-1,22
 419 1858 419 1858 397 1865 c 128,-1,23
 375 1872 375 1872 351 1884 c 128,-1,24
 327 1896 327 1896 299.5 1914 c 128,-1,25
 272 1932 272 1932 241 1963.5 c 128,-1,26
 210 1995 210 1995 178 2036.5 c 128,-1,27
 146 2078 146 2078 137.5 2094.5 c 128,-1,0
 129 2111 129 2111 139.5 2127.5 c 128,-1,1
EndSplineSet
Validated: 33
EndChar

StartChar: t
Encoding: 116 116 87
Width: 0
Flags: W
LayerCount: 2
Fore
SplineSet
19 1970 m 0,0,1
 21 1970 21 1970 21 1967 c 0,2,3
 21 1965 21 1965 19 1965 c 0,4,5
 16 1965 16 1965 16 1967 c 0,6,7
 16 1970 16 1970 19 1970 c 0,0,1
-1261 2920 m 1,8,-1
 -1471 2709 l 1,9,-1
 -1493 2683 l 1,10,11
 -1514 2660 -1514 2660 -1534.5 2681.5 c 128,-1,12
 -1555 2703 -1555 2703 -1533 2727 c 1,13,-1
 -1475 2783 l 1,14,-1
 -1296 2956 l 1,15,16
 -1346 3019 -1346 3019 -1346 3101 c 0,17,18
 -1346 3199 -1346 3199 -1276 3268.5 c 128,-1,19
 -1206 3338 -1206 3338 -1109 3338 c 0,20,21
 -1011 3338 -1011 3338 -941.5 3268.5 c 128,-1,22
 -872 3199 -872 3199 -872 3101 c 256,23,24
 -872 3003 -872 3003 -941.5 2933.5 c 128,-1,25
 -1011 2864 -1011 2864 -1109 2864 c 0,26,27
 -1195 2864 -1195 2864 -1261 2920 c 1,8,-1
-1109 3286 m 0,28,29
 -1185 3286 -1185 3286 -1240.5 3231.5 c 128,-1,30
 -1296 3177 -1296 3177 -1296 3101 c 0,31,32
 -1296 3024 -1296 3024 -1240.5 2969.5 c 128,-1,33
 -1185 2915 -1185 2915 -1109 2915 c 0,34,35
 -1032 2915 -1032 2915 -978 2969.5 c 128,-1,36
 -924 3024 -924 3024 -924 3101 c 0,37,38
 -924 3177 -924 3177 -978 3231.5 c 128,-1,39
 -1032 3286 -1032 3286 -1109 3286 c 0,28,29
EndSplineSet
Validated: 1
EndChar

StartChar: u
Encoding: 117 117 88
Width: 10
Flags: W
LayerCount: 2
Fore
SplineSet
8 1970 m 0,0,1
 10 1970 10 1970 10 1967 c 0,2,3
 10 1965 10 1965 8 1965 c 0,4,5
 5 1965 5 1965 5 1967 c 0,6,7
 5 1970 5 1970 8 1970 c 0,0,1
-1884 2792 m 0,8,9
 -1866 2783 -1866 2783 -1843.5 2766.5 c 128,-1,10
 -1821 2750 -1821 2750 -1807 2741 c 0,11,12
 -1720 2681 -1720 2681 -1652 2638.5 c 128,-1,13
 -1584 2596 -1584 2596 -1487 2578 c 0,14,15
 -1441 2569 -1441 2569 -1386 2573 c 128,-1,16
 -1331 2577 -1331 2577 -1310 2585 c 0,17,18
 -1250 2606 -1250 2606 -1244.5 2658.5 c 128,-1,19
 -1239 2711 -1239 2711 -1257 2744 c 0,20,21
 -1269 2766 -1269 2766 -1266 2793 c 128,-1,22
 -1263 2820 -1263 2820 -1238 2826 c 1,23,24
 -1130 2817 -1130 2817 -1058.5 2767 c 128,-1,25
 -987 2717 -987 2717 -978 2668 c 1,26,-1
 -977 2656 l 1,27,28
 -977 2601 -977 2601 -1016 2548 c 128,-1,29
 -1055 2495 -1055 2495 -1139 2475 c 0,30,31
 -1337 2429 -1337 2429 -1529 2505 c 0,32,33
 -1637 2547 -1637 2547 -1739.5 2602.5 c 128,-1,34
 -1842 2658 -1842 2658 -1926 2724 c 0,35,36
 -1953 2745 -1953 2745 -1937.5 2777.5 c 128,-1,37
 -1922 2810 -1922 2810 -1884 2792 c 0,8,9
EndSplineSet
Validated: 33
EndChar

StartChar: v
Encoding: 118 118 89
Width: 3001
Flags: W
LayerCount: 2
Fore
SplineSet
1625 2768 m 1,0,1
 1686 2768 1686 2768 1753.5 2766 c 128,-1,2
 1821 2764 1821 2764 1875 2754 c 1,3,4
 1913 2754 1913 2754 1956 2623 c 128,-1,5
 1999 2492 1999 2492 2057 2367 c 0,6,7
 2077 2323 2077 2323 2096 2319 c 1,8,9
 2112 2313 2112 2313 2121 2297.5 c 128,-1,10
 2130 2282 2130 2282 2104 2270 c 1,11,12
 2041 2258 2041 2258 1977.5 2260 c 128,-1,13
 1914 2262 1914 2262 1857 2270 c 1,14,15
 1802 2295 1802 2295 1772 2388 c 128,-1,16
 1742 2481 1742 2481 1679 2658 c 1,17,18
 1673 2668 1673 2668 1656.5 2689.5 c 128,-1,19
 1640 2711 1640 2711 1618 2716 c 1,20,21
 1588 2721 1588 2721 1585 2743.5 c 128,-1,22
 1582 2766 1582 2766 1625 2768 c 1,0,1
1071 2768 m 1,23,24
 1132 2768 1132 2768 1199.5 2766 c 128,-1,25
 1267 2764 1267 2764 1321 2754 c 1,26,27
 1359 2754 1359 2754 1402 2623 c 128,-1,28
 1445 2492 1445 2492 1504 2367 c 1,29,30
 1522 2324 1522 2324 1543 2319 c 1,31,32
 1559 2313 1559 2313 1568 2297.5 c 128,-1,33
 1577 2282 1577 2282 1550 2270 c 1,34,35
 1488 2258 1488 2258 1424 2260 c 128,-1,36
 1360 2262 1360 2262 1303 2270 c 1,37,38
 1249 2295 1249 2295 1218.5 2388 c 128,-1,39
 1188 2481 1188 2481 1125 2658 c 1,40,41
 1119 2668 1119 2668 1102.5 2689.5 c 128,-1,42
 1086 2711 1086 2711 1064 2716 c 1,43,44
 1035 2721 1035 2721 1031.5 2743.5 c 128,-1,45
 1028 2766 1028 2766 1071 2768 c 1,23,24
177.5 2127.5 m 128,-1,47
 188 2144 188 2144 201 2145.5 c 128,-1,48
 214 2147 214 2147 229 2138 c 128,-1,49
 244 2129 244 2129 266 2118 c 128,-1,50
 288 2107 288 2107 323 2100 c 128,-1,51
 358 2093 358 2093 421 2093 c 2,52,-1
 2478 2093 l 1,53,54
 2536 2094 2536 2094 2583 2084 c 128,-1,55
 2630 2074 2630 2074 2669 2053.5 c 128,-1,56
 2708 2033 2708 2033 2729.5 2016.5 c 128,-1,57
 2751 2000 2751 2000 2788.5 1961 c 128,-1,58
 2826 1922 2826 1922 2853 1884.5 c 128,-1,59
 2880 1847 2880 1847 2864 1812 c 1,60,61
 2848 1788 2848 1788 2826.5 1802 c 128,-1,62
 2805 1816 2805 1816 2776 1826.5 c 128,-1,63
 2747 1837 2747 1837 2713 1841 c 128,-1,64
 2679 1845 2679 1845 2608 1845 c 2,65,-1
 581 1845 l 1,66,67
 533 1846 533 1846 495 1852 c 128,-1,68
 457 1858 457 1858 435 1865 c 128,-1,69
 413 1872 413 1872 389 1884 c 128,-1,70
 365 1896 365 1896 337.5 1914 c 128,-1,71
 310 1932 310 1932 279 1963.5 c 128,-1,72
 248 1995 248 1995 216 2036.5 c 128,-1,73
 184 2078 184 2078 175.5 2094.5 c 128,-1,46
 167 2111 167 2111 177.5 2127.5 c 128,-1,47
EndSplineSet
Validated: 33
EndChar

StartChar: w
Encoding: 119 119 90
Width: 37
Flags: W
LayerCount: 2
Fore
SplineSet
34 1965 m 0,0,1
 36 1965 36 1965 36 1963 c 256,2,3
 36 1961 36 1961 34 1961 c 0,4,5
 31 1961 31 1961 31 1963 c 256,6,7
 31 1965 31 1965 34 1965 c 0,0,1
-1064 2979 m 1,8,9
 -1044 2976 -1044 2976 -1044 2948 c 0,10,11
 -1044 2839 -1044 2839 -1042 2747 c 128,-1,12
 -1040 2655 -1040 2655 -1040 2547 c 0,13,14
 -1040 2546 -1040 2546 -1038 2544.5 c 128,-1,15
 -1036 2543 -1036 2543 -1036 2543 c 1,16,17
 -1036 2522 -1036 2522 -1040 2522 c 1,18,19
 -1065 2513 -1065 2513 -1100.5 2517.5 c 128,-1,20
 -1136 2522 -1136 2522 -1169 2522 c 1,21,22
 -1180 2523 -1180 2523 -1175 2656.5 c 128,-1,23
 -1170 2790 -1170 2790 -1171 2895 c 1,24,25
 -1296 2898 -1296 2898 -1467 2893 c 128,-1,26
 -1638 2888 -1638 2888 -1669 2895 c 1,27,28
 -1681 2907 -1681 2907 -1679.5 2934.5 c 128,-1,29
 -1678 2962 -1678 2962 -1668 2977 c 1,30,31
 -1517 2974 -1517 2974 -1365.5 2977 c 128,-1,32
 -1214 2980 -1214 2980 -1064 2979 c 1,8,9
EndSplineSet
Validated: 33
EndChar

StartChar: x
Encoding: 120 120 91
Width: 1512
Flags: W
LayerCount: 2
Fore
SplineSet
220 2267 m 1,0,1
 290 2267 290 2267 367 2265 c 128,-1,2
 444 2263 444 2263 506 2253 c 1,3,4
 549 2253 549 2253 601 2084 c 128,-1,5
 653 1915 653 1915 725 1787 c 0,6,7
 749 1744 749 1744 770 1738 c 0,8,9
 789 1732 789 1732 798.5 1717 c 128,-1,10
 808 1702 808 1702 778 1690 c 1,11,12
 707 1678 707 1678 634.5 1680 c 128,-1,13
 562 1682 562 1682 496 1690 c 1,14,15
 434 1715 434 1715 394 1847.5 c 128,-1,16
 354 1980 354 1980 282 2157 c 1,17,18
 276 2168 276 2168 257 2185 c 128,-1,19
 238 2202 238 2202 213 2207 c 0,20,21
 180 2213 180 2213 175.5 2239 c 128,-1,22
 171 2265 171 2265 220 2267 c 1,0,1
852 2267 m 1,23,24
 922 2267 922 2267 999 2265 c 128,-1,25
 1076 2263 1076 2263 1138 2253 c 1,26,27
 1181 2253 1181 2253 1233 2084 c 128,-1,28
 1285 1915 1285 1915 1357 1787 c 0,29,30
 1381 1744 1381 1744 1402 1738 c 0,31,32
 1421 1732 1421 1732 1430.5 1717 c 128,-1,33
 1440 1702 1440 1702 1410 1690 c 1,34,35
 1339 1678 1339 1678 1266.5 1680 c 128,-1,36
 1194 1682 1194 1682 1128 1690 c 1,37,38
 1066 1715 1066 1715 1026 1847.5 c 128,-1,39
 986 1980 986 1980 914 2157 c 1,40,41
 908 2168 908 2168 889 2185 c 128,-1,42
 870 2202 870 2202 844 2207 c 0,43,44
 811 2213 811 2213 807 2239 c 128,-1,45
 803 2265 803 2265 852 2267 c 1,23,24
EndSplineSet
Validated: 33
EndChar

StartChar: y
Encoding: 121 121 92
Width: 0
Flags: W
LayerCount: 2
Fore
SplineSet
-183 2919 m 1,0,-1
 -392 2711 l 1,1,-1
 -415 2684 l 2,2,3
 -435 2661 -435 2661 -455.5 2682.5 c 128,-1,4
 -476 2704 -476 2704 -455 2727 c 1,5,-1
 -396 2784 l 1,6,-1
 -219 2956 l 1,7,8
 -269 3019 -269 3019 -269 3099 c 0,9,10
 -269 3196 -269 3196 -199 3265 c 128,-1,11
 -129 3334 -129 3334 -33 3334 c 0,12,13
 64 3334 64 3334 132.5 3265 c 128,-1,14
 201 3196 201 3196 201 3099 c 256,15,16
 201 3002 201 3002 132.5 2933 c 128,-1,17
 64 2864 64 2864 -33 2864 c 0,18,19
 -117 2864 -117 2864 -183 2919 c 1,0,-1
-33 3284 m 256,20,21
 -109 3284 -109 3284 -163 3229.5 c 128,-1,22
 -217 3175 -217 3175 -217 3099 c 256,23,24
 -217 3023 -217 3023 -163 2969 c 128,-1,25
 -109 2915 -109 2915 -33 2915 c 256,26,27
 43 2915 43 2915 97 2969 c 128,-1,28
 151 3023 151 3023 151 3099 c 256,29,30
 151 3175 151 3175 97 3229.5 c 128,-1,31
 43 3284 43 3284 -33 3284 c 256,20,21
EndSplineSet
Validated: 1
EndChar

StartChar: z
Encoding: 122 122 93
Width: 3226
Flags: W
LayerCount: 2
Fore
SplineSet
364 1169 m 1,0,1
 671 1184 671 1184 1087 1206 c 128,-1,2
 1503 1228 1503 1228 1809 1219 c 0,3,4
 2074 1211 2074 1211 2320 1186 c 128,-1,5
 2566 1161 2566 1161 2695 1133 c 1,6,7
 2826 1103 2826 1103 2935 1032 c 128,-1,8
 3044 961 3044 961 3062 889 c 1,9,10
 3078 817 3078 817 3063.5 768 c 128,-1,11
 3049 719 3049 719 2903 654 c 1,12,13
 2799 631 2799 631 2685.5 624 c 128,-1,14
 2572 617 2572 617 2488 619 c 1,15,16
 2453 632 2453 632 2482.5 648 c 128,-1,17
 2512 664 2512 664 2564.5 689.5 c 128,-1,18
 2617 715 2617 715 2672 755 c 128,-1,19
 2727 795 2727 795 2745 857 c 0,20,21
 2777 970 2777 970 2645 1029 c 128,-1,22
 2513 1088 2513 1088 2330 1114 c 128,-1,23
 2147 1140 2147 1140 1968 1143.5 c 128,-1,24
 1789 1147 1789 1147 1728 1150 c 0,25,26
 1598 1156 1598 1156 1369 1148 c 128,-1,27
 1140 1140 1140 1140 916.5 1127.5 c 128,-1,28
 693 1115 693 1115 528.5 1104 c 128,-1,29
 364 1093 364 1093 364 1093 c 1,30,31
 331 1099 331 1099 332 1132.5 c 128,-1,32
 333 1166 333 1166 364 1169 c 1,0,1
1532 1000 m 2,33,-1
 1653 1000 l 2,34,35
 1663 1000 1663 1000 1686 999.5 c 128,-1,36
 1709 999 1709 999 1715 993 c 0,37,38
 1723 985 1723 985 1711.5 984 c 128,-1,39
 1700 983 1700 983 1694 937 c 2,40,-1
 1681 841 l 2,41,42
 1673 778 1673 778 1623 778 c 2,43,-1
 1502 778 l 2,44,45
 1492 778 1492 778 1465.5 780 c 128,-1,46
 1439 782 1439 782 1438 792 c 0,47,48
 1436 804 1436 804 1446.5 808 c 128,-1,49
 1457 812 1457 812 1461 841 c 2,50,-1
 1474 937 l 2,51,52
 1483 1000 1483 1000 1532 1000 c 2,33,-1
1657 1713 m 1,53,54
 1719 1713 1719 1713 1786 1711.5 c 128,-1,55
 1853 1710 1853 1710 1907 1702 c 1,56,57
 1945 1702 1945 1702 1988.5 1594 c 128,-1,58
 2032 1486 2032 1486 2090 1383 c 0,59,60
 2109 1348 2109 1348 2129 1343 c 0,61,62
 2145 1339 2145 1339 2154 1326.5 c 128,-1,63
 2163 1314 2163 1314 2136 1304 c 1,64,65
 2074 1293 2074 1293 2010 1295 c 128,-1,66
 1946 1297 1946 1297 1889 1304 c 1,67,68
 1835 1325 1835 1325 1804.5 1401 c 128,-1,69
 1774 1477 1774 1477 1711 1623 c 1,70,71
 1706 1632 1706 1632 1689 1649.5 c 128,-1,72
 1672 1667 1672 1667 1651 1671 c 1,73,74
 1622 1675 1622 1675 1618.5 1693.5 c 128,-1,75
 1615 1712 1615 1712 1657 1713 c 1,53,54
2142 1711 m 1,76,77
 2212 1711 2212 1711 2289 1709.5 c 128,-1,78
 2366 1708 2366 1708 2428 1700 c 1,79,80
 2471 1700 2471 1700 2510 1595 c 128,-1,81
 2549 1490 2549 1490 2620 1386 c 0,82,83
 2645 1350 2645 1350 2665 1346 c 1,84,85
 2683 1341 2683 1341 2693.5 1328.5 c 128,-1,86
 2704 1316 2704 1316 2674 1307 c 1,87,88
 2602 1296 2602 1296 2529.5 1298 c 128,-1,89
 2457 1300 2457 1300 2391 1307 c 1,90,91
 2329 1327 2329 1327 2302.5 1401.5 c 128,-1,92
 2276 1476 2276 1476 2204 1621 c 1,93,94
 2181 1655 2181 1655 2135 1662 c 0,95,96
 2102 1667 2102 1667 2097.5 1688.5 c 128,-1,97
 2093 1710 2093 1710 2142 1711 c 1,76,77
177.5 2127.5 m 128,-1,99
 188 2144 188 2144 201 2145.5 c 128,-1,100
 214 2147 214 2147 229 2138 c 128,-1,101
 244 2129 244 2129 266 2118 c 128,-1,102
 288 2107 288 2107 323 2100 c 128,-1,103
 358 2093 358 2093 421 2093 c 2,104,-1
 2518 2093 l 1,105,106
 2576 2094 2576 2094 2623 2084 c 128,-1,107
 2670 2074 2670 2074 2709 2053.5 c 128,-1,108
 2748 2033 2748 2033 2769.5 2016.5 c 128,-1,109
 2791 2000 2791 2000 2828.5 1961 c 128,-1,110
 2866 1922 2866 1922 2893 1884.5 c 128,-1,111
 2920 1847 2920 1847 2904 1812 c 1,112,113
 2888 1788 2888 1788 2866.5 1802 c 128,-1,114
 2845 1816 2845 1816 2816 1826.5 c 128,-1,115
 2787 1837 2787 1837 2753 1841 c 128,-1,116
 2719 1845 2719 1845 2648 1845 c 2,117,-1
 581 1845 l 1,118,119
 533 1846 533 1846 495 1852 c 128,-1,120
 457 1858 457 1858 435 1865 c 128,-1,121
 413 1872 413 1872 389 1884 c 128,-1,122
 365 1896 365 1896 337.5 1914 c 128,-1,123
 310 1932 310 1932 279 1963.5 c 128,-1,124
 248 1995 248 1995 216 2036.5 c 128,-1,125
 184 2078 184 2078 175.5 2094.5 c 128,-1,98
 167 2111 167 2111 177.5 2127.5 c 128,-1,99
EndSplineSet
Validated: 33
EndChar

StartChar: braceleft
Encoding: 123 123 94
Width: 0
Flags: W
LayerCount: 2
Fore
SplineSet
964 2914 m 1,0,1
 966 2932 966 2932 996.5 2931 c 128,-1,2
 1027 2930 1027 2930 1029 2914 c 1,3,-1
 1029 2531 l 2,4,5
 1029 2510 1029 2510 1029 2510 c 1,6,7
 1017 2491 1017 2491 990.5 2493.5 c 128,-1,8
 964 2496 964 2496 964 2510 c 2,9,-1
 964 2893 l 2,10,11
 964 2914 964 2914 964 2914 c 1,0,1
939.5 3137.5 m 128,-1,13
 883 3132 883 3132 809 3093.5 c 128,-1,14
 735 3055 735 3055 689 2970 c 1,15,-1
 703 2963 l 1,16,17
 799 3040 799 3040 856 3059 c 128,-1,18
 913 3078 913 3078 954 3080 c 128,-1,19
 995 3082 995 3082 1042 3078.5 c 128,-1,20
 1089 3075 1089 3075 1142.5 3052 c 128,-1,21
 1196 3029 1196 3029 1277 2963 c 1,22,-1
 1291 2972 l 1,23,24
 1237 3064 1237 3064 1169.5 3095 c 128,-1,25
 1102 3126 1102 3126 1049 3134.5 c 128,-1,12
 996 3143 996 3143 939.5 3137.5 c 128,-1,13
EndSplineSet
Validated: 41
EndChar

StartChar: bar
Encoding: 124 124 95
Width: 300
Flags: W
LayerCount: 2
Fore
SplineSet
-8 1970 m 0,0,1
 -6 1970 -6 1970 -6 1967 c 0,2,3
 -6 1965 -6 1965 -8 1965 c 0,4,5
 -11 1965 -11 1965 -11 1967 c 0,6,7
 -11 1970 -11 1970 -8 1970 c 0,0,1
-202 3176 m 1,8,-1
 -202 3254 l 1,9,-1
 227 3254 l 1,10,-1
 227 3190 l 1,11,12
 163 3123 163 3123 101 3012 c 128,-1,13
 39 2901 39 2901 5 2782 c 0,14,15
 -19 2699 -19 2699 -26 2600 c 1,16,-1
 -110 2600 l 1,17,18
 -108 2678 -108 2678 -78.5 2789 c 128,-1,19
 -49 2900 -49 2900 6 3002.5 c 128,-1,20
 61 3105 61 3105 123 3176 c 1,21,-1
 -202 3176 l 1,8,-1
EndSplineSet
Validated: 1
EndChar

StartChar: braceright
Encoding: 125 125 96
Width: 292
Flags: W
LayerCount: 2
Fore
SplineSet
8 1970 m 256,0,1
 10 1970 10 1970 10 1967 c 0,2,3
 10 1965 10 1965 8 1965 c 256,4,5
 6 1965 6 1965 6 1967 c 0,6,7
 6 1970 6 1970 8 1970 c 256,0,1
188 3083 m 1,8,-1
 110 3077 l 1,9,10
 101 3123 101 3123 81 3144 c 0,11,12
 49 3178 49 3178 3 3178 c 0,13,14
 -35 3178 -35 3178 -63 3157 c 0,15,16
 -100 3130 -100 3130 -121.5 3078 c 128,-1,17
 -143 3026 -143 3026 -144 2930 c 1,18,19
 -115 2973 -115 2973 -74.5 2994 c 128,-1,20
 -34 3015 -34 3015 11 3015 c 0,21,22
 90 3015 90 3015 145 2957.5 c 128,-1,23
 200 2900 200 2900 200 2809 c 0,24,25
 200 2749 200 2749 174 2697 c 128,-1,26
 148 2645 148 2645 103 2617.5 c 128,-1,27
 58 2590 58 2590 0 2590 c 0,28,29
 -98 2590 -98 2590 -160 2662 c 128,-1,30
 -222 2734 -222 2734 -222 2900 c 0,31,32
 -222 3084 -222 3084 -154 3169 c 1,33,34
 -94 3242 -94 3242 7 3242 c 0,35,36
 83 3242 83 3242 131 3200 c 128,-1,37
 179 3158 179 3158 188 3083 c 1,8,-1
-132 2808 m 0,38,39
 -132 2767 -132 2767 -114.5 2730 c 128,-1,40
 -97 2693 -97 2693 -66.5 2673.5 c 128,-1,41
 -36 2654 -36 2654 -2 2654 c 0,42,43
 49 2654 49 2654 84 2694 c 128,-1,44
 119 2734 119 2734 119 2803 c 0,45,46
 119 2869 119 2869 84 2907.5 c 128,-1,47
 49 2946 49 2946 -4 2946 c 0,48,49
 -58 2946 -58 2946 -95 2907.5 c 128,-1,50
 -132 2869 -132 2869 -132 2808 c 0,38,39
EndSplineSet
Validated: 1
EndChar

StartChar: asciitilde
Encoding: 126 126 97
Width: 305
Flags: W
LayerCount: 2
Fore
SplineSet
55 2046 m 1,0,-1
 78 2259 l 2,1,2
 88 2349 88 2349 98 2381 c 0,3,4
 111 2426 111 2426 138 2447 c 256,5,6
 165 2468 165 2468 197 2468 c 0,7,8
 223 2468 223 2468 238 2453 c 1,9,10
 255 2439 255 2439 255 2416 c 0,11,12
 255 2399 255 2399 247 2379 c 1,13,14
 238 2353 238 2353 192 2259 c 2,15,-1
 89 2046 l 1,16,-1
 55 2046 l 1,0,-1
EndSplineSet
Validated: 1
EndChar

StartChar: edieresis
Encoding: 235 235 98
Width: 0
Flags: W
LayerCount: 2
Fore
SplineSet
-1190 1343 m 0,0,1
 -1173 1335 -1173 1335 -1153 1320.5 c 128,-1,2
 -1133 1306 -1133 1306 -1120 1297 c 0,3,4
 -1042 1242 -1042 1242 -980 1204 c 128,-1,5
 -918 1166 -918 1166 -831 1149 c 0,6,7
 -789 1141 -789 1141 -739.5 1144.5 c 128,-1,8
 -690 1148 -690 1148 -671 1156 c 1,9,10
 -617 1174 -617 1174 -611.5 1222 c 128,-1,11
 -606 1270 -606 1270 -623 1300 c 0,12,13
 -634 1320 -634 1320 -631 1344.5 c 128,-1,14
 -628 1369 -628 1369 -606 1374 c 1,15,16
 -507 1365 -507 1365 -439 1309.5 c 128,-1,17
 -371 1254 -371 1254 -369 1220 c 1,18,-1
 -369 1205 l 1,19,20
 -368 1170 -368 1170 -403.5 1122 c 128,-1,21
 -439 1074 -439 1074 -515 1056 c 0,22,23
 -693 1014 -693 1014 -869 1083 c 0,24,25
 -966 1121 -966 1121 -1059.5 1171 c 128,-1,26
 -1153 1221 -1153 1221 -1228 1281 c 0,27,28
 -1252 1300 -1252 1300 -1238.5 1329.5 c 128,-1,29
 -1225 1359 -1225 1359 -1190 1343 c 0,0,1
EndSplineSet
Validated: 33
EndChar

StartChar: bullet
Encoding: 8226 8226 99
Width: 0
Flags: W
LayerCount: 2
Fore
SplineSet
-10 1970 m 0,0,1
 -8 1970 -8 1970 -8 1967 c 0,2,3
 -8 1965 -8 1965 -10 1965 c 0,4,5
 -13 1965 -13 1965 -13 1967 c 0,6,7
 -13 1970 -13 1970 -10 1970 c 0,0,1
377 3174 m 1,8,-1
 459 3180 l 1,9,10
 469 3121 469 3121 502 3091 c 128,-1,11
 535 3061 535 3061 582 3061 c 0,12,13
 638 3061 638 3061 677 3103 c 128,-1,14
 716 3145 716 3145 716 3216 c 0,15,16
 716 3282 716 3282 678.5 3320.5 c 128,-1,17
 641 3359 641 3359 580 3359 c 0,18,19
 542 3359 542 3359 512 3342 c 128,-1,20
 482 3325 482 3325 464 3298 c 1,21,-1
 390 3307 l 1,22,-1
 452 3634 l 1,23,-1
 769 3634 l 1,24,-1
 769 3560 l 1,25,-1
 515 3560 l 1,26,-1
 481 3388 l 1,27,28
 538 3429 538 3429 601 3429 c 0,29,30
 684 3429 684 3429 741.5 3371 c 128,-1,31
 799 3313 799 3313 799 3222 c 0,32,33
 799 3136 799 3136 749 3073 c 0,34,35
 688 2996 688 2996 582 2996 c 0,36,37
 495 2996 495 2996 440 3044.5 c 128,-1,38
 385 3093 385 3093 377 3174 c 1,8,-1
EndSplineSet
Validated: 1
EndChar

StartChar: paragraph
Encoding: 182 182 100
Width: 0
Flags: W
LayerCount: 2
Fore
SplineSet
203 1970 m 0,0,1
 205 1970 205 1970 205 1967 c 0,2,3
 205 1965 205 1965 203 1965 c 0,4,5
 200 1965 200 1965 200 1967 c 0,6,7
 200 1970 200 1970 203 1970 c 0,0,1
787 3496 m 1,8,-1
 709 3490 l 1,9,10
 700 3536 700 3536 680 3557 c 0,11,12
 648 3591 648 3591 602 3591 c 0,13,14
 564 3591 564 3591 536 3570 c 0,15,16
 499 3543 499 3543 477.5 3491 c 128,-1,17
 456 3439 456 3439 455 3343 c 1,18,19
 484 3386 484 3386 524.5 3407 c 128,-1,20
 565 3428 565 3428 610 3428 c 0,21,22
 689 3428 689 3428 744 3370.5 c 128,-1,23
 799 3313 799 3313 799 3222 c 0,24,25
 799 3162 799 3162 773 3110 c 128,-1,26
 747 3058 747 3058 702 3030.5 c 128,-1,27
 657 3003 657 3003 599 3003 c 0,28,29
 501 3003 501 3003 439 3075 c 128,-1,30
 377 3147 377 3147 377 3313 c 0,31,32
 377 3497 377 3497 445 3582 c 1,33,34
 505 3655 505 3655 606 3655 c 0,35,36
 682 3655 682 3655 730 3613 c 128,-1,37
 778 3571 778 3571 787 3496 c 1,8,-1
467 3221 m 0,38,39
 467 3180 467 3180 484.5 3143 c 128,-1,40
 502 3106 502 3106 532.5 3086.5 c 128,-1,41
 563 3067 563 3067 597 3067 c 0,42,43
 648 3067 648 3067 683 3107 c 128,-1,44
 718 3147 718 3147 718 3216 c 0,45,46
 718 3282 718 3282 683 3320.5 c 128,-1,47
 648 3359 648 3359 595 3359 c 0,48,49
 541 3359 541 3359 504 3320.5 c 128,-1,50
 467 3282 467 3282 467 3221 c 0,38,39
EndSplineSet
Validated: 1
EndChar

StartChar: germandbls
Encoding: 223 223 101
Width: 0
Flags: W
LayerCount: 2
Fore
SplineSet
-8 1970 m 0,0,1
 -6 1970 -6 1970 -6 1967 c 0,2,3
 -6 1965 -6 1965 -8 1965 c 0,4,5
 -11 1965 -11 1965 -11 1967 c 0,6,7
 -11 1970 -11 1970 -8 1970 c 0,0,1
374 3572 m 1,8,-1
 374 3650 l 1,9,-1
 803 3650 l 1,10,-1
 803 3586 l 1,11,12
 739 3519 739 3519 677 3408 c 128,-1,13
 615 3297 615 3297 581 3178 c 0,14,15
 557 3095 557 3095 550 2996 c 1,16,-1
 466 2996 l 1,17,18
 468 3074 468 3074 497.5 3185 c 128,-1,19
 527 3296 527 3296 582 3398.5 c 128,-1,20
 637 3501 637 3501 699 3572 c 1,21,-1
 374 3572 l 1,8,-1
EndSplineSet
Validated: 1
EndChar

StartChar: registered
Encoding: 174 174 102
Width: 0
Flags: W
LayerCount: 2
Fore
SplineSet
-8 1970 m 0,0,1
 -6 1970 -6 1970 -6 1967 c 0,2,3
 -6 1965 -6 1965 -8 1965 c 0,4,5
 -11 1965 -11 1965 -11 1967 c 0,6,7
 -11 1970 -11 1970 -8 1970 c 0,0,1
336 3352 m 1,8,9
 289 3369 289 3369 266 3401 c 128,-1,10
 243 3433 243 3433 243 3478 c 0,11,12
 243 3546 243 3546 292 3592 c 128,-1,13
 341 3638 341 3638 422 3638 c 256,14,15
 503 3638 503 3638 552 3591 c 128,-1,16
 601 3544 601 3544 601 3476 c 0,17,18
 601 3433 601 3433 578.5 3401 c 128,-1,19
 556 3369 556 3369 511 3352 c 1,20,21
 567 3333 567 3333 597 3291 c 128,-1,22
 627 3249 627 3249 627 3192 c 0,23,24
 627 3112 627 3112 570.5 3058 c 128,-1,25
 514 3004 514 3004 422 3004 c 0,26,27
 331 3004 331 3004 274.5 3058 c 128,-1,28
 218 3112 218 3112 218 3194 c 0,29,30
 218 3255 218 3255 248.5 3296 c 128,-1,31
 279 3337 279 3337 336 3352 c 1,8,9
321 3481 m 0,32,33
 321 3436 321 3436 349.5 3408 c 128,-1,34
 378 3380 378 3380 422 3380 c 0,35,36
 467 3380 467 3380 495 3408 c 128,-1,37
 523 3436 523 3436 523 3476 c 0,38,39
 523 3518 523 3518 494 3547 c 128,-1,40
 465 3576 465 3576 422 3576 c 0,41,42
 378 3576 378 3576 349.5 3548 c 128,-1,43
 321 3520 321 3520 321 3481 c 0,32,33
296 3193 m 0,44,45
 296 3161 296 3161 311.5 3130.5 c 128,-1,46
 327 3100 327 3100 357.5 3083 c 128,-1,47
 388 3066 388 3066 423 3066 c 0,48,49
 478 3066 478 3066 513.5 3101.5 c 128,-1,50
 549 3137 549 3137 549 3192 c 0,51,52
 549 3246 549 3246 512.5 3282 c 128,-1,53
 476 3318 476 3318 421 3318 c 0,54,55
 367 3318 367 3318 331.5 3282.5 c 128,-1,56
 296 3247 296 3247 296 3193 c 0,44,45
EndSplineSet
Validated: 1
EndChar

StartChar: copyright
Encoding: 169 169 103
Width: 0
Flags: W
LayerCount: 2
Fore
SplineSet
-674 3395 m 0,0,1
 -674 3307 -674 3307 -768 3307 c 0,2,3
 -866 3307 -866 3307 -866 3395 c 0,4,5
 -866 3475 -866 3475 -768 3475 c 0,6,7
 -674 3475 -674 3475 -674 3395 c 0,0,1
-199 3307 m 1,8,-1
 -259 3307 l 1,9,10
 -267 3496 -267 3496 -427.5 3617 c 128,-1,11
 -588 3738 -588 3738 -768 3738 c 0,12,13
 -945 3738 -945 3738 -1107 3615.5 c 128,-1,14
 -1269 3493 -1269 3493 -1278 3307 c 1,15,-1
 -1334 3307 l 1,16,17
 -1316 3536 -1316 3536 -1166.5 3724.5 c 128,-1,18
 -1017 3913 -1017 3913 -768 3913 c 0,19,20
 -520 3913 -520 3913 -368 3726 c 128,-1,21
 -216 3539 -216 3539 -199 3307 c 1,8,-1
-382 2090 m 0,22,23
 -380 2090 -380 2090 -380 2087 c 0,24,25
 -380 2085 -380 2085 -382 2085 c 0,26,27
 -385 2085 -385 2085 -385 2087 c 0,28,29
 -385 2090 -385 2090 -382 2090 c 0,22,23
EndSplineSet
Validated: 1
EndChar

StartChar: OE
Encoding: 338 338 104
Width: 3002
Flags: W
LayerCount: 2
Fore
SplineSet
1772 1711 m 1,0,1
 1842 1711 1842 1711 1919 1709.5 c 128,-1,2
 1996 1708 1996 1708 2058 1700 c 1,3,4
 2101 1700 2101 1700 2140 1595 c 128,-1,5
 2179 1490 2179 1490 2250 1386 c 0,6,7
 2275 1350 2275 1350 2295 1346 c 1,8,9
 2313 1341 2313 1341 2323.5 1328.5 c 128,-1,10
 2334 1316 2334 1316 2304 1307 c 1,11,12
 2232 1296 2232 1296 2159.5 1298 c 128,-1,13
 2087 1300 2087 1300 2021 1307 c 1,14,15
 1959 1327 1959 1327 1932.5 1401.5 c 128,-1,16
 1906 1476 1906 1476 1834 1621 c 1,17,18
 1811 1655 1811 1655 1765 1662 c 0,19,20
 1732 1667 1732 1667 1727.5 1688.5 c 128,-1,21
 1723 1710 1723 1710 1772 1711 c 1,0,1
1263 1713 m 1,22,23
 1324 1713 1324 1713 1391.5 1711.5 c 128,-1,24
 1459 1710 1459 1710 1513 1702 c 1,25,26
 1551 1702 1551 1702 1594 1594 c 128,-1,27
 1637 1486 1637 1486 1696 1383 c 1,28,29
 1715 1347 1715 1347 1735 1343 c 0,30,31
 1751 1339 1751 1339 1759.5 1326.5 c 128,-1,32
 1768 1314 1768 1314 1742 1304 c 1,33,34
 1680 1293 1680 1293 1616 1295 c 128,-1,35
 1552 1297 1552 1297 1495 1304 c 1,36,37
 1441 1325 1441 1325 1410.5 1401 c 128,-1,38
 1380 1477 1380 1477 1317 1623 c 1,39,40
 1311 1632 1311 1632 1294.5 1649.5 c 128,-1,41
 1278 1667 1278 1667 1256 1671 c 0,42,43
 1227 1675 1227 1675 1223.5 1693.5 c 128,-1,44
 1220 1712 1220 1712 1263 1713 c 1,22,23
147.5 2127.5 m 128,-1,46
 158 2144 158 2144 171 2145.5 c 128,-1,47
 184 2147 184 2147 199 2138 c 128,-1,48
 214 2129 214 2129 236 2118 c 128,-1,49
 258 2107 258 2107 293 2100 c 128,-1,50
 328 2093 328 2093 391 2093 c 2,51,-1
 2488 2093 l 1,52,53
 2546 2094 2546 2094 2593 2084 c 128,-1,54
 2640 2074 2640 2074 2679 2053.5 c 128,-1,55
 2718 2033 2718 2033 2739.5 2016.5 c 128,-1,56
 2761 2000 2761 2000 2798.5 1961 c 128,-1,57
 2836 1922 2836 1922 2863 1884.5 c 128,-1,58
 2890 1847 2890 1847 2874 1812 c 1,59,60
 2858 1788 2858 1788 2836.5 1802 c 128,-1,61
 2815 1816 2815 1816 2786 1826.5 c 128,-1,62
 2757 1837 2757 1837 2723 1841 c 128,-1,63
 2689 1845 2689 1845 2618 1845 c 2,64,-1
 551 1845 l 1,65,66
 503 1846 503 1846 465 1852 c 128,-1,67
 427 1858 427 1858 405 1865 c 128,-1,68
 383 1872 383 1872 359 1884 c 128,-1,69
 335 1896 335 1896 307.5 1914 c 128,-1,70
 280 1932 280 1932 249 1963.5 c 128,-1,71
 218 1995 218 1995 186 2036.5 c 128,-1,72
 154 2078 154 2078 145.5 2094.5 c 128,-1,45
 137 2111 137 2111 147.5 2127.5 c 128,-1,46
EndSplineSet
Validated: 33
EndChar

StartChar: endash
Encoding: 8211 8211 105
Width: 0
Flags: W
LayerCount: 2
Fore
SplineSet
-356 2950 m 1,0,1
 -206 2951 -206 2951 -53 2952 c 128,-1,2
 100 2953 100 2953 250 2955 c 1,3,4
 261 2941 261 2941 258.5 2918 c 128,-1,5
 256 2895 256 2895 251 2880 c 1,6,7
 222.067 2873.47 222.067 2873.47 71.6133 2873.47 c 0,8,-1
 49.5 2873.5 l 0,9,10
 -121 2874 -121 2874 -247 2874 c 1,11,12
 -247.167 2856.33 -247.167 2856.33 -247.167 2837.92 c 0,13,14
 -247.167 2745.83 -247.167 2745.83 -243 2635 c 0,15,16
 -241.438 2593.44 -241.438 2593.44 -241.438 2564.77 c 0,17,18
 -241.438 2501.69 -241.438 2501.69 -249 2501 c 1,19,20
 -281 2501 -281 2501 -317 2496.5 c 128,-1,21
 -353 2492 -353 2492 -378 2501 c 1,22,23
 -381 2501 -381 2501 -381 2521 c 0,24,25
 -381 2522 -381 2522 -379.5 2523 c 128,-1,26
 -378 2524 -378 2524 -378 2526 c 0,27,28
 -378 2634 -378 2634 -376.5 2722.5 c 128,-1,29
 -375 2811 -375 2811 -375 2919 c 0,30,31
 -375 2947 -375 2947 -356 2950 c 1,0,1
EndSplineSet
Validated: 524289
EndChar

StartChar: lozenge
Encoding: 9674 9674 106
Width: 3002
Flags: W
LayerCount: 2
Fore
SplineSet
1546 2694 m 1,0,1
 1616 2694 1616 2694 1693 2692.5 c 128,-1,2
 1770 2691 1770 2691 1832 2683 c 1,3,4
 1875 2683 1875 2683 1914 2578.5 c 128,-1,5
 1953 2474 1953 2474 2024 2369 c 0,6,7
 2048 2333 2048 2333 2068 2330 c 1,8,9
 2087 2325 2087 2325 2097 2312.5 c 128,-1,10
 2107 2300 2107 2300 2077 2290 c 1,11,12
 2006 2280 2006 2280 1933.5 2281.5 c 128,-1,13
 1861 2283 1861 2283 1795 2290 c 1,14,15
 1732 2311 1732 2311 1706 2385 c 128,-1,16
 1680 2459 1680 2459 1607 2605 c 1,17,18
 1586 2637 1586 2637 1538 2646 c 1,19,20
 1505 2650 1505 2650 1501 2671.5 c 128,-1,21
 1497 2693 1497 2693 1546 2694 c 1,0,1
1037 2697 m 1,22,23
 1098 2697 1098 2697 1165.5 2695.5 c 128,-1,24
 1233 2694 1233 2694 1287 2685 c 1,25,26
 1325 2685 1325 2685 1368 2577.5 c 128,-1,27
 1411 2470 1411 2470 1469 2367 c 0,28,29
 1489 2331 1489 2331 1508 2327 c 0,30,31
 1524 2323 1524 2323 1533 2310 c 128,-1,32
 1542 2297 1542 2297 1516 2287 c 1,33,34
 1453 2277 1453 2277 1389.5 2279 c 128,-1,35
 1326 2281 1326 2281 1269 2287 c 1,36,37
 1215 2308 1215 2308 1184.5 2384 c 128,-1,38
 1154 2460 1154 2460 1091 2607 c 1,39,40
 1085 2615 1085 2615 1068.5 2632.5 c 128,-1,41
 1052 2650 1052 2650 1030 2654 c 0,42,43
 1001 2658 1001 2658 997.5 2676.5 c 128,-1,44
 994 2695 994 2695 1037 2697 c 1,22,23
177.5 2127.5 m 128,-1,46
 188 2144 188 2144 201 2145.5 c 128,-1,47
 214 2147 214 2147 229 2138 c 128,-1,48
 244 2129 244 2129 266 2118 c 128,-1,49
 288 2107 288 2107 323 2100 c 128,-1,50
 358 2093 358 2093 421 2093 c 2,51,-1
 2428 2093 l 1,52,53
 2486 2094 2486 2094 2533 2084 c 128,-1,54
 2580 2074 2580 2074 2619 2053.5 c 128,-1,55
 2658 2033 2658 2033 2679.5 2016.5 c 128,-1,56
 2701 2000 2701 2000 2738.5 1961 c 128,-1,57
 2776 1922 2776 1922 2803 1884.5 c 128,-1,58
 2830 1847 2830 1847 2814 1812 c 1,59,60
 2798 1788 2798 1788 2776.5 1802 c 128,-1,61
 2755 1816 2755 1816 2726 1826.5 c 128,-1,62
 2697 1837 2697 1837 2663 1841 c 128,-1,63
 2629 1845 2629 1845 2558 1845 c 2,64,-1
 581 1845 l 1,65,66
 533 1846 533 1846 495 1852 c 128,-1,67
 457 1858 457 1858 435 1865 c 128,-1,68
 413 1872 413 1872 389 1884 c 128,-1,69
 365 1896 365 1896 337.5 1914 c 128,-1,70
 310 1932 310 1932 279 1963.5 c 128,-1,71
 248 1995 248 1995 216 2036.5 c 128,-1,72
 184 2078 184 2078 175.5 2094.5 c 128,-1,45
 167 2111 167 2111 177.5 2127.5 c 128,-1,46
EndSplineSet
Validated: 33
EndChar

StartChar: ydieresis
Encoding: 255 255 107
Width: 0
Flags: W
LayerCount: 2
Fore
SplineSet
-1652 3284 m 1,0,1
 -1502 3285 -1502 3285 -1349 3286 c 128,-1,2
 -1196 3287 -1196 3287 -1045 3289 c 1,3,4
 -1035 3275 -1035 3275 -1037.5 3252 c 128,-1,5
 -1040 3229 -1040 3229 -1045 3214 c 1,6,7
 -1076 3207 -1076 3207 -1247 3207.5 c 128,-1,8
 -1418 3208 -1418 3208 -1543 3208 c 1,9,10
 -1544 3102 -1544 3102 -1539 2990.5 c 128,-1,11
 -1534 2879 -1534 2879 -1545 2877 c 1,12,13
 -1577 2877 -1577 2877 -1613 2872.5 c 128,-1,14
 -1649 2868 -1649 2868 -1674 2877 c 1,15,16
 -1677 2877 -1677 2877 -1677 2898 c 0,17,18
 -1677 2899 -1677 2899 -1675.5 2900 c 128,-1,19
 -1674 2901 -1674 2901 -1674 2903 c 0,20,21
 -1674 3011 -1674 3011 -1672.5 3078 c 128,-1,22
 -1671 3145 -1671 3145 -1671 3253 c 0,23,24
 -1671 3281 -1671 3281 -1652 3284 c 1,0,1
EndSplineSet
Validated: 33
EndChar

StartChar: perthousand
Encoding: 8240 8240 108
Width: 0
Flags: W
LayerCount: 2
Fore
SplineSet
8 1970 m 0,0,1
 10 1970 10 1970 10 1967 c 0,2,3
 10 1965 10 1965 8 1965 c 0,4,5
 5 1965 5 1965 5 1967 c 0,6,7
 5 1970 5 1970 8 1970 c 0,0,1
-1176 3176 m 1,8,9
 -1176 3247 -1176 3247 -1174 3313 c 128,-1,10
 -1172 3379 -1172 3379 -1172 3459 c 0,11,12
 -1172 3484 -1172 3484 -1153 3487 c 1,13,14
 -1002 3488 -1002 3488 -849.5 3488.5 c 128,-1,15
 -697 3489 -697 3489 -546 3492 c 1,16,17
 -529 3471 -529 3471 -546 3422 c 1,18,19
 -577 3416 -577 3416 -747.5 3416.5 c 128,-1,20
 -918 3417 -918 3417 -1043 3417 c 1,21,22
 -1044 3318 -1044 3318 -1040 3217 c 128,-1,23
 -1036 3116 -1036 3116 -1048 3116 c 1,24,25
 -1065 3112 -1065 3112 -1080.5 3109 c 128,-1,26
 -1096 3106 -1096 3106 -1174 3109 c 1,27,28
 -1257 3107 -1257 3107 -1364 3104.5 c 128,-1,29
 -1471 3102 -1471 3102 -1551 3102 c 1,30,31
 -1552 3004 -1552 3004 -1548.5 2902 c 128,-1,32
 -1545 2800 -1545 2800 -1556 2799 c 1,33,34
 -1588 2799 -1588 2799 -1623.5 2795 c 128,-1,35
 -1659 2791 -1659 2791 -1685 2799 c 0,36,37
 -1688 2799 -1688 2799 -1688 2819 c 1,38,39
 -1688 2819 -1688 2819 -1686.5 2820.5 c 128,-1,40
 -1685 2822 -1685 2822 -1685 2823 c 0,41,42
 -1685 2923 -1685 2923 -1682 2983 c 128,-1,43
 -1679 3043 -1679 3043 -1679 3145 c 0,44,45
 -1679 3170 -1679 3170 -1660 3173 c 1,46,47
 -1540 3174 -1540 3174 -1418.5 3174.5 c 128,-1,48
 -1297 3175 -1297 3175 -1176 3176 c 1,8,9
EndSplineSet
Validated: 33
EndChar
